<svg width="206" height="86" viewBox="0 0 206 86" fill="none" xmlns="http://www.w3.org/2000/svg">
<path d="M95.1078 33.0051V30.7211H95.5603L96.1004 32.3376C96.151 32.4877 96.1879 32.6 96.2113 32.6762C96.2362 32.5933 96.2777 32.4718 96.3305 32.3104L96.8773 30.7211H97.2839V33.0051H96.9913V31.0945L96.3297 33.0051H96.0559L95.3959 31.0621V33.0051H95.1063H95.1078ZM93.7486 33.0051V30.9904H92.9973V30.7211H94.8068V30.9904H94.0533V33.0051H93.7486ZM23.2368 41.8966H18.1832L20.6617 35.5251L23.2368 41.8966ZM30.1212 48.5041L30.1182 48.5018C30.0495 48.2838 29.9364 47.9957 29.79 47.6465L23.4647 32.726C23.3379 32.4198 23.1954 32.0939 23.0415 31.7394C22.8529 31.3117 22.6598 31.004 22.4803 30.8245C22.2683 30.5899 21.9953 30.4013 21.6687 30.2633C20.9717 29.9729 20.1647 30.0174 19.6155 30.2769C19.3169 30.4194 19.0543 30.6238 18.8378 30.8878C18.647 31.1224 18.475 31.4128 18.3249 31.7522C18.1937 32.0464 18.0557 32.3851 17.9131 32.7569L11.8042 47.7551C11.6684 48.0794 11.5696 48.3419 11.5033 48.5531C11.4173 48.8178 11.3743 49.0841 11.3743 49.3519C11.3743 49.8044 11.5575 50.2208 11.9196 50.5912C12.2801 50.963 12.7584 51.1591 13.3015 51.1591C14.1681 51.1591 14.5981 50.7707 14.81 50.4411C15.0076 50.1326 15.2083 49.7079 15.424 49.1497L16.9205 45.3233H24.5749L26.122 49.1037C26.3535 49.6807 26.5609 50.1129 26.754 50.4214C26.9615 50.7571 27.3937 51.1591 28.2672 51.1591C28.8578 51.1591 29.3638 50.9404 29.7274 50.524C30.0721 50.1311 30.2463 49.717 30.2463 49.2983C30.2463 49.0343 30.2034 48.7673 30.1204 48.5026L30.1212 48.5041ZM121.57 30.4707C121.444 30.2965 121.245 30.172 120.974 30.0936C120.703 30.0159 120.335 29.9767 119.869 29.9767C119.774 29.9767 119.685 29.9767 119.597 29.9789C119.595 29.9789 119.593 29.9767 119.589 29.9767C119.133 29.9767 118.793 29.9925 118.545 30.0219C118.257 30.0596 118.012 30.1509 117.818 30.3002C117.625 30.4473 117.466 30.6744 117.342 30.9738C117.234 31.234 117.103 31.6014 116.951 32.0683C116.494 33.4403 112.996 43.9512 111.958 47.1162C110.889 43.8192 107.2 32.5322 107.019 31.98C106.859 31.5154 106.72 31.1662 106.591 30.9089C106.443 30.6193 106.255 30.4006 106.032 30.2557C105.809 30.1132 105.537 30.0279 105.225 30.0053C104.956 29.9872 104.597 29.9759 104.153 29.9759L104.151 29.9782C104.119 29.9759 104.096 29.9759 104.064 29.9759C103.889 29.9759 103.682 29.9895 103.439 30.0189C103.197 30.0491 102.965 30.1343 102.743 30.2806C102.519 30.4262 102.335 30.6532 102.191 30.964C102.046 31.274 101.972 31.7175 101.972 32.2998V49.0939C101.972 49.3262 101.981 49.5653 102.002 49.8067C102.021 50.0481 102.073 50.2668 102.161 50.4599C102.248 50.6553 102.384 50.8144 102.568 50.9404C102.751 51.0649 103 51.129 103.308 51.129C103.639 51.129 103.894 51.0558 104.08 50.911C104.264 50.7662 104.398 50.5866 104.484 50.3732C104.572 50.1612 104.62 49.9342 104.632 49.6898C104.64 49.4484 104.646 49.241 104.646 49.0668V33.0843L109.991 48.9197C110.166 49.4047 110.316 49.7939 110.442 50.0828C110.569 50.3732 110.698 50.5957 110.833 50.7526C110.968 50.9065 111.126 51.0075 111.3 51.0558C111.475 51.1041 111.696 51.129 111.968 51.129C112.22 51.129 112.429 51.0943 112.592 51.0279C112.758 50.9585 112.902 50.8393 113.027 50.6643C113.153 50.4901 113.271 50.2615 113.376 49.9817C113.484 49.6988 113.613 49.3466 113.769 48.9189L119.172 33.3762V49.4711C119.172 49.5487 119.178 49.68 119.187 49.864C119.198 50.0473 119.246 50.2321 119.334 50.4154C119.421 50.5995 119.557 50.7654 119.74 50.9102C119.924 51.055 120.179 51.1282 120.51 51.1282C120.839 51.1282 121.09 51.055 121.265 50.9102C121.439 50.7654 121.57 50.5904 121.658 50.386C121.744 50.1838 121.798 49.9855 121.816 49.7931C121.835 49.597 121.846 49.4529 121.846 49.3564V32.2998C121.846 31.8563 121.833 31.4814 121.803 31.1805C121.773 30.8818 121.695 30.6449 121.57 30.47L121.57 30.4707ZM202.15 42.3257C200.35 41.7465 199.168 41.263 199.168 39.8834C199.168 38.9337 199.812 37.9132 201.224 37.9132C202.431 37.9132 203.291 38.6992 203.491 39.4353C203.673 40.1368 204.227 40.385 204.682 40.385C205.358 40.385 205.91 39.8336 205.91 39.1578C205.91 37.134 203.808 35.4904 201.224 35.4904C198.57 35.4904 196.568 37.3784 196.568 39.8841C196.568 42.9971 198.876 43.7672 200.729 44.3857C202.279 44.9099 203.309 45.533 203.309 46.8582C203.309 47.7988 202.569 48.7982 201.196 48.7982C199.474 48.7982 198.913 47.4715 198.782 47.0649C198.605 46.4992 198.056 46.242 197.621 46.242C196.945 46.242 196.395 46.7911 196.395 47.4692C196.395 49.4839 198.637 51.2519 201.195 51.2519C203.842 51.2519 205.996 49.2531 205.996 46.8001C205.996 43.829 203.801 42.8243 202.15 42.3257ZM192.261 30.0272C191.506 30.0272 190.916 30.6185 190.916 31.3698V49.821C190.916 50.6032 191.493 51.1938 192.261 51.1938C193.001 51.1938 193.603 50.5776 193.603 49.821V31.3698C193.603 30.6299 193.001 30.0272 192.261 30.0272ZM179.615 48.7409C176.734 48.7409 174.479 46.3815 174.479 43.3704C174.479 40.3601 176.734 38.0037 179.615 38.0037C182.416 38.0037 184.612 40.213 184.724 43.1374V43.5997C184.609 46.5316 182.413 48.7409 179.615 48.7409ZM186.067 35.5478C185.327 35.5478 184.724 36.1504 184.724 36.8904V37.5625C183.289 36.2221 181.441 35.4904 179.47 35.4904C175.147 35.4904 171.762 38.9503 171.762 43.3704C171.762 47.7913 175.147 51.2527 179.47 51.2527C181.463 51.2527 183.312 50.521 184.724 49.1859V49.8225C184.724 50.5791 185.327 51.1953 186.067 51.1953C186.833 51.1953 187.409 50.604 187.409 49.8225V36.8919C187.409 36.1406 186.818 35.5493 186.067 35.5493V35.5478ZM170.193 35.4904C166.504 35.4904 164.026 38.0837 164.026 41.9471V49.8218C164.026 50.604 164.604 51.1946 165.369 51.1946C166.111 51.1946 166.714 50.5783 166.714 49.8218V41.9471C166.714 39.4776 168.016 38.0037 170.193 38.0037C170.873 38.0037 171.45 37.4267 171.45 36.7463C171.45 36.0539 170.884 35.4904 170.193 35.4904ZM160.43 46.4743C159.949 46.4743 159.643 46.7504 159.308 47.0581C158.627 47.826 157.43 48.7417 155.579 48.7417C152.697 48.7417 150.442 46.3823 150.442 43.3712C150.442 40.3608 152.697 38.0045 155.579 38.0045C156.524 38.0045 157.454 38.2896 158.11 38.7769L153.706 43.9708C153.495 44.1828 153.392 44.4611 153.392 44.8262C153.392 45.5367 153.932 46.0519 154.677 46.0519C155.054 46.0519 155.365 45.9093 155.629 45.6099L160.798 39.4248C161.095 39.0989 161.224 38.8017 161.224 38.4321C161.224 38.055 161.042 37.6756 160.729 37.3973C159.413 36.1851 157.537 35.4912 155.579 35.4912C151.175 35.4912 147.726 38.9511 147.726 43.3712C147.726 47.792 151.175 51.2534 155.579 51.2534C157.884 51.2534 159.999 50.3083 161.382 48.6647C161.617 48.3955 161.775 48.0319 161.775 47.7603C161.775 47.0272 161.196 46.4743 160.43 46.4743ZM138.603 35.4904C134.75 35.4904 132.059 38.3258 132.059 42.3838V49.8218C132.059 50.604 132.636 51.1946 133.402 51.1946C134.142 51.1946 134.747 50.5783 134.747 49.8218V42.3265C134.747 39.7008 136.26 38.0037 138.603 38.0037C140.964 38.0037 142.491 39.7008 142.491 42.3265V49.8218C142.491 50.604 143.068 51.1946 143.834 51.1946C144.574 51.1946 145.176 50.5783 145.176 49.8218V42.3838C145.176 38.3258 142.474 35.4904 138.603 35.4904ZM127.414 30.7241C126.5 30.7241 125.779 31.4415 125.779 32.3587C125.779 33.2578 126.513 33.9917 127.414 33.9917C128.299 33.9917 129.049 33.2442 129.049 32.3587C129.049 31.4573 128.316 30.7241 127.414 30.7241ZM127.414 35.5478C126.66 35.5478 126.072 36.1391 126.072 36.8904V49.821C126.072 50.6032 126.649 51.1938 127.414 51.1938C128.154 51.1938 128.757 50.5776 128.757 49.821V36.8904C128.757 36.1504 128.154 35.5478 127.414 35.5478ZM84.618 42.4985C84.618 38.4012 87.5514 35.67 91.3017 35.67C95.0497 35.67 97.9838 38.4012 97.9838 42.4985V49.0381C97.9838 50.1718 97.0825 51.0701 95.9519 51.0701C94.8182 51.0701 93.9168 50.1718 93.9168 49.0381V42.3544C93.9168 40.4664 92.7552 39.4482 91.3024 39.4482C89.8497 39.4482 88.6859 40.4672 88.6859 42.3544V49.0381C88.6859 50.1718 87.7845 51.0701 86.653 51.0701C85.5201 51.0701 84.6188 50.1718 84.6188 49.0381L84.618 42.4985ZM77.5874 43.3704C77.5874 41.2501 76.0772 39.4474 73.957 39.4474C71.8344 39.4474 70.2942 41.2501 70.2942 43.3704C70.2942 45.4922 71.8352 47.295 73.957 47.295C76.0772 47.295 77.5874 45.4922 77.5874 43.3704ZM66.1962 43.3704C66.1962 39.071 69.4494 35.67 73.9562 35.67C78.4578 35.67 81.7132 39.071 81.7132 43.3704C81.7132 47.6721 78.4578 51.0701 73.9562 51.0701C69.4494 51.0701 66.1962 47.6721 66.1962 43.3704ZM59.2228 37.705C59.2228 36.5713 60.1243 35.67 61.2572 35.67C62.3909 35.67 63.2922 36.5713 63.2922 37.705V49.0373C63.2922 50.171 62.3909 51.0694 61.2572 51.0694C60.1243 51.0694 59.2228 50.171 59.2228 49.0373V37.705ZM58.9332 31.894C58.9332 30.6133 59.9794 29.5671 61.2572 29.5671C62.5357 29.5671 63.5818 30.6133 63.5818 31.894C63.5818 33.1703 62.5357 34.2187 61.2572 34.2187C59.9794 34.2187 58.9332 33.1703 58.9332 31.894ZM52.2208 43.3697C52.2208 41.1317 50.6233 39.4467 48.5604 39.4467C46.5555 39.4467 44.9851 41.0744 44.9277 43.2248V43.5439C44.9851 45.7238 46.5555 47.2942 48.5604 47.2942C50.6233 47.2942 52.2208 45.637 52.2208 43.3697ZM44.841 49.6189C44.6086 50.4607 43.8242 51.0694 42.8957 51.0694C41.762 51.0694 40.8607 50.171 40.8607 49.0373V32.1844C40.8607 31.0507 41.762 30.1494 42.8957 30.1494C44.0263 30.1494 44.9277 31.0507 44.9277 32.1844V37.0654C46.0908 36.1934 47.5443 35.6692 49.1426 35.6692C53.2399 35.6692 56.3181 39.0703 56.3181 43.3697C56.3181 47.6713 53.2399 51.0694 49.1426 51.0694C47.5149 51.0694 46.032 50.5474 44.841 49.6189ZM32.7031 32.1837C32.7031 31.05 33.6045 30.1486 34.7382 30.1486C35.8688 30.1486 36.7701 31.05 36.7701 32.1837V49.0366C36.7701 50.1703 35.8688 51.0686 34.7382 51.0686C33.6045 51.0686 32.7031 50.1703 32.7031 49.0366V32.1837ZM48.1794 85.2617V85.2383H47.9192C47.8038 85.227 47.6914 85.2134 47.5768 85.1976V85.1931H47.5556C47.4704 85.1818 47.3859 85.1652 47.2984 85.1516V85.1471H47.2773C47.2237 85.138 47.1694 85.1259 47.1136 85.1146V85.101H47.0442L46.9266 85.0762V85.055H46.8398L46.7432 85.0302V85.009H46.6565L46.5569 84.9819V84.9608H46.4861L46.3714 84.9283V84.9147H46.3299C46.2839 84.9012 46.2379 84.8876 46.1919 84.871L31.6403 80.1439L29.787 79.542L15.1019 74.7712L13.2486 74.1685L5.94346 71.7955C5.7828 71.7427 5.62132 71.6854 5.46518 71.6236V71.6205H5.4562C5.38303 71.5911 5.30685 71.5587 5.23293 71.5293V71.5262C4.94555 71.4048 4.66796 71.269 4.40094 71.1174V71.1099H4.3896C4.23572 71.0231 4.08411 70.9304 3.93703 70.8338V70.8316H3.93253C3.88879 70.8014 3.84274 70.772 3.79899 70.7418V70.7395H3.79376C3.6859 70.6664 3.57802 70.5879 3.47393 70.5102V70.508H3.46936C3.39318 70.4506 3.31778 70.3903 3.2416 70.3277V70.3209H3.23254C3.14278 70.2477 3.05074 70.1708 2.96324 70.0931V70.0908H2.96103C2.71513 69.8744 2.48508 69.6443 2.26936 69.4007V69.3939H2.26177L2.22258 69.3479C2.14188 69.2581 2.06644 69.1661 1.99026 69.0741V69.0695H1.98798C1.75113 68.7769 1.53544 68.4691 1.34234 68.1448V68.1425H1.34006C1.27746 68.0392 1.21557 67.9306 1.15598 67.8227V67.8174H1.15377C1.07307 67.6704 0.997599 67.5187 0.925942 67.3626V67.3551H0.920639C0.737349 66.9598 0.582733 66.548 0.461293 66.1256V66.1045H0.456063C0.405527 65.9272 0.359477 65.7462 0.322517 65.5637V65.5478H0.318024C0.303693 65.4769 0.287847 65.4053 0.27427 65.3321V65.3155H0.271986C0.255392 65.2288 0.241809 65.1413 0.228232 65.0515V65.0402H0.225949C0.209355 64.9225 0.195772 64.8056 0.182194 64.6887V64.6676H0.179985C0.152831 64.387 0.13623 64.1019 0.13623 63.8145V21.4691C0.13623 21.1817 0.152831 20.8943 0.179985 20.6115H0.182194V20.5979C0.195772 20.4787 0.209375 20.3588 0.228232 20.2419V20.2328C0.241809 20.1431 0.255413 20.0533 0.27427 19.9636V19.9523C0.287847 19.8791 0.30364 19.8052 0.320234 19.732H0.322517V19.7207C0.36174 19.5389 0.405527 19.3549 0.456063 19.1753H0.461293V19.1618C0.52767 18.9317 0.603891 18.7039 0.689125 18.4806H0.693618V18.4693C0.76452 18.286 0.840706 18.1043 0.922922 17.9247H0.925942V17.9217L0.966677 17.8327H0.97198V17.8252C1.01497 17.7332 1.06099 17.6434 1.107 17.5536H1.10921V17.5491C1.32267 17.1448 1.56934 16.7609 1.84692 16.3951H1.85222V16.3898C1.98347 16.2178 2.12071 16.0496 2.26855 15.8867V15.8844L2.30928 15.8407H2.31459V15.8339C2.48883 15.6423 2.67063 15.459 2.86372 15.284H2.8705V15.2772L2.91425 15.238H2.91646V15.2357C3.02206 15.1414 3.12996 15.0494 3.23858 14.9597H3.2416V14.9574C3.60215 14.6647 3.9891 14.403 4.39792 14.1714H4.4002L4.48086 14.1254H4.49221V14.1179C4.66946 14.0213 4.84824 13.9316 5.0353 13.8463H5.04886V13.8396L5.13563 13.8003H5.14086V13.7981C5.28794 13.734 5.43959 13.6714 5.59195 13.6148H5.60551V13.6118C5.71563 13.5688 5.82881 13.5288 5.94346 13.4926L18.113 9.53789L32.7981 4.76706L46.1912 0.417118C46.2945 0.382421 46.4008 0.349987 46.5064 0.32057H46.511V0.318307C46.566 0.301713 46.6218 0.288135 46.6769 0.274558H46.6957V0.267016C47.1211 0.159153 47.5458 0.0837252 47.9742 0.0414855H47.9947V0.0392226C48.2715 0.0120685 48.5467 0 48.8228 0C49.0868 0.00226284 49.3539 0.0135771 49.6164 0.0407312H49.6208C49.7423 0.0520454 49.8652 0.0686396 49.9866 0.0844795V0.0867424H50.0025C50.09 0.100319 50.1775 0.114651 50.2643 0.128228V0.132754H50.2876C50.357 0.146331 50.4279 0.159908 50.4973 0.174239V0.178765H50.5245C50.5939 0.194605 50.6603 0.208936 50.7266 0.224776H50.7319C50.7915 0.240616 50.8533 0.254193 50.9137 0.270787V0.27305H50.9159C51.0238 0.300204 51.1317 0.330375 51.2381 0.362809V0.365072H51.2456C51.3836 0.405803 51.5194 0.451815 51.6544 0.502351H51.6597C51.8158 0.559677 51.9682 0.620019 52.1198 0.686396V0.688659H52.1266C52.4094 0.810098 52.6855 0.948886 52.9525 1.10276V1.10502H52.9593C53.2949 1.29812 53.617 1.5146 53.9278 1.75069V1.7537H53.93C54.0055 1.81329 54.084 1.87514 54.1579 1.93699V1.93926H54.1601C54.3027 2.05693 54.4407 2.18138 54.5765 2.31036L54.6225 2.35336V2.35562H54.6247C54.6708 2.40163 54.7168 2.44538 54.7605 2.49139V2.49592H54.7651L54.8065 2.53967V2.54193H54.811L54.8548 2.58794C54.9807 2.72145 55.1052 2.85948 55.2251 3.00204V3.0043H55.2274C55.2893 3.07973 55.3489 3.1544 55.4092 3.22983V3.23738H55.4167C55.4741 3.3128 55.5321 3.38823 55.5895 3.46668L62.59 13.1056L66.8992 19.035L72.5646 26.8321H67.9597L59.5352 15.2365L55.5962 9.81546L52.5754 5.65862C51.6763 4.42084 50.2643 3.72917 48.7972 3.72917C48.3144 3.72917 47.8271 3.80233 47.3467 3.95847L38.8746 6.71084H38.8716L37.0206 7.31351H37.0183L24.1857 11.4839L11.3539 15.6521L7.09978 17.0347C5.1658 17.6623 3.86919 19.4507 3.86919 21.4812V63.8016C3.86919 65.8322 5.1658 67.6191 7.09978 68.2459L47.3459 81.3244C49.2799 81.9542 51.3791 81.2693 52.5746 79.625L63.2386 64.9436H63.2409L67.3087 59.3454H71.9144L70.2353 61.6557L61.9903 73.0046L55.5895 81.8154C55.5344 81.8916 55.4763 81.9655 55.419 82.0387H55.41V82.05C55.367 82.1096 55.3187 82.1677 55.2727 82.225L55.2335 82.271H55.2259V82.28L55.1935 82.317H55.1799V82.3351C55.0909 82.4384 54.9981 82.5425 54.9038 82.6413H54.9016V82.6459L54.8601 82.6873H54.8556V82.6941L54.8163 82.7334H54.8081V82.7417L54.7711 82.7794H54.762V82.7877L54.7251 82.8269H54.716V82.8352L54.679 82.8729H54.67V82.8812L54.6308 82.9182H54.6233V82.9257L54.5825 82.9649H54.5772V82.9725L54.5342 83.0117H54.5312V83.017L54.4829 83.0577C54.3087 83.2214 54.1247 83.3753 53.9384 83.5223H53.9293V83.5299C53.872 83.5729 53.8116 83.6189 53.7543 83.6611H53.743V83.6702C53.6812 83.7132 53.6215 83.7569 53.5597 83.8014H53.5567C53.442 83.8814 53.3252 83.9576 53.2052 84.0307H53.1864V84.042C53.1426 84.0692 53.0974 84.0971 53.0514 84.125H53.0491L52.9706 84.171H52.9548V84.1801L52.8899 84.217H52.8628V84.2306C52.6629 84.343 52.4562 84.4463 52.2465 84.5406H52.2141V84.5542L52.1409 84.5866H52.1228V84.5957L52.0331 84.6326H52.0308V84.6349C51.9546 84.6673 51.8791 84.6968 51.803 84.7269H51.7977C51.6688 84.7775 51.5405 84.8235 51.4092 84.8642H51.3799V84.8733L51.2644 84.9102H51.2411V84.9178C51.1981 84.9313 51.1543 84.9449 51.1098 84.957H51.103V84.9593C51.048 84.9758 50.9952 84.9894 50.9394 85.0053H50.9159V85.0098C50.7968 85.0422 50.6745 85.0694 50.5524 85.0973H50.5456C50.4694 85.1131 50.394 85.1297 50.3201 85.1433H50.2665V85.1516C50.1911 85.1659 50.1172 85.1772 50.041 85.1893H49.9882V85.1976C49.8849 85.2112 49.7815 85.2255 49.6782 85.2346H49.6186V85.2421C49.347 85.2693 49.0755 85.2813 48.8002 85.2813C48.5958 85.2813 48.3883 85.2745 48.1817 85.2579L48.1794 85.2617Z" fill="#006097"/>
</svg>
