<svg width="1920" height="95" viewBox="0 0 1920 95" fill="none" xmlns="http://www.w3.org/2000/svg">
<g clip-path="url(#clip0_26_1257)">
<path fill-rule="evenodd" clip-rule="evenodd" d="M1934.27 57.1711L1879.36 57.1711V6.35312L1934.27 6.35312V57.1711Z" fill="#005F96"/>
<path fill-rule="evenodd" clip-rule="evenodd" d="M1824.46 57.1711L1879.36 57.1711V6.35312L1824.46 6.35312V57.1711Z" fill="#005F96" fill-opacity="0.901961"/>
<path fill-rule="evenodd" clip-rule="evenodd" d="M1714.66 57.1711L1769.56 57.1711V6.35312L1714.66 6.35312V57.1711Z" fill="#005F96" fill-opacity="0.8"/>
<path fill-rule="evenodd" clip-rule="evenodd" d="M1824.46 57.1711L1769.56 57.1711V6.35312L1824.46 6.35312V57.1711Z" fill="#005F96" fill-opacity="0.901961"/>
<path fill-rule="evenodd" clip-rule="evenodd" d="M1495.04 57.1711L1549.95 57.1711V6.35312L1495.04 6.35312V57.1711Z" fill="#005F96" fill-opacity="0.501961"/>
<path fill-rule="evenodd" clip-rule="evenodd" d="M1604.85 57.1711L1549.95 57.1711V6.35312L1604.85 6.35312V57.1711Z" fill="#005F96" fill-opacity="0.4"/>
<path fill-rule="evenodd" clip-rule="evenodd" d="M1714.66 57.1711L1659.75 57.1711V6.35312L1714.66 6.35312V57.1711Z" fill="#005F96" fill-opacity="0.701961"/>
<path fill-rule="evenodd" clip-rule="evenodd" d="M1604.85 57.1711L1659.75 57.1711V6.35312L1604.85 6.35312V57.1711Z" fill="#005F96" fill-opacity="0.6"/>
<path fill-rule="evenodd" clip-rule="evenodd" d="M1495.04 57.1711L1440.14 57.1711V6.35312L1495.04 6.35312V57.1711Z" fill="#005F96" fill-opacity="0.6"/>
<path fill-rule="evenodd" clip-rule="evenodd" d="M1385.24 57.1711L1440.14 57.1711V6.35312L1385.24 6.35312V57.1711Z" fill="#005F96" fill-opacity="0.701961"/>
<path fill-rule="evenodd" clip-rule="evenodd" d="M1268.54 57.1711L1330.34 57.1711V6.35312L1268.54 6.35312V57.1711Z" fill="#005F96" fill-opacity="0.901961"/>
<path fill-rule="evenodd" clip-rule="evenodd" d="M1385.24 57.1711L1330.34 57.1711V6.35312L1385.24 6.35312V57.1711Z" fill="#005F96" fill-opacity="0.8"/>
<path fill-rule="evenodd" clip-rule="evenodd" d="M1435.03 69.0855L1342.68 69.0855V55.184L1435.03 55.184V69.0855Z" fill="#005F96" fill-opacity="0.501961"/>
<path fill-rule="evenodd" clip-rule="evenodd" d="M1894.72 32.3718L1848.04 32.3718V3.98914L1894.72 3.98914V32.3718Z" fill="#FEFEFE" fill-opacity="0.501961"/>
<path fill-rule="evenodd" clip-rule="evenodd" d="M1896.62 61.6226L1804.27 61.6226V39.5161L1896.62 39.5161V61.6226Z" fill="#FEFEFE" fill-opacity="0.501961"/>
<path fill-rule="evenodd" clip-rule="evenodd" d="M1824.46 35.1711L1732.11 35.1711V21.2696L1824.46 21.2696V35.1711Z" fill="#FEFEFE" fill-opacity="0.501961"/>
<path fill-rule="evenodd" clip-rule="evenodd" d="M1769.04 45.4696L1676.69 45.4696V31.5674L1769.04 31.5674V45.4696Z" fill="#FEFEFE" fill-opacity="0.501961"/>
<path fill-rule="evenodd" clip-rule="evenodd" d="M1934.27 54.9625L1882 54.9625V26.579L1934.27 26.579V54.9625Z" fill="#FEFEFE" fill-opacity="0.501961"/>
<path fill-rule="evenodd" clip-rule="evenodd" d="M1690.09 35.461L1643.41 35.461V7.07828L1690.09 7.07828V35.461Z" fill="#FEFEFE" fill-opacity="0.501961"/>
<path fill-rule="evenodd" clip-rule="evenodd" d="M1598.03 30.6988L1551.35 30.6988V2.316L1598.03 2.316V30.6988Z" fill="#FEFEFE" fill-opacity="0.501961"/>
<path fill-rule="evenodd" clip-rule="evenodd" d="M1374.71 54.5459L1328.02 54.5459V26.1624L1374.71 26.1624V54.5459Z" fill="#FEFEFE" fill-opacity="0.501961"/>
<path fill-rule="evenodd" clip-rule="evenodd" d="M1413.29 41.1592L1366.61 41.1592V12.7757L1413.29 12.7757V41.1592Z" fill="#FEFEFE" fill-opacity="0.501961"/>
<path fill-rule="evenodd" clip-rule="evenodd" d="M1339.39 31.9552L1292.7 31.9552V3.57251L1339.39 3.57251V31.9552Z" fill="#FEFEFE" fill-opacity="0.501961"/>
<path fill-rule="evenodd" clip-rule="evenodd" d="M1370.48 63.323L1275.43 63.323V49.4215L1370.48 49.4215V63.323Z" fill="#FEFEFE" fill-opacity="0.501961"/>
<path fill-rule="evenodd" clip-rule="evenodd" d="M1752.31 76.0364L1659.96 76.0364V62.1349L1752.31 62.1349V76.0364Z" fill="#005F96" fill-opacity="0.501961"/>
<path fill-rule="evenodd" clip-rule="evenodd" d="M1849.91 61.6226L1757.56 61.6226V47.7211L1849.91 47.7211V61.6226Z" fill="#005F96" fill-opacity="0.501961"/>
<path fill-rule="evenodd" clip-rule="evenodd" d="M1790.41 69.0855L1698.06 69.0855V55.184L1790.41 55.184V69.0855Z" fill="#005F96" fill-opacity="0.501961"/>
<path fill-rule="evenodd" clip-rule="evenodd" d="M1872.73 80.7993L1780.38 80.7993V66.8962L1872.73 66.8962V80.7993Z" fill="#005F96" fill-opacity="0.501961"/>
<path fill-rule="evenodd" clip-rule="evenodd" d="M1938.16 74.1057L1862.15 74.1057V60.2035L1938.16 60.2035V74.1057Z" fill="#005F96" fill-opacity="0.501961"/>
<path fill-rule="evenodd" clip-rule="evenodd" d="M1510.76 78.9817L1418.41 78.9817V65.0794L1510.76 65.0794V78.9817Z" fill="#005F96" fill-opacity="0.501961"/>
<path fill-rule="evenodd" clip-rule="evenodd" d="M1638.8 79.6724L1546.45 79.6724V65.7709L1638.8 65.7709V79.6724Z" fill="#005F96" fill-opacity="0.501961"/>
<path fill-rule="evenodd" clip-rule="evenodd" d="M1578.76 73.8151H1524.77V59.9137L1578.76 59.9137V73.8151Z" fill="#005F96" fill-opacity="0.501961"/>
<path fill-rule="evenodd" clip-rule="evenodd" d="M1531.75 62.0757L1485.06 62.0757V33.6921L1531.75 33.6921V62.0757Z" fill="#FEFEFE" fill-opacity="0.501961"/>
<path fill-rule="evenodd" clip-rule="evenodd" d="M1570.32 48.6886L1523.64 48.6886V20.3051L1570.32 20.3051V48.6886Z" fill="#FEFEFE" fill-opacity="0.501961"/>
<path fill-rule="evenodd" clip-rule="evenodd" d="M1500.61 61.3654L1408.26 61.3654V47.4639L1500.61 47.4639V61.3654Z" fill="#FEFEFE" fill-opacity="0.501961"/>
<path fill-rule="evenodd" clip-rule="evenodd" d="M1681.46 60.9295L1589.11 60.9295V41.0875L1681.46 41.0875V60.9295Z" fill="#005F96" fill-opacity="0.501961"/>
<path fill-rule="evenodd" clip-rule="evenodd" d="M443.725 54.8551L388.821 54.8551V4.03712L443.725 4.03712V54.8551Z" fill="#005F96"/>
<path fill-rule="evenodd" clip-rule="evenodd" d="M333.919 54.8551L388.821 54.8551V4.03712L333.919 4.03712V54.8551Z" fill="#005F96" fill-opacity="0.901961"/>
<path fill-rule="evenodd" clip-rule="evenodd" d="M224.113 54.8551L279.016 54.8551V4.03712L224.113 4.03712V54.8551Z" fill="#005F96" fill-opacity="0.8"/>
<path fill-rule="evenodd" clip-rule="evenodd" d="M333.919 54.8551L279.016 54.8551V4.03712L333.919 4.03712V54.8551Z" fill="#005F96" fill-opacity="0.901961"/>
<path fill-rule="evenodd" clip-rule="evenodd" d="M4.50038 54.8551L59.4038 54.8551L59.4038 4.03712L4.50038 4.03712L4.50038 54.8551Z" fill="#005F96" fill-opacity="0.501961"/>
<path fill-rule="evenodd" clip-rule="evenodd" d="M114.307 54.8551L59.404 54.8551L59.404 4.03712L114.307 4.03712V54.8551Z" fill="#005F96" fill-opacity="0.4"/>
<path fill-rule="evenodd" clip-rule="evenodd" d="M224.112 54.8551L169.21 54.8551V4.03712L224.112 4.03712V54.8551Z" fill="#005F96" fill-opacity="0.701961"/>
<path fill-rule="evenodd" clip-rule="evenodd" d="M114.306 54.8551L169.21 54.8551V4.03712L114.306 4.03712V54.8551Z" fill="#005F96" fill-opacity="0.6"/>
<path fill-rule="evenodd" clip-rule="evenodd" d="M4.50049 54.8551L-50.4013 54.8551L-50.4013 4.03712L4.50049 4.03712L4.50049 54.8551Z" fill="#005F96" fill-opacity="0.6"/>
<path fill-rule="evenodd" clip-rule="evenodd" d="M404.177 30.0558L357.496 30.0558V1.6731L404.177 1.6731V30.0558Z" fill="#FEFEFE" fill-opacity="0.501961"/>
<path fill-rule="evenodd" clip-rule="evenodd" d="M406.078 59.307L313.728 59.307V37.2004L406.078 37.2004V59.307Z" fill="#FEFEFE" fill-opacity="0.501961"/>
<path fill-rule="evenodd" clip-rule="evenodd" d="M333.919 32.8551L241.569 32.8551V18.9537L333.919 18.9537V32.8551Z" fill="#FEFEFE" fill-opacity="0.501961"/>
<path fill-rule="evenodd" clip-rule="evenodd" d="M278.493 43.1538L186.143 43.1538V29.2515L278.493 29.2515V43.1538Z" fill="#FEFEFE" fill-opacity="0.501961"/>
<path fill-rule="evenodd" clip-rule="evenodd" d="M443.725 52.6467L391.456 52.6467V24.2632L443.725 24.2632V52.6467Z" fill="#FEFEFE" fill-opacity="0.501961"/>
<path fill-rule="evenodd" clip-rule="evenodd" d="M199.552 33.1451L152.871 33.1451V4.76245L199.552 4.76245V33.1451Z" fill="#FEFEFE" fill-opacity="0.501961"/>
<path fill-rule="evenodd" clip-rule="evenodd" d="M107.49 28.3828L60.809 28.3828V1.71661e-05L107.49 1.71661e-05V28.3828Z" fill="#FEFEFE" fill-opacity="0.501961"/>
<path fill-rule="evenodd" clip-rule="evenodd" d="M243.195 77.3636L150.846 77.3636V63.4621L243.195 63.4621V77.3636Z" fill="#005F96" fill-opacity="0.501961"/>
<path fill-rule="evenodd" clip-rule="evenodd" d="M359.364 59.307L267.014 59.307V45.4054L359.364 45.4054V59.307Z" fill="#005F96" fill-opacity="0.501961"/>
<path fill-rule="evenodd" clip-rule="evenodd" d="M299.863 66.7695L207.514 66.7695V52.8673L299.863 52.8673V66.7695Z" fill="#005F96" fill-opacity="0.501961"/>
<path fill-rule="evenodd" clip-rule="evenodd" d="M382.186 78.4835L289.836 78.4835V64.5805L382.186 64.5805V78.4835Z" fill="#005F96" fill-opacity="0.501961"/>
<path fill-rule="evenodd" clip-rule="evenodd" d="M447.618 71.7901L371.612 71.7901V57.8878L447.618 57.8878V71.7901Z" fill="#005F96" fill-opacity="0.501961"/>
<path fill-rule="evenodd" clip-rule="evenodd" d="M148.259 77.3566L55.9091 77.3566V63.4551L148.259 63.4551V77.3566Z" fill="#005F96" fill-opacity="0.501961"/>
<path fill-rule="evenodd" clip-rule="evenodd" d="M88.2163 71.4991H34.2307V57.5977L88.2163 57.5977V71.4991Z" fill="#005F96" fill-opacity="0.501961"/>
<path fill-rule="evenodd" clip-rule="evenodd" d="M41.2007 59.7599L-5.48055 59.7599V31.3764L41.2007 31.3764V59.7599Z" fill="#FEFEFE" fill-opacity="0.501961"/>
<path fill-rule="evenodd" clip-rule="evenodd" d="M79.7808 46.3726L33.0994 46.3726V17.9892L79.7808 17.9892V46.3726Z" fill="#FEFEFE" fill-opacity="0.501961"/>
<path fill-rule="evenodd" clip-rule="evenodd" d="M10.0635 59.0494L-82.2864 59.0494V45.1479L10.0635 45.1479L10.0635 59.0494Z" fill="#FEFEFE" fill-opacity="0.501961"/>
<path fill-rule="evenodd" clip-rule="evenodd" d="M190.915 58.6137L98.5654 58.6137V38.7717L190.915 38.7717V58.6137Z" fill="#005F96" fill-opacity="0.501961"/>
<path fill-rule="evenodd" clip-rule="evenodd" d="M1271.29 62.0967L1202.64 62.0967V9.14785L1271.29 9.14785V62.0967Z" fill="#005F96"/>
<path fill-rule="evenodd" clip-rule="evenodd" d="M1134 62.0967L1202.64 62.0967V9.14785L1134 9.14785V62.0967Z" fill="#005F96" fill-opacity="0.901961"/>
<path fill-rule="evenodd" clip-rule="evenodd" d="M996.704 62.0967L1065.35 62.0967V9.14785L996.704 9.14785V62.0967Z" fill="#005F96" fill-opacity="0.8"/>
<path fill-rule="evenodd" clip-rule="evenodd" d="M1134 62.0967L1065.35 62.0967V9.14785L1134 9.14785V62.0967Z" fill="#005F96" fill-opacity="0.901961"/>
<path fill-rule="evenodd" clip-rule="evenodd" d="M722.122 62.0967L790.768 62.0967V9.14785L722.122 9.14785V62.0967Z" fill="#005F96" fill-opacity="0.501961"/>
<path fill-rule="evenodd" clip-rule="evenodd" d="M859.413 62.0967L790.768 62.0967V9.14785L859.413 9.14785V62.0967Z" fill="#005F96" fill-opacity="0.4"/>
<path fill-rule="evenodd" clip-rule="evenodd" d="M996.704 62.0967L928.058 62.0967V9.14785L996.704 9.14785V62.0967Z" fill="#005F96" fill-opacity="0.701961"/>
<path fill-rule="evenodd" clip-rule="evenodd" d="M859.413 62.0967L928.058 62.0967V9.14785L859.413 9.14785V62.0967Z" fill="#005F96" fill-opacity="0.6"/>
<path fill-rule="evenodd" clip-rule="evenodd" d="M722.123 62.0967L653.477 62.0967V9.14785L722.123 9.14785V62.0967Z" fill="#005F96" fill-opacity="0.6"/>
<path fill-rule="evenodd" clip-rule="evenodd" d="M584.831 62.0967L653.477 62.0967V9.14785L584.831 9.14785V62.0967Z" fill="#005F96" fill-opacity="0.701961"/>
<path fill-rule="evenodd" clip-rule="evenodd" d="M438.927 62.0967L516.186 62.0967V9.14785L438.927 9.14785V62.0967Z" fill="#005F96" fill-opacity="0.901961"/>
<path fill-rule="evenodd" clip-rule="evenodd" d="M584.831 62.0967L516.185 62.0967V9.14785L584.831 9.14785V62.0967Z" fill="#005F96" fill-opacity="0.8"/>
<path fill-rule="evenodd" clip-rule="evenodd" d="M647.091 74.5108L531.626 74.5108V60.0257L647.091 60.0257V74.5108Z" fill="#005F96" fill-opacity="0.501961"/>
<path fill-rule="evenodd" clip-rule="evenodd" d="M1221.84 36.2577L1163.47 36.2577V6.68443L1221.84 6.68443V36.2577Z" fill="#FEFEFE" fill-opacity="0.501961"/>
<path fill-rule="evenodd" clip-rule="evenodd" d="M1224.22 66.7353L1108.75 66.7353V43.7016L1224.22 43.7016V66.7353Z" fill="#FEFEFE" fill-opacity="0.501961"/>
<path fill-rule="evenodd" clip-rule="evenodd" d="M1134 39.1748L1018.53 39.1748V24.689L1134 24.689V39.1748Z" fill="#FEFEFE" fill-opacity="0.501961"/>
<path fill-rule="evenodd" clip-rule="evenodd" d="M1064.7 49.9049L949.231 49.9049V35.419L1064.7 35.419V49.9049Z" fill="#FEFEFE" fill-opacity="0.501961"/>
<path fill-rule="evenodd" clip-rule="evenodd" d="M1271.29 59.7947L1205.94 59.7947V30.2214L1271.29 30.2214V59.7947Z" fill="#FEFEFE" fill-opacity="0.501961"/>
<path fill-rule="evenodd" clip-rule="evenodd" d="M965.996 39.4756L907.63 39.4756V9.90232L965.996 9.90232V39.4756Z" fill="#FEFEFE" fill-opacity="0.501961"/>
<path fill-rule="evenodd" clip-rule="evenodd" d="M850.891 34.5135L792.524 34.5135V4.94023L850.891 4.94023V34.5135Z" fill="#FEFEFE" fill-opacity="0.501961"/>
<path fill-rule="evenodd" clip-rule="evenodd" d="M571.663 59.3612L513.298 59.3612V29.7879L571.663 29.7879V59.3612Z" fill="#FEFEFE" fill-opacity="0.501961"/>
<path fill-rule="evenodd" clip-rule="evenodd" d="M619.9 45.4131L561.534 45.4131V15.8398L619.9 15.8398V45.4131Z" fill="#FEFEFE" fill-opacity="0.501961"/>
<path fill-rule="evenodd" clip-rule="evenodd" d="M527.503 35.8239L469.137 35.8239V6.25059L527.503 6.25059V35.8239Z" fill="#FEFEFE" fill-opacity="0.501961"/>
<path fill-rule="evenodd" clip-rule="evenodd" d="M566.378 68.5073L447.54 68.5073V54.0214L566.378 54.0214V68.5073Z" fill="#FEFEFE" fill-opacity="0.501961"/>
<path fill-rule="evenodd" clip-rule="evenodd" d="M1165.81 66.7353L1050.34 66.7353V52.2501L1165.81 52.2501V66.7353Z" fill="#005F96" fill-opacity="0.501961"/>
<path fill-rule="evenodd" clip-rule="evenodd" d="M1091.42 74.5108L975.95 74.5108V60.0257L1091.42 60.0257V74.5108Z" fill="#005F96" fill-opacity="0.501961"/>
<path fill-rule="evenodd" clip-rule="evenodd" d="M1194.34 86.7156L1078.88 86.7156V72.2305L1194.34 72.2305V86.7156Z" fill="#005F96" fill-opacity="0.501961"/>
<path fill-rule="evenodd" clip-rule="evenodd" d="M1276.15 79.7414L1181.12 79.7414V65.2564L1276.15 65.2564V79.7414Z" fill="#005F96" fill-opacity="0.501961"/>
<path fill-rule="evenodd" clip-rule="evenodd" d="M768.009 67.2072L709.643 67.2072V37.6339L768.009 37.6339V67.2072Z" fill="#FEFEFE" fill-opacity="0.501961"/>
<path fill-rule="evenodd" clip-rule="evenodd" d="M816.246 53.2581L757.88 53.2581V23.6848L816.246 23.6848V53.2581Z" fill="#FEFEFE" fill-opacity="0.501961"/>
<path fill-rule="evenodd" clip-rule="evenodd" d="M729.077 66.4673L613.611 66.4673V51.9829L729.077 51.9829V66.4673Z" fill="#FEFEFE" fill-opacity="0.501961"/>
<path fill-rule="evenodd" clip-rule="evenodd" d="M955.196 66.0134L839.73 66.0134V45.3384L955.196 45.3384V66.0134Z" fill="#005F96" fill-opacity="0.501961"/>
<path fill-rule="evenodd" clip-rule="evenodd" d="M-222 11.2345L1933.14 11.2345V0.000148773L-222 0.000148773V11.2345Z" fill="url(#paint0_linear_26_1257)"/>
<path fill-rule="evenodd" clip-rule="evenodd" d="M1039.34 95L923.879 95V70.4385L1039.34 70.4385V95Z" fill="#005F96" fill-opacity="0.501961"/>
<path fill-rule="evenodd" clip-rule="evenodd" d="M890.062 79.9521L774.598 79.9521V71.9943L890.062 71.9943V79.9521Z" fill="#005F96" fill-opacity="0.501961"/>
</g>
<defs>
<linearGradient id="paint0_linear_26_1257" x1="1933.14" y1="5.61731" x2="-222" y2="5.61731" gradientUnits="userSpaceOnUse">
<stop stop-color="#9D9E9E"/>
<stop offset="0.0784314" stop-color="#D9DADA"/>
<stop offset="0.160784" stop-color="#898989"/>
<stop offset="0.270588" stop-color="#D9DADA"/>
<stop offset="0.411765" stop-color="#9D9E9E"/>
<stop offset="0.541176" stop-color="#D9DADA"/>
<stop offset="0.701961" stop-color="#898989"/>
<stop offset="0.870588" stop-color="#EBECEC"/>
<stop offset="1" stop-color="#9D9E9E"/>
</linearGradient>
<clipPath id="clip0_26_1257">
<rect width="1920" height="95" fill="white"/>
</clipPath>
</defs>
</svg>
