<svg width="195" height="45" viewBox="0 0 195 45" fill="none" xmlns="http://www.w3.org/2000/svg">
<path d="M190.428 9.00101V14.374C190.428 16.9012 189.025 18.308 186.497 18.308H174.133C171.606 18.308 170.202 16.9012 170.202 14.374V5.94508L165.705 9.0023V14.3746C165.705 20.0868 168.422 22.8028 174.133 22.8028H178.066V35.167L182.564 32.1091V22.8028H186.497C192.21 22.8028 194.924 20.0861 194.924 14.3746V5.9457L190.428 9.0023L190.428 9.00101ZM32.3345 4.56221C32.094 4.4401 31.8529 4.31482 31.6005 4.19082C31.2443 3.97429 29.8595 2.98546 27.9951 2.18859C27.2209 1.88583 26.3837 1.62899 25.5226 1.47604C24.8308 1.3319 24.1284 1.26458 23.4347 1.27276C22.0456 1.29353 20.657 1.61896 19.412 2.27169C17.1271 3.46952 15.2161 5.80537 14.3834 9.19366C12.6096 15.6096 16.5272 22.8702 21.0403 26.7551C22.3301 27.8636 23.6387 28.6088 24.8693 28.9178C26.0318 29.3106 27.0137 29.2439 27.8282 28.9418C29.7739 28.2261 30.7797 26.1584 30.9805 26.03C31.4576 25.3149 32.106 24.8189 32.7814 24.6691C33.4284 24.5281 34.1038 24.7043 34.6879 25.3193C34.7528 25.3873 34.8138 25.466 34.8768 25.5485C35.7303 26.7847 35.7586 29.7764 34.3084 32.1695C34.0962 32.466 33.2717 33.8823 31.4199 35.5232C30.7061 36.1502 29.7147 36.7859 28.5565 37.263C26.5077 38.1014 23.8981 38.4413 21.4162 37.4462C19.9905 37.0635 18.5584 36.344 17.1749 35.3262C13.3504 32.5057 10.0144 27.6986 8.27526 22.2917C6.62738 17.1586 6.55308 11.86 8.92671 7.60683C10.8465 3.83773 13.9125 1.53269 17.0308 0.576564C18.109 0.244848 19.2219 0.0623439 20.3146 0.0138768C21.8398 -0.054103 23.3561 0.129652 24.7383 0.521795C24.3638 0.410384 23.983 0.298992 23.5952 0.195764C23.961 0.284515 24.3166 0.378934 24.6635 0.481533C25.031 0.587279 25.3955 0.699927 25.7505 0.82078C25.5258 0.745247 25.2954 0.676677 25.06 0.609327L25.0927 0.618732L25.1607 0.638894L25.2174 0.656535L25.2985 0.681676L25.3225 0.688622C25.5239 0.749678 25.7234 0.812642 25.9179 0.881881L25.9223 0.882495L26.0236 0.917717L26.0413 0.923372L26.1477 0.959885L26.1609 0.966216L26.2711 1.00709L26.2792 1.00961C26.4366 1.06815 26.592 1.12732 26.745 1.18775L26.7551 1.19279L26.8602 1.23496L26.9735 1.28155L26.9924 1.28911L27.0861 1.32937C27.195 1.37595 27.3058 1.42507 27.4128 1.4729L27.4223 1.47665L27.625 1.56671L27.6363 1.57298L27.6791 1.59314L27.7433 1.62018L27.7528 1.62523C27.856 1.67495 27.9573 1.72402 28.0592 1.77312L28.1178 1.80213L28.1625 1.82352L28.1864 1.83674C28.3488 1.91731 28.5099 2.00041 28.6642 2.08286L28.7435 2.12374L28.7624 2.13382L28.8442 2.17851L28.8593 2.18668L28.9544 2.23893L29.0412 2.28553L29.0494 2.29057L29.1381 2.34152L29.1419 2.34214L29.2345 2.39629C29.356 2.46616 29.4743 2.5348 29.5914 2.60467L29.6064 2.61285L29.6782 2.65686C29.7921 2.72673 29.9035 2.79345 30.013 2.86395L30.0414 2.8822L30.0936 2.91435L30.1251 2.93513L30.1723 2.96593L30.2069 2.98609L30.251 3.01627L30.2869 3.03957L30.3278 3.066L30.3675 3.09249L30.4033 3.11573L30.4455 3.14283L30.4776 3.16422L30.5229 3.19508L30.5513 3.21457L30.5645 3.22084L30.6236 3.26116L30.6721 3.29638L30.6954 3.31089L30.7438 3.34611L30.7634 3.35933L30.8163 3.39461L30.832 3.40783L30.8861 3.44434L30.8987 3.45442L30.9535 3.49468L30.9641 3.50034L31.0208 3.5406L31.029 3.54441L31.0863 3.58658L31.0913 3.59162L31.1498 3.6344L31.1524 3.63631L31.2134 3.67847C31.7805 4.09328 32.1683 4.42183 32.3351 4.56283L32.3345 4.56221ZM39.381 24.3544L39.3968 24.3689C39.3735 23.893 39.3332 23.4247 39.2716 22.9734C38.931 19.5417 37.4953 16.5109 36.3346 14.8712C36.2276 14.7139 36.1174 14.5723 36.0129 14.4438C34.6873 12.7374 33.7532 12.0865 33.519 11.8858C32.8927 11.4156 32.3445 11.2116 31.9108 11.2028C30.9453 11.1871 30.5223 12.1458 30.8622 13.557C31.243 15.191 32.077 16.762 32.9198 17.8C33.2314 18.1808 33.5436 18.4811 33.8332 18.6825C33.9036 18.7694 34.1567 18.8972 34.501 19.154C34.834 19.4026 35.2487 19.7721 35.6465 20.3556C36.1407 21.0794 36.6279 22.1425 36.8696 23.7583C37.6753 28.3085 35.2198 36.6008 30.178 39.5126C29.5586 39.8846 28.9166 40.1981 28.2595 40.4675C22.9205 42.6498 16.3284 41.496 11.3294 38.0511C10.2725 37.319 9.29116 36.4995 8.42064 35.6013C3.31523 30.7603 1.36459 25.2381 0.523654 22.383C0.278801 21.5496 0.122112 20.9321 0 20.6237C0.0484671 22.0777 0.183141 29.7506 6.50274 37.2309C7.93473 39.0468 9.76513 40.6853 11.8694 41.9876C16.8602 45.0725 23.2371 46.0689 28.8014 43.6462C29.1142 43.5077 29.4264 43.3649 29.7367 43.2037C35.5005 40.4046 39.5787 30.9862 39.3804 24.3544H39.381ZM25.1752 23.0325C25.5377 22.9671 25.8789 22.8261 26.1804 22.5995C28.0058 21.26 28.4659 18.4993 27.8314 16.4851C27.8113 16.0451 25.6019 11.9953 27.6684 9.81425C28.1342 9.19425 28.8599 8.83233 29.7235 8.7461C31.6326 8.68316 34.2121 9.91118 36.3119 12.7726C36.5914 13.1503 36.8626 13.5651 37.1308 14.0089C40.0199 18.7706 41.0056 26.0759 40.0256 31.0038C39.0544 36.1993 36.7695 39.4938 36.3119 40.2799C36.4894 40.0458 36.9332 39.4768 37.4946 38.5678C38.4161 37.0736 39.6454 34.6646 40.4133 31.2701C41.5772 26.3308 40.9333 18.3067 37.5676 12.4629C37.0093 11.4684 36.3944 10.5715 35.753 9.76704C32.6347 5.88149 28.1097 3.78736 24.8208 3.85471C23.825 3.87485 22.9218 4.08634 22.1885 4.48667C19.1023 5.62785 18.2154 9.38752 18.3615 12.181C18.5226 15.4195 19.1539 17.4878 19.2534 18.0172C19.7764 19.7815 20.6627 21.1423 21.6736 22.0305C22.8362 23.042 24.129 23.4008 25.1758 23.0319L25.1752 23.0325ZM156.688 5.94447H127.467V35.1663H153.63L156.688 30.6677H131.964V22.8015H147.454L150.507 18.3067H131.964V10.4418H153.631L156.689 5.94318L156.688 5.94447ZM89.2272 5.94447V35.1663L93.7246 32.1091V25.894H110.018C115.728 25.894 118.447 23.1755 118.447 17.4652V14.3733C118.447 8.66178 115.728 5.94447 110.018 5.94447H89.2272ZM113.949 14.3733V17.4652C113.949 19.9943 112.546 21.3973 110.017 21.3973H93.724V10.4431H110.017C112.546 10.4431 113.949 11.8461 113.949 14.374V14.3733ZM78.664 6.00993V5.94447H59.4175C53.7053 5.94447 50.9892 8.66241 50.9892 14.3733C50.9892 20.0862 53.7053 22.8015 59.4175 22.8015H71.7778C74.3051 22.8015 75.7119 24.2103 75.7119 26.7362C75.7119 29.2641 74.3051 30.6677 71.7778 30.6677H55.5684L52.5307 35.1449V35.1663H71.7778C77.4913 35.1663 80.2073 32.4497 80.2073 26.7368C80.2073 21.0234 77.4907 18.308 71.7778 18.308H59.4175C56.8871 18.308 55.4854 16.9031 55.4854 14.374C55.4854 11.8455 56.8896 10.4431 59.4175 10.4431H75.6703L78.664 6.00993Z" fill="#F3F3F3"/>
</svg>
