<svg viewBox="0 0 46 71" fill="none" xmlns="http://www.w3.org/2000/svg">
<path d="M20 68C20 69.6569 21.3431 71 23 71C24.6569 71 26 69.6569 26 68H20ZM25.1213 1.37868C23.9497 0.207107 22.0503 0.207107 20.8787 1.37868L1.7868 20.4706C0.615224 21.6421 0.615224 23.5416 1.7868 24.7132C2.95837 25.8848 4.85786 25.8848 6.02944 24.7132L23 7.74264L39.9706 24.7132C41.1421 25.8848 43.0416 25.8848 44.2132 24.7132C45.3848 23.5416 45.3848 21.6421 44.2132 20.4706L25.1213 1.37868ZM26 68L26 3.5H20L20 68H26Z" fill="#005F96" fill-opacity="0.3"/>
</svg>
