<svg width="52" height="52" viewBox="0 0 52 52" fill="none" xmlns="http://www.w3.org/2000/svg">
<path fill-rule="evenodd" clip-rule="evenodd" d="M26 0C32.9447 0 39.4741 2.7045 44.3848 7.6152C49.2955 12.5259 52 19.0553 52 26V34.1591C52 37.2484 49.4867 39.7617 46.3974 39.7617C44.4574 39.7617 42.7451 38.7707 41.739 37.2687C44.0198 34.0921 45.3647 30.2002 45.3647 26C45.3647 24.1584 45.106 22.3759 44.6232 20.6866C45.181 20.4998 45.7773 20.397 46.3974 20.397C47.0822 20.397 47.7387 20.5212 48.3457 20.7473C45.9642 10.6141 36.8497 3.04688 26 3.04688C15.1503 3.04688 6.03583 10.6141 3.65427 20.7473C4.26126 20.5212 4.91785 20.397 5.603 20.397C6.22269 20.397 6.81897 20.4998 7.37677 20.6866C6.89395 22.3759 6.63528 24.1584 6.63528 26C6.63528 30.2002 7.98019 34.0921 10.261 37.2687C9.25488 38.7707 7.5426 39.7617 5.603 39.7617C4.68219 39.7617 3.81375 39.5372 3.04688 39.1424V46.3974C3.04688 47.8066 4.19342 48.9531 5.603 48.9531H20.4026C20.4021 48.9462 20.4016 48.9393 20.4011 48.9324C20.3991 48.9035 20.397 48.8743 20.397 48.8448C20.397 48.0038 21.0794 47.3214 21.9204 47.3214H30.0796C30.9206 47.3214 31.603 48.0038 31.603 48.8448C31.603 49.1455 31.5145 49.4248 31.3646 49.6609C31.5149 49.8969 31.603 50.1762 31.603 50.4766C31.603 51.318 30.9206 52 30.0796 52H5.603C2.51328 52 0 49.4867 0 46.3974V26C0 19.0553 2.7045 12.5259 7.6152 7.6152C12.5259 2.7045 19.0553 0 26 0ZM10 25.4902C10 16.4951 17.1775 9.17647 26.0002 9.17647C34.8225 9.17647 42 16.4951 42 25.4902C42 34.4857 34.8225 41.8039 26.0002 41.8039C17.1775 41.8039 10 34.4857 10 25.4902ZM18.5437 20.3344C18.266 20.6188 18.1065 21.0107 18.1065 21.4121C18.1065 21.8131 18.266 22.2049 18.5437 22.4893C18.8226 22.7725 19.207 22.9351 19.6003 22.9351C19.9928 22.9351 20.3783 22.7725 20.6568 22.4893C20.935 22.2049 21.0941 21.8131 21.0941 21.4121C21.0941 21.0107 20.935 20.6192 20.6568 20.3344C20.3783 20.0512 19.9936 19.889 19.6003 19.889C19.207 19.889 18.8215 20.0512 18.5437 20.3344ZM26.0002 35.1656C28.4311 35.1656 30.8628 34.222 32.7133 32.3352C33.2968 31.7403 33.2968 30.7761 32.7133 30.1811C32.1301 29.5862 31.1841 29.5862 30.601 30.1811C28.0639 32.7675 23.9361 32.7675 21.3998 30.1811C20.8163 29.5862 19.8706 29.5862 19.2871 30.1811C18.7036 30.7761 18.7036 31.7403 19.2871 32.3352C21.138 34.2224 23.5685 35.1656 26.0002 35.1656ZM32.4001 22.9351C32.7926 22.9351 33.1777 22.7725 33.4567 22.4893C33.7344 22.2049 33.8939 21.8131 33.8939 21.4121C33.8939 21.0107 33.7344 20.6192 33.4567 20.3344C33.1777 20.0512 32.7934 19.889 32.4001 19.889C32.0068 19.889 31.6225 20.0512 31.3436 20.3344C31.0658 20.618 30.9063 21.0107 30.9063 21.4121C30.9063 21.8131 31.0658 22.2061 31.3436 22.4893C31.6225 22.7725 32.0076 22.9351 32.4001 22.9351Z" fill="white"/>
</svg>
