<svg width="119" height="119" viewBox="0 0 119 119" fill="none" xmlns="http://www.w3.org/2000/svg">
<path fill-rule="evenodd" clip-rule="evenodd" d="M46.2284 0.950661C2.0941 11.0795 -14.5761 64.6065 14.5402 97.9415C22.2395 106.757 33.3895 114.141 45.5491 116.882C59.4349 120.014 75.0805 118.641 88.5636 111.01C106.113 101.079 116.711 83.9406 118.743 65.6111C120.351 22.983 88.3488 -5.67114 46.2284 0.950661Z" fill="#F04E56"/>
<path d="M78.2702 83.5488H64.5145V69.7914C64.5145 69.6454 64.4842 69.5097 64.469 69.3664C78.3912 66.9995 89.0273 54.8585 89.0273 40.2738C89.0273 23.9971 75.7871 10.7562 59.5098 10.7562C43.2334 10.7562 29.9918 23.9968 29.9918 40.2738C29.9918 54.8581 40.6287 66.9995 54.5492 69.3664C54.5367 69.5097 54.5056 69.6454 54.5056 69.7914V83.5488H40.7493C37.9857 83.5488 35.7472 85.7893 35.7472 88.5508C35.7472 91.3137 37.9861 93.5543 40.7493 93.5543H54.507V107.313C54.507 110.076 56.7473 112.315 59.5091 112.315C62.2719 112.315 64.5138 110.074 64.5138 107.313V93.5543H78.2695C81.0337 93.5543 83.273 91.3137 83.273 88.5508C83.273 85.7893 81.0337 83.5488 78.2695 83.5488H78.2702ZM39.9984 40.2738C39.9984 29.515 48.751 20.7611 59.5098 20.7611C70.2692 20.7611 79.0229 29.514 79.0229 40.2738C79.0229 51.0336 70.2692 59.7852 59.5098 59.7852C48.752 59.7852 39.9984 51.0326 39.9984 40.2738Z" fill="#FEFEFE"/>
<path d="M59.6912 60.0588C70.7281 60.0588 79.6752 51.1116 79.6752 40.0748C79.6752 29.038 70.7281 20.0908 59.6912 20.0908C48.6544 20.0908 39.7073 29.038 39.7073 40.0748C39.7073 51.1116 48.6544 60.0588 59.6912 60.0588Z" fill="white" fill-opacity="0.5"/>
<path d="M72.8963 53.2807C80.1897 45.9874 80.1897 34.1625 72.8963 26.8692C65.603 19.5759 53.7781 19.5759 46.4848 26.8692C39.1915 34.1625 39.1915 45.9874 46.4848 53.2807C53.7781 60.574 65.603 60.574 72.8963 53.2807Z" fill="#F04E56"/>
<path d="M46.6133 37.6425C45.7975 32.7874 48.8802 28.7997 53.6286 27.4979C60.1092 25.7211 63.8945 30.7039 64.7103 35.5593C65.5261 40.4145 62.2944 45.7253 56.5123 45.8121C51.59 45.8868 47.4297 42.4977 46.6133 37.6425Z" fill="white" fill-opacity="0.5"/>
<path d="M51.1053 33.8623C50.8178 32.1534 51.9032 30.7496 53.5742 30.2915C55.8557 29.6666 57.1877 31.4201 57.4751 33.129C57.7622 34.8379 56.6242 36.7073 54.589 36.7383C52.8568 36.7643 51.3924 35.5716 51.1053 33.8623Z" fill="#F9DBE1"/>
<path d="M63.0681 48.8268C62.7999 47.7451 63.1674 46.8561 63.8734 46.5652C64.8368 46.1683 65.5725 47.2783 65.8407 48.3599C66.1086 49.4416 65.7559 50.6255 64.8533 50.6458C64.0849 50.6627 63.3353 49.9084 63.0681 48.8268Z" fill="white" fill-opacity="0.5"/>
<path d="M69.4891 38.3533C70.4657 38.8904 70.8687 39.7636 70.6032 40.4791C70.2407 41.456 68.926 41.2435 67.9498 40.7064C66.9732 40.169 66.3432 39.1069 66.9411 38.43C67.4505 37.854 68.5129 37.8159 69.4891 38.3533Z" fill="white" fill-opacity="0.5"/>
<path d="M72.7418 45.3406C73.7184 45.8777 74.1214 46.7509 73.8559 47.4663C73.4934 48.4429 72.1788 48.2308 71.2026 47.6937C70.2263 47.1563 69.596 46.0942 70.1939 45.4173C70.7033 44.8414 71.7656 44.8032 72.7418 45.3406Z" fill="white" fill-opacity="0.5"/>
<path d="M55.3925 58.2545C55.3925 58.2545 59.9385 58.6213 62.0011 56.4125C64.064 54.2036 67.6781 52.311 70.4406 52.0897C73.2031 51.8681 73.5101 51.8681 75.1643 50.5311C75.1643 50.5311 75.3943 52.4758 73.8246 53.5183C72.2549 54.5604 66.6667 58.1937 66.6667 58.1937L60.5736 59.2179L55.3925 58.2541V58.2545Z" fill="white" fill-opacity="0.5"/>
</svg>
