<svg width="681" height="380" viewBox="0 0 681 380" fill="none" xmlns="http://www.w3.org/2000/svg">
<path fill-rule="evenodd" clip-rule="evenodd" d="M91.4486 379.488C88.1814 379.497 84.9171 379.288 81.6777 378.862C70.7703 377.394 62.4075 372.852 58.13 366.07C55.7896 362.357 54.6694 357.985 53.6804 354.125L53.6736 354.099C34.1483 277.74 13.9603 198.767 1.08806 119.602C-1.77464 101.976 0.995288 90.9091 9.59001 85.7834C13.0425 83.7159 16.9257 83.0533 20.8553 82.8014V82.7849C20.63 77.2483 20.3748 70.9762 22.5119 65.2542C24.5695 59.764 29.6852 54.1778 36.4775 54.0717C44.9198 53.9392 50.4895 62.08 53.0606 66.9439C56.2021 72.9029 58.4716 79.2821 59.7999 85.8861L60.1081 85.8563C62.4738 85.6376 64.7069 85.4289 66.8606 84.8623C70.8929 83.7855 74.7032 80.4291 74.5971 76.8839C72.168 76.239 69.5996 76.3547 67.2383 77.2152C66.6332 77.4541 65.9952 77.5994 65.3464 77.6459C64.6614 77.7078 63.9716 77.6047 63.3346 77.3453C62.6977 77.0859 62.1321 76.6777 61.6852 76.1549C59.6972 73.8158 60.3963 69.8 60.6547 68.6238C62.3677 60.864 65.6943 50.3509 74.8158 48.6644C80.0939 47.6704 85.932 50.4304 89.6926 55.6555C92.9421 60.1731 94.3221 65.6782 95.5417 70.5435L95.5417 70.5436L95.5538 70.5919C95.587 70.7211 95.6193 70.8503 95.6516 70.9796C95.6839 71.1088 95.7162 71.238 95.7493 71.3672C97.4391 71.122 99.1532 70.8349 100.892 70.5058V70.2705C100.636 61.8945 101.312 51.6961 108.844 47.1801C115.45 43.2206 123.932 46.1861 128.561 51.0003C131.97 54.5422 133.962 58.9688 135.234 63.2595C136.679 63.0817 138.136 63.013 139.591 63.0541C139.866 63.0541 140.144 63.0708 140.421 63.0876H140.421C140.514 63.0932 140.608 63.0988 140.701 63.1038C140.221 62.1772 139.935 61.1626 139.859 60.1218C139.405 55.6555 141.069 51.209 144.544 47.6008C148.938 43.0384 155.525 40.454 161.734 40.8516C164.928 41.0571 167.33 41.892 169.079 43.4029C170.829 44.9137 171.757 46.9249 172.502 48.7042C173.865 51.9477 174.96 55.2977 175.776 58.7203L179.53 58.2399C179.53 49.7677 183.9 41.3652 190.901 36.5841C193.366 34.9009 197.13 33.0753 201.056 33.9334C206.48 35.1362 209.273 40.5236 211.294 45.6394C212.288 48.1707 213.282 50.8446 214.144 53.5913L215.956 53.2202L216.95 53.0082C217.159 47.8692 217.666 42.3459 219.982 37.3859C222.536 31.9156 228.547 26.2996 235.71 26.9026C246.011 27.7707 250.534 39.5396 252.316 46.4776C252.535 47.3391 252.744 48.1873 252.936 49.0223C256.144 48.9421 259.347 49.3181 262.449 50.1388C270.921 52.4813 277.69 61.6228 277.547 70.5223C277.276 87.0889 281.586 105.09 285.754 122.485C286.871 127.147 287.925 131.547 288.882 135.884C295.002 163.606 305.883 187.148 321.223 205.851C343.423 232.904 375.197 248.778 406.259 248.318L406.309 251.528C406.054 251.528 404.537 251.807 399.275 256.681C395.843 259.859 391.921 263.957 388.451 267.582L388.45 267.582L388.387 267.648L387.733 268.329C384.371 271.826 381.521 274.792 379.902 276.047C369.266 284.296 357.962 291.645 346.106 298.018C328.393 307.537 273.18 318.345 224.465 327.877C193.035 334.027 163.351 339.838 150.512 344.089C149.471 344.434 148.423 344.793 147.371 345.152L147.099 345.245C138.703 348.131 130.019 351.113 121.335 348.771C111.637 346.153 104.884 337.35 99.9539 330.922C77.9403 302.209 62.4472 277.16 51.1986 252.092C38.0149 222.703 30.772 193.234 29.0524 161.99C28.5985 153.706 28.6184 144.366 34.6419 138.392C39.2806 133.773 46.3678 132.637 51.5398 131.809L177.996 111.481C186.265 109.815 194.713 108.233 202.908 106.698L203.747 106.541L203.773 106.536L203.773 106.536C220.709 103.37 238.214 100.098 255.133 95.9387C255.783 95.7513 256.42 95.5234 257.041 95.2562L257.078 95.2415C259.059 94.4489 261.48 93.4804 263.492 94.577C264.698 95.2396 265.48 96.4953 265.841 98.321C266.069 99.5036 266.087 100.717 265.894 101.906C265.82 102.529 265.808 103.159 265.858 103.785C265.922 104.64 265.894 105.5 265.775 106.349C264.938 111.312 256.626 112.419 250.558 113.228L250.534 113.231L250.268 113.267L250.267 113.267C249.151 113.417 248.191 113.546 247.552 113.678L187.843 126.09L190.046 142.289H202.445H203.107C204.562 142.246 206.367 142.199 208.133 143.693L208.7 144.174V144.919V145.35C208.738 145.927 208.721 146.506 208.65 147.08C208.538 147.872 208.448 148.706 208.362 149.561C207.067 162.152 206.195 175.68 208.541 189.235C211.616 207.001 219.091 223.087 231.403 238.411C233.762 241.35 236.704 244.335 240.418 244.282C241.509 244.266 242.703 243.67 243.971 243.038L243.993 243.027C246.028 242.009 248.562 240.747 251.23 242.052C253.097 242.966 254.364 244.579 255.478 245.995L255.504 246.028L255.64 246.197C260.563 252.493 266.378 258.261 272.001 263.831L271.311 264.527L272.442 266.631C271.657 267.052 270.865 267.498 270.084 267.937L270.083 267.938C269.686 268.161 269.292 268.382 268.903 268.599C266.311 270.121 263.642 271.51 260.908 272.76C246.051 279.281 228.411 285.785 209.041 285.785C207.809 285.785 206.57 285.757 205.324 285.702C202.368 285.573 199.966 284.996 197.829 282.601C192.593 276.669 187.806 270.356 183.506 263.715C181.471 260.607 179.884 257.857 181.137 255.693C182.31 253.662 185.331 253.589 187.502 253.705C188.521 253.794 189.535 253.934 190.54 254.126C192.929 254.53 197.372 255.279 198.578 254.219L198.582 254.215C198.67 254.134 198.869 253.951 198.843 253.328C198.773 251.549 196.723 249.608 194.915 247.895L194.913 247.894C193.784 246.827 192.717 245.816 191.971 244.749C187.959 239.021 184.172 232.334 180.391 224.303C173.513 209.675 170.325 194.669 170.922 179.696C170.993 178.454 171.138 177.217 171.356 175.992L171.362 175.952C171.635 174.217 171.894 172.567 171.667 171.022C169.6 169.855 167.267 169.902 164.809 169.955C163.987 169.975 163.152 169.991 162.291 169.955C160.786 169.905 158.646 169.666 157.281 168.136C155.916 166.605 155.972 164.567 156.101 163.143C156.618 157.457 158.769 153.345 162.675 150.575C163.218 150.188 163.772 149.81 164.332 149.432C165.909 148.416 167.406 147.279 168.808 146.033C171.604 143.405 174.944 142.252 179.662 142.255V145.469C175.779 145.453 173.198 146.324 171.018 148.372C169.496 149.733 167.871 150.973 166.157 152.083L165.954 152.222C165.484 152.544 165.014 152.866 164.554 153.193C161.416 155.419 159.753 158.673 159.319 163.431C159.203 164.72 159.319 165.584 159.706 166.005C160.094 166.426 161.008 166.698 162.413 166.744C162.918 166.759 163.425 166.755 163.947 166.749H163.947L163.95 166.749C164.215 166.747 164.484 166.744 164.759 166.744C167.681 166.681 170.991 166.612 174.036 168.709L174.543 169.06L174.686 169.66C175.249 172.009 174.891 174.298 174.543 176.492C174.346 177.594 174.214 178.707 174.146 179.825C173.569 194.274 176.654 208.78 183.31 222.935C187.011 230.797 190.709 237.331 194.615 242.907C195.374 243.865 196.218 244.752 197.137 245.558C199.39 247.692 201.941 250.11 202.067 253.178C202.122 253.816 202.028 254.457 201.794 255.052C201.559 255.647 201.19 256.179 200.715 256.608C198.363 258.682 193.737 257.9 190.02 257.27C188.959 257.091 187.959 256.939 187.329 256.886C184.46 256.727 183.93 257.267 183.927 257.274C183.804 257.605 184.095 258.698 186.206 261.912C190.419 268.422 195.11 274.608 200.241 280.421C201.646 281.998 203.164 282.349 205.476 282.452C225.651 283.33 244.169 276.551 259.619 269.805C262.253 268.597 264.824 267.257 267.323 265.789L267.379 265.757L267.385 265.754C267.803 265.517 268.226 265.278 268.653 265.04C263.3 259.738 257.822 254.233 253.108 248.175L252.972 248.003C251.978 246.724 251.034 245.518 249.818 244.925C248.602 244.332 247.38 244.925 245.428 245.889C243.96 246.621 242.297 247.45 240.458 247.48C235.336 247.572 231.731 243.954 228.885 240.409C216.228 224.651 208.534 208.084 205.36 189.768C202.951 175.829 203.836 162.043 205.151 149.22C205.244 148.329 205.337 147.461 205.46 146.609C205.492 146.331 205.502 146.051 205.489 145.771C204.863 145.459 204.164 145.459 203.17 145.486H202.425H187.24L184.258 123.539L222.278 115.646L246.879 110.54C247.684 110.375 248.798 110.226 250.09 110.053L250.099 110.052L250.099 110.052C253.715 109.571 262.161 108.448 262.604 105.822C262.682 105.195 262.695 104.561 262.644 103.93C262.581 103.086 262.607 102.238 262.72 101.399C262.852 100.583 262.84 99.7494 262.684 98.9373C262.525 98.1189 262.266 97.5755 261.952 97.4065C261.277 97.0388 259.602 97.701 258.336 98.2011L258.234 98.2415C257.473 98.5687 256.69 98.8443 255.892 99.0665C238.891 103.251 221.33 106.535 204.33 109.709L203.482 109.868L203.48 109.868C195.289 111.402 186.845 112.984 178.589 114.646H178.529L52.0435 134.989C45.9039 135.983 40.5297 137.083 36.9049 140.682C31.8256 145.721 31.8256 153.889 32.2663 161.821C35.404 218.869 56.4137 268.841 102.508 328.964C108.535 336.823 114.178 343.506 122.176 345.663C129.905 347.752 138.111 344.934 146.045 342.208L146.059 342.204L146.493 342.056C147.505 341.71 148.519 341.365 149.504 341.034C162.536 336.727 190.951 331.161 223.852 324.719C272.355 315.23 327.307 304.462 344.585 295.185C356.285 288.896 367.441 281.645 377.937 273.506C379.468 272.321 382.651 268.995 386.024 265.47L386.025 265.469L386.068 265.424C391.966 259.265 396.744 254.371 400.401 251.422C386.105 250.713 371.509 246.688 357.842 239.65C343.071 232.046 329.553 221.063 318.745 207.886C303.08 188.784 291.977 164.793 285.751 136.573C284.817 132.342 283.784 128.031 282.692 123.477L282.633 123.23C278.419 105.64 274.062 87.4467 274.35 70.466C274.469 63.0674 268.634 55.1751 261.607 53.2368C259.003 52.551 256.318 52.2167 253.625 52.2428C255.729 63.2397 255.083 71.9437 251.674 79.3092C250.627 81.5722 248.539 84.2792 245.812 85.1473C245.088 85.385 244.32 85.4642 243.562 85.3796C242.804 85.295 242.073 85.0485 241.419 84.6569C240.612 84.166 239.93 83.4935 239.429 82.6928C238.927 81.8921 238.619 80.9854 238.53 80.0448C238.218 77.1622 239.322 74.7435 240.296 72.6163C240.36 72.4746 240.423 72.3344 240.487 72.1955L240.487 72.1952C240.752 71.6132 241.008 71.0522 241.214 70.4826C243.202 65.1813 242.174 59.5023 239.719 53.81L239.507 53.8464L216.808 57.786L216.851 56.3248L216.609 56.3745L215.055 56.7058C217.636 66.2283 218.332 76.3736 212.842 84.5741C212.179 85.5681 210.145 88.5997 206.576 87.8542C205.66 87.6487 204.807 87.2235 204.091 86.6151C203.375 86.0067 202.818 85.2335 202.468 84.362C201.166 81.2508 202.044 78.2589 202.819 75.6182L202.82 75.6154L202.82 75.6152C202.929 75.2418 203.038 74.8684 203.15 74.495C204.545 69.4107 204.714 64.0682 203.644 58.9059C197.123 60.0357 190.503 60.8673 183.834 60.927L183.641 60.9502L176.462 61.8746C177.773 68.9131 177.905 76.1205 176.853 83.2024C176.19 87.6521 174.772 93.0561 169.606 95.3655C166.588 96.714 163.092 95.9685 161.101 93.5465C158.622 90.5341 159.883 86.8304 160.562 84.8345L160.564 84.8292C160.982 83.6132 161.426 82.384 161.86 81.1846C163.632 76.3107 165.306 71.7052 165.385 66.8445C165.401 65.6642 165.29 64.4856 165.054 63.3291L153.709 64.787C150.369 67.1063 146.4 66.775 142.56 66.4436L142.448 66.4343C141.426 66.3482 140.461 66.267 139.512 66.2382C138.366 66.2059 137.219 66.2513 136.079 66.3741C136.324 67.431 136.536 68.4581 136.722 69.4389C138.146 76.9501 138.286 82.9075 137.159 88.1955C136.235 92.5393 134.479 95.8592 131.934 98.0692C128.584 100.978 123.876 101.611 120.486 99.6165L119.416 98.9836L119.748 97.7909C122.155 89.3689 123.227 80.6216 122.925 71.8675C122.899 71.13 122.832 70.3945 122.726 69.6642C117.524 71.2811 112.193 72.8284 106.822 72.5335C103.288 73.3331 99.8501 73.9825 96.5081 74.4817C97.5683 79.0442 98.4331 83.9512 98.0653 88.8615C97.4789 96.6047 93.7415 102.966 88.0658 105.872C87.0021 106.444 85.8258 106.776 84.6199 106.843C80.6439 106.992 77.8608 103.861 77.3604 98.6888C76.9663 94.6283 77.6556 90.6308 78.3229 86.7608L78.3229 86.7607L78.3743 86.4627C78.7057 84.6635 79.0204 82.818 79.2292 80.9957C79.4348 79.2474 79.4802 77.4841 79.365 75.7275C78.8084 75.7275 78.255 75.711 77.7083 75.6944C78.6725 81.4331 73.4541 86.3931 67.6922 87.9338C65.2793 88.5792 62.8068 88.808 60.4103 89.0298L60.4029 89.0305H60.3599C60.7513 91.5547 61.0012 94.0989 61.1087 96.6511C61.2677 100.402 61.1385 105.213 58.6866 109.142C56.3276 112.953 50.9534 115.746 46.4175 113.615C42.4614 111.76 40.4966 107.164 40.5893 99.9511C40.6589 94.1363 44.5852 89.6401 51.6425 87.2877C53.2611 86.7697 54.9252 86.4069 56.6125 86.2042C55.3376 80.0049 53.1926 74.017 50.241 68.4184C48.0145 64.2038 43.2599 57.1531 36.5471 57.2558C31.2955 57.3387 27.1605 62.0303 25.5403 66.3542C23.708 71.2513 23.8505 76.8938 24.0493 81.9566C24.5519 82.2883 25.1402 82.4668 25.7424 82.4701C26.935 82.4957 28.0896 82.0505 28.9563 81.2309C30.8946 79.3225 31.0901 76.2278 31.0371 74.5513C30.9642 72.3745 31.4446 68.256 33.6877 66.6888C34.1656 66.3549 34.7211 66.1492 35.3012 66.0911C35.8812 66.0331 36.4665 66.1248 37.001 66.3575C37.9442 66.7453 38.7239 67.4478 39.2077 68.3455C41.2991 72.2288 42.4243 76.5589 42.4879 80.9692V81.8572L41.7391 82.3409C36.8851 85.4632 31.1047 85.6242 25.5154 85.7798L25.5038 85.7801L25.4908 85.7805C20.2374 85.9261 15.2723 86.0638 11.1937 88.507C3.86792 92.8905 1.58506 102.887 4.21251 119.066C17.0568 198.072 37.2181 276.93 56.7169 353.196L56.7384 353.28L56.8185 353.588C57.7866 357.305 58.7821 361.128 60.8005 364.333C65.8765 372.378 76.2969 374.88 82.0587 375.655C94.9055 377.384 107.945 375.02 120.56 372.733L120.781 372.693L178.37 362.206C197.213 358.777 216.695 355.228 235.482 350.196C240.364 348.888 245.265 347.465 250.008 346.088L250.206 346.031C262.836 342.36 275.897 338.566 289.392 336.704C325.875 331.661 368.349 323.782 406.75 303.475C407.487 303.083 408.073 302.459 408.419 301.7C408.764 300.941 408.849 300.088 408.66 299.276C408.471 298.463 408.019 297.736 407.374 297.207C406.729 296.678 405.927 296.377 405.093 296.351C400.836 296.232 396.522 296.043 392.271 295.788C391.43 295.733 390.637 295.377 390.038 294.784C389.439 294.191 389.075 293.402 389.013 292.562C388.95 291.722 389.193 290.887 389.698 290.212C390.202 289.537 390.934 289.067 391.757 288.889C418.181 283.187 439.137 280.126 459.759 278.949L470.177 278.095C484.696 277.172 499.267 278.756 513.25 282.776C517.514 283.999 522.133 285.632 525.84 288.518C529.153 285.536 532.533 282.664 535.873 279.877C539.122 277.171 542.366 274.454 545.604 271.726L545.612 271.719L545.613 271.719C568.975 252.087 593.134 231.786 620.674 217.275C639.152 207.541 653.571 194.039 663.535 177.151C670.117 166.14 674.334 153.879 675.916 141.149C675.993 140.511 676.075 139.872 676.157 139.232L676.157 139.23C676.241 138.575 676.325 137.921 676.403 137.266L676.412 137.201C677.102 131.77 677.815 126.157 677.785 120.699C677.699 104.56 674.707 89.1961 668.896 75.0417C659.542 52.2527 644.278 33.9898 623.53 20.7564C610.489 12.44 595.698 7.0393 579.572 4.7001C569.278 3.2058 558.473 3.12628 546.542 4.45823C529.886 6.31699 513.902 11.8105 499.032 20.7895C485.216 29.1358 473.483 40.3381 464.166 54.0949C447.818 78.2443 441.214 107.685 445.681 136.504C448.574 154.81 455.952 171.539 467.662 186.223C481.988 204.218 500.265 217.312 521.98 225.148C536.529 230.396 549.848 232.672 562.694 232.106C570.442 231.763 577.436 230.053 583.531 227.013C583.173 226.974 582.814 226.951 582.455 226.944C566.498 227.116 553.201 227.027 539.494 224.233C531.956 222.699 522.142 220.291 513.107 215.258C502.919 209.566 493.462 202.656 484.944 194.679C477.254 187.489 471.406 180.375 467.052 172.93C460.511 161.718 456.287 150.638 454.13 139.058C451.611 125.708 451.781 111.989 454.63 98.7053C458.035 82.208 465.202 66.7192 475.574 53.4455C484.851 41.5441 495.404 32.0349 506.957 25.1764C518.988 18.0362 532.506 13.5268 547.141 11.7674C559.208 10.3195 571.295 10.9921 584.095 13.825C598.173 16.9428 609.915 21.7769 619.984 28.6222C636.839 40.073 649.99 55.5694 659.081 74.6772C666.457 90.2034 670.29 106.333 670.476 122.614C670.655 138.067 667.348 152.666 660.655 166.019C653.84 179.603 644.688 190.845 632.684 200.378C622.569 208.412 612.473 214.376 601.814 218.621L601.218 218.856L600.621 218.617C596.314 216.875 595.171 212.948 594.26 209.797C594.018 208.959 593.789 208.167 593.514 207.435C590.02 198.025 586.739 188.371 583.565 179.029L583.535 178.94C582.337 175.433 581.139 171.925 579.94 168.417C578.807 165.124 577.677 161.828 576.55 158.53L576.404 158.102C574.024 151.158 571.566 143.986 569.099 136.954C568.141 134.224 567.045 131.474 565.985 128.816L565.951 128.731C565.639 127.955 565.331 127.182 565.026 126.411C560.693 127.71 557.114 127.481 554.368 125.729C551.561 123.94 549.878 120.702 549.358 116.1C548.897 115.716 548.298 115.219 547.678 114.738C545.69 113.192 543.695 111.646 541.694 110.1L540.686 109.321C536.714 106.252 532.637 103.102 528.666 99.9346C525.787 97.6385 522.749 95.1104 520.012 92.2046C518.518 90.6142 518.299 89.0802 518.378 88.0729C518.504 86.4759 519.455 84.9485 521.122 83.6596C525.26 80.4623 528.935 82.7021 531.671 85.0114C540.76 92.6751 548.347 99.0599 556.279 105.627C556.759 106.022 557.929 106.195 558.39 106.263L558.41 106.266C560.222 106.531 562.021 106.72 564.102 106.929L566.193 107.151L569.983 104.315L570.97 103.577C574.079 101.252 577.281 98.8579 580.486 96.4258C584.1 93.6868 587.712 90.9445 591.321 88.1988C599.376 82.0725 607.702 75.7408 615.952 69.588C617.579 68.372 619.752 67.4144 622.406 66.7452C623.95 66.3542 626.429 66.8976 627.516 68.3024C628.602 69.7073 628.128 72.4242 627.29 73.6402C626.021 75.4014 624.498 76.9646 622.771 78.2788C613.825 85.3792 604.693 92.5558 595.867 99.484L587.368 106.167L571.547 118.648V118.834V119.261C572.631 122.664 573.707 126.133 574.748 129.486C577.243 137.534 579.824 145.854 582.723 153.889C586.403 164.085 590.378 174.376 594.229 184.341L594.399 184.782C594.665 185.47 594.932 186.161 595.2 186.854C597.226 192.091 599.302 197.459 601.301 202.766C602.288 205.385 603.134 208.092 603.949 210.703L604.087 211.146C604.361 212.029 604.64 212.923 604.925 213.826C613.726 209.85 622.194 204.619 630.69 197.873C642.082 188.928 651.34 177.557 657.789 164.587C664.25 151.712 667.438 137.61 667.269 122.674C667.086 106.859 663.359 91.1974 656.182 76.0787C647.352 57.4845 634.57 42.4155 618.195 31.2927C608.464 24.686 597.089 20.001 583.405 16.9726C570.964 14.2193 559.218 13.5632 547.529 14.9846C519.392 18.3509 496.686 31.5843 478.112 55.4335C468.044 68.3191 461.084 83.3539 457.775 99.368C455.011 112.238 454.841 125.529 457.274 138.465C459.362 149.674 463.464 160.416 469.815 171.303C473.997 178.477 479.656 185.352 487.114 192.326C495.447 200.126 504.698 206.882 514.664 212.445C523.315 217.266 532.818 219.591 540.127 221.079C553.526 223.809 566.633 223.895 582.415 223.73C583.507 223.754 584.594 223.89 585.658 224.137C586.102 224.227 586.523 224.31 586.941 224.376L586.649 226.281L587.852 228.319C580.695 232.543 572.279 234.899 562.836 235.316C549.563 235.903 535.843 233.564 520.89 228.17C498.605 220.128 479.851 206.689 465.147 188.224C453.103 173.099 445.489 155.867 442.51 137.004C437.915 107.381 444.701 77.1168 461.506 52.2925C471.088 38.1513 483.155 26.6276 497.372 18.0428C512.643 8.81854 529.064 3.17598 546.184 1.2642C558.393 -0.0975734 569.463 -0.014741 580.033 1.51932C596.599 3.92479 611.84 9.47127 625.256 18.0494C646.577 31.634 662.259 50.4072 671.868 73.8224C677.832 88.3612 680.906 104.126 680.999 120.683C681.029 126.378 680.297 132.123 679.588 137.676C679.539 138.06 679.49 138.444 679.441 138.827L679.438 138.855C679.324 139.75 679.21 140.643 679.104 141.536C677.489 154.717 673.145 167.417 666.348 178.824C656.076 196.233 641.229 210.139 622.214 220.158C594.981 234.507 570.954 254.697 547.719 274.221L547.715 274.225C544.474 276.948 541.228 279.668 537.977 282.385C534.743 285.082 531.483 287.869 528.262 290.745C528.693 291.216 529.099 291.709 529.478 292.223C533.017 297.037 533.689 303.302 533.878 308.789C534.432 325.99 531.625 343.134 525.615 359.261C523.621 364.666 520.046 369.345 515.356 372.69C510.665 376.036 505.077 377.892 499.317 378.017H499.141C495.527 378.094 486.697 377.537 482.817 370.851C480.557 366.951 480.855 362.196 481.369 358.489C485.156 331.111 503.396 309.071 523.448 290.738C520.221 288.376 516.159 286.968 512.408 285.887C498.791 281.972 484.602 280.427 470.461 281.322L460.015 282.177C439.575 283.33 418.747 286.371 392.486 292.037L392.48 292.038C392.384 292.061 392.245 292.095 392.264 292.338C392.283 292.576 392.405 292.583 392.502 292.589L392.516 292.59C396.734 292.842 401.014 293.031 405.239 293.15C406.781 293.199 408.263 293.756 409.456 294.735C410.648 295.713 411.484 297.058 411.833 298.56C412.182 300.063 412.025 301.639 411.386 303.043C410.747 304.447 409.663 305.6 408.3 306.324C369.455 326.867 326.641 334.818 289.883 339.894C276.63 341.727 264.248 345.318 251.153 349.125L250.707 349.255L250.703 349.256C246.019 350.614 241.191 352.013 236.363 353.307C217.769 358.291 198.559 361.802 179.951 365.203L179.95 365.203L178.996 365.377L121.408 375.864C111.617 377.66 101.577 379.488 91.4486 379.488ZM525.863 292.895C506.166 310.867 488.227 332.413 484.556 358.943C484.086 362.339 483.844 366.232 485.603 369.254C488.625 374.462 496.04 374.886 499.082 374.82H499.251C504.354 374.659 509.295 372.989 513.449 370.021C517.603 367.053 520.784 362.92 522.59 358.144C528.455 342.414 531.194 325.691 530.654 308.912C530.472 303.653 529.889 298.223 526.874 294.124C526.561 293.696 526.223 293.285 525.863 292.895ZM57.1725 89.3717C55.6403 89.5464 54.1288 89.8704 52.6597 90.3392C48.6539 91.6645 43.8695 94.4312 43.7999 99.9942C43.727 105.832 45.0656 109.437 47.7759 110.713C50.6254 112.038 54.3097 110.106 55.9631 107.456C57.9511 104.272 58.0438 100.09 57.9047 96.8002C57.7997 94.3123 57.5553 91.8322 57.1725 89.3717ZM82.5922 75.7077C82.7061 77.5941 82.6507 79.4869 82.4265 81.3635C82.2128 83.2255 81.8851 85.0875 81.5672 86.8938L81.5452 87.0193L81.5321 87.0936V87.0937C80.8477 90.989 80.2022 94.6635 80.5512 98.3773C80.7069 99.9942 81.3927 103.748 84.4973 103.632C85.2331 103.58 85.9488 103.369 86.5946 103.013C92.0947 100.196 94.4671 93.7354 94.8547 88.6196C95.2026 84.0141 94.3677 79.4152 93.3074 74.9158C89.6385 75.3642 86.0667 75.6281 82.5922 75.7077ZM123.207 97.3171C125.486 98.0029 128.134 97.0884 129.813 95.6306C131.801 93.8878 133.229 91.1576 134.005 87.5163C135.039 82.659 134.893 77.1026 133.551 70.0253C133.359 69.0081 133.14 67.9446 132.888 66.8512C130.515 67.348 128.169 67.964 125.857 68.6967C126.018 69.7102 126.117 70.7326 126.152 71.7582C126.444 80.3768 125.451 88.9907 123.207 97.3171ZM168.241 62.9216C168.483 64.2326 168.594 65.5645 168.573 66.8976C168.483 72.2983 166.638 77.3742 164.852 82.2846C164.424 83.4575 163.984 84.6702 163.579 85.8563C162.735 88.3314 162.436 90.1371 163.556 91.4889C164.676 92.8408 166.568 93.1787 168.268 92.4167C171.227 91.0913 172.837 88.1922 173.649 82.7153C174.664 75.9227 174.531 69.0078 173.258 62.2589L168.241 62.9216ZM206.795 58.3161C207.946 63.9516 207.754 69.779 206.235 75.3266L205.904 76.4995C205.218 78.8354 204.578 81.0388 205.433 83.0996C205.584 83.4902 205.827 83.8386 206.141 84.115C206.456 84.3913 206.832 84.5875 207.239 84.6867C207.988 84.8424 208.866 84.7199 210.174 82.7617C215.045 75.489 214.329 66.1719 211.907 57.3221C210.206 57.6645 208.502 57.9958 206.795 58.3161ZM242.97 53.2467C245.498 59.3763 246.475 65.5722 244.219 71.5991C243.969 72.2606 243.684 72.902 243.408 73.5254C243.346 73.6639 243.285 73.8016 243.225 73.9383L243.217 73.9557C242.342 75.8776 241.516 77.6917 241.73 79.6869C241.766 80.1293 241.905 80.5572 242.135 80.9367C242.365 81.3163 242.68 81.6371 243.056 81.8737C243.324 82.04 243.626 82.1442 243.939 82.1786C244.253 82.213 244.57 82.1767 244.868 82.0725C246.266 81.6352 247.85 79.9785 248.775 77.9508C251.942 71.1121 252.475 62.8851 250.391 52.3422C247.873 52.5112 245.385 52.8591 242.97 53.2467ZM35.6359 69.2964C35.6022 69.2971 35.5697 69.3087 35.5432 69.3295C34.8805 69.8 34.1681 72.0928 34.2477 74.4519C34.3471 77.5068 33.6678 80.1906 32.316 82.1885C34.8176 81.877 37.1667 81.2939 39.274 80.121C39.0879 76.5429 38.1101 73.0507 36.4113 69.8961C36.284 69.6526 36.0786 69.4589 35.8281 69.3461C35.7674 69.3187 35.7024 69.3019 35.6359 69.2964ZM76.9794 51.6563C76.4516 51.6562 75.9248 51.7039 75.4056 51.7988C69.8923 52.8193 66.2045 58.379 63.809 69.2931C63.3683 71.2811 63.5108 73.2989 64.1403 74.0576C64.306 74.2531 64.5611 74.4453 65.184 74.4155C65.5053 74.3852 65.8202 74.307 66.1184 74.1835L66.2509 74.1338L66.728 72.7787C67.7063 69.9916 68.9687 67.3125 70.4953 64.7837C70.8862 64.121 71.6119 62.9348 72.9736 62.4643C74.3354 61.9939 75.9556 62.4445 77.4367 63.7532C79.8256 65.8506 81.4126 68.8425 82.1681 72.5004C85.5344 72.4341 88.9946 72.19 92.5487 71.7681C92.5304 71.6985 92.513 71.6281 92.4956 71.5576C92.4782 71.4872 92.4608 71.4169 92.4426 71.3473L92.4411 71.3413C91.2918 66.7439 89.9895 61.5349 87.0883 57.5043C84.8883 54.4461 81.0415 51.6563 76.9794 51.6563ZM70.4721 71.9702C73.2221 72.2839 76.0263 72.4628 78.8846 72.507C78.3213 70.1479 77.2279 67.8684 75.3195 66.1686C74.6568 65.5855 74.1764 65.453 74.0173 65.506C73.7743 65.5912 73.4141 66.1753 73.2688 66.411L73.2486 66.4436C72.1822 68.2116 71.2539 70.0593 70.4721 71.9702ZM104.072 68.9386C104.893 69.1142 105.724 69.2349 106.561 69.2997L107.382 69.1075C110.033 68.4813 112.796 67.7193 114.562 65.9201C115.485 64.962 116.004 63.6853 116.01 62.355C116.02 61.9676 115.953 61.5821 115.812 61.2209C115.672 60.8597 115.461 60.5301 115.192 60.2511L112.399 57.5507L116.285 57.4911H116.411C120.834 57.4911 123.7 61.0628 125.115 65.5623C127.395 64.8698 129.701 64.2138 132.037 63.74C130.88 59.9926 129.124 56.1923 126.248 53.207C122.481 49.2906 115.679 46.8056 110.5 49.9135C104.738 53.366 103.933 61.3246 104.072 68.9386ZM119.191 61.7189C119.211 61.9143 119.221 62.1131 119.224 62.3153C119.227 64.4185 118.441 66.4463 117.021 67.9976C118.631 67.5693 120.241 67.0721 121.897 66.5609L121.897 66.5607L122.04 66.5165C121.434 64.5782 120.503 62.7824 119.191 61.7189ZM160.505 43.9993C155.372 44.0748 150.474 46.1588 146.86 49.8042C144.051 52.7199 142.702 56.2585 143.06 59.7706C143.169 60.8342 143.434 61.5664 143.849 61.9475C144.601 62.6366 146.118 62.5074 147.493 62.3318L152.43 61.699C154.882 59.5188 155.449 55.4666 155.78 51.7922L155.946 49.9533L157.748 50.3741C162.546 51.5006 165.786 55.3209 167.403 59.7739L172.588 59.1113C171.821 55.9749 170.807 52.9039 169.557 49.9268C168.95 48.4822 168.201 46.852 166.999 45.8117C165.796 44.7713 164.017 44.1948 161.545 44.0357C161.19 44.0092 160.849 43.9993 160.505 43.9993ZM158.752 54.1214C158.45 56.5534 157.943 59.0218 156.843 61.1291L164.09 60.198C162.99 57.5739 161.197 55.301 158.752 54.1214ZM182.75 57.6932H183.592C186.673 57.2724 189.605 56.5501 190.686 54.4031C191.03 53.5808 191.263 52.7161 191.378 51.8319L191.382 51.808C191.713 49.9964 192.123 47.7505 194.191 46.3782C194.988 45.8681 195.897 45.5614 196.84 45.4851C197.783 45.4088 198.73 45.5653 199.598 45.9409C202.729 47.2264 204.204 50.1852 205.135 52.6172C205.46 53.4654 205.752 54.3235 206.013 55.1916C207.67 54.8835 209.326 54.5588 210.983 54.2308C210.165 51.6696 209.243 49.1747 208.309 46.809C206.599 42.4785 204.333 37.9359 200.357 37.0579C197.554 36.4383 194.652 37.8862 192.71 39.2148C186.716 43.3101 182.913 50.4403 182.75 57.6932ZM197.256 48.6744C196.799 48.6684 196.351 48.7975 195.967 49.0454C195.076 49.6385 194.844 50.7021 194.539 52.3952C194.373 53.5842 194.039 54.7435 193.545 55.8377C193.304 56.311 193.011 56.7556 192.67 57.1631C196.066 56.8317 199.449 56.3248 202.819 55.7483C202.61 55.0856 202.378 54.423 202.126 53.7603C201.381 51.8154 200.351 49.7214 198.366 48.903C198.014 48.7559 197.637 48.6782 197.256 48.6744ZM233.702 42.9721C233.224 43.5605 232.766 44.9842 232.505 45.795L232.49 45.8415C232.462 45.9243 232.436 46.0066 232.41 46.0879C232.372 46.2049 232.335 46.3198 232.297 46.4312C231.366 49.2442 229.468 51.2488 227.072 52.7265L238.288 50.7783C236.892 48.1035 235.362 45.5004 233.706 42.9788L233.702 42.9721ZM234.65 30.0502C229.349 30.0502 224.895 34.4437 222.901 38.7245C220.973 42.8529 220.436 47.6174 220.21 52.1633C224.375 50.9307 228.06 49.0024 229.249 45.4141L229.431 44.8475L229.434 44.8389C230.14 42.6379 231.318 38.9671 234.68 39.5462L235.372 39.6621L235.757 40.2486C237.907 43.4464 239.857 46.775 241.595 50.215C244.212 49.7777 246.926 49.3768 249.679 49.1647C249.529 48.5418 249.373 47.9101 249.212 47.2695C247.95 42.3492 244.08 30.8222 235.445 30.0999C235.183 30.0801 234.915 30.0668 234.653 30.0668L234.65 30.0502ZM567.458 123.83L566.889 122.366L565.381 122.929C562.621 123.936 558.761 124.778 556.061 123.055C554.006 121.743 552.79 119.092 552.459 115.179L552.403 114.5L551.876 114.072L551.475 113.741L551.451 113.721C550.966 113.319 550.31 112.774 549.616 112.234C547.622 110.687 545.624 109.141 543.623 107.595C539.345 104.295 534.925 100.882 530.638 97.4595C527.851 95.2363 524.916 92.801 522.321 90.041C521.765 89.4513 521.506 88.8847 521.549 88.3612C521.599 87.7018 522.136 86.9497 523.053 86.2374C524.75 84.9286 526.291 84.7397 529.567 87.503C538.662 95.1734 546.247 101.561 554.199 108.138C555.239 108.996 556.66 109.301 557.916 109.48C559.791 109.755 561.707 109.957 563.731 110.169C564.596 110.259 565.494 110.355 566.438 110.461L567.071 110.531L567.581 110.15C568.979 109.109 570.417 108.036 571.888 106.936L572.857 106.211C575.977 103.876 579.184 101.477 582.408 99.0334C586.024 96.2921 589.638 93.5476 593.249 90.7998C601.291 84.6801 609.617 78.355 617.857 72.2088C619.143 71.2314 620.932 70.4561 623.178 69.8895C623.78 69.8246 624.387 69.9535 624.911 70.2573C624.975 70.8035 624.877 71.3564 624.63 71.8477C623.541 73.3488 622.236 74.6798 620.756 75.7971C611.814 82.8876 602.689 90.0642 593.862 97.0023C591.028 99.2288 588.196 101.456 585.367 103.685L568.356 117.071V117.853C568.356 118.033 568.349 118.194 568.343 118.339C568.338 118.459 568.333 118.568 568.333 118.668C568.275 119.177 568.314 119.692 568.449 120.186C569.536 123.595 570.616 127.074 571.66 130.437L571.661 130.442C574.166 138.521 576.756 146.879 579.681 154.979C583.432 165.363 587.471 175.823 591.384 185.938L591.833 187.1C593.965 192.621 596.158 198.296 598.272 203.9C599.286 206.577 600.158 209.383 600.999 212.097C601.041 212.235 601.083 212.372 601.125 212.509C601.392 213.386 601.653 214.245 601.94 215.105L601.244 215.39C598.836 214.135 598.133 211.703 597.328 208.917L597.328 208.916C597.291 208.788 597.254 208.659 597.217 208.53C597.006 207.793 596.791 207.044 596.51 206.325C593.034 196.928 589.747 187.267 586.57 177.92C585.379 174.403 584.181 170.891 582.975 167.384C581.842 164.09 580.712 160.797 579.585 157.503L579.193 156.361C576.887 149.633 574.513 142.708 572.127 135.904C571.136 133.081 570.016 130.268 568.93 127.551C568.436 126.312 567.942 125.073 567.458 123.83Z" fill="#005F96"/>
</svg>
