<svg width="3840" height="95" viewBox="0 0 3840 95" fill="none" xmlns="http://www.w3.org/2000/svg">
<g clip-path="url(#clip0_119_1291)">
<g clip-path="url(#clip1_119_1291)">
<path fill-rule="evenodd" clip-rule="evenodd" d="M111 57.1711L165.903 57.1711V6.35316L111 6.35316V57.1711Z" fill="#005F96"/>
<path fill-rule="evenodd" clip-rule="evenodd" d="M219.699 57.171L164.796 57.171V6.35304L219.699 6.35304V57.171Z" fill="#005F96" fill-opacity="0.901961"/>
<path fill-rule="evenodd" clip-rule="evenodd" d="M329.503 57.171L274.601 57.171V6.35304L329.503 6.35304V57.171Z" fill="#005F96" fill-opacity="0.8"/>
<path fill-rule="evenodd" clip-rule="evenodd" d="M219.698 57.171L274.601 57.171V6.35304L219.698 6.35304V57.171Z" fill="#005F96" fill-opacity="0.901961"/>
<path fill-rule="evenodd" clip-rule="evenodd" d="M549.116 57.171L494.213 57.171V6.35304L549.116 6.35304V57.171Z" fill="#005F96" fill-opacity="0.501961"/>
<path fill-rule="evenodd" clip-rule="evenodd" d="M439.31 57.171L494.213 57.171V6.35304L439.31 6.35304V57.171Z" fill="#005F96" fill-opacity="0.4"/>
<path fill-rule="evenodd" clip-rule="evenodd" d="M329.504 57.171L384.407 57.171V6.35304L329.504 6.35304V57.171Z" fill="#005F96" fill-opacity="0.701961"/>
<path fill-rule="evenodd" clip-rule="evenodd" d="M439.31 57.171L384.407 57.171V6.35304L439.31 6.35304V57.171Z" fill="#005F96" fill-opacity="0.6"/>
<path fill-rule="evenodd" clip-rule="evenodd" d="M549.117 57.171L604.019 57.171V6.35304L549.117 6.35304V57.171Z" fill="#005F96" fill-opacity="0.6"/>
<path fill-rule="evenodd" clip-rule="evenodd" d="M658.922 57.171L604.019 57.171V6.35304L658.922 6.35304V57.171Z" fill="#005F96" fill-opacity="0.701961"/>
<path fill-rule="evenodd" clip-rule="evenodd" d="M775.617 57.171L713.825 57.171V6.35304L775.617 6.35304V57.171Z" fill="#005F96" fill-opacity="0.901961"/>
<path fill-rule="evenodd" clip-rule="evenodd" d="M658.922 57.171L713.825 57.171V6.35304L658.922 6.35304V57.171Z" fill="#005F96" fill-opacity="0.8"/>
<path fill-rule="evenodd" clip-rule="evenodd" d="M609.126 69.0854L701.476 69.0854V55.1839L609.126 55.1839V69.0854Z" fill="#005F96" fill-opacity="0.501961"/>
<path fill-rule="evenodd" clip-rule="evenodd" d="M149.44 32.3718L196.122 32.3718V3.98914L149.44 3.98914V32.3718Z" fill="#FEFEFE" fill-opacity="0.501961"/>
<path fill-rule="evenodd" clip-rule="evenodd" d="M147.539 61.6226L239.889 61.6226V39.516L147.539 39.516V61.6226Z" fill="#FEFEFE" fill-opacity="0.501961"/>
<path fill-rule="evenodd" clip-rule="evenodd" d="M219.698 35.171L312.048 35.171V21.2695L219.698 21.2695V35.171Z" fill="#FEFEFE" fill-opacity="0.501961"/>
<path fill-rule="evenodd" clip-rule="evenodd" d="M275.124 45.4696L367.474 45.4696V31.5674L275.124 31.5674V45.4696Z" fill="#FEFEFE" fill-opacity="0.501961"/>
<path fill-rule="evenodd" clip-rule="evenodd" d="M111 54.9624L163.268 54.9624V26.5789L111 26.5789V54.9624Z" fill="#FEFEFE" fill-opacity="0.501961"/>
<path fill-rule="evenodd" clip-rule="evenodd" d="M354.065 35.4609L400.747 35.4609V7.07825L354.065 7.07825V35.4609Z" fill="#FEFEFE" fill-opacity="0.501961"/>
<path fill-rule="evenodd" clip-rule="evenodd" d="M446.127 30.6987L492.808 30.6987V2.31596L446.127 2.31596V30.6987Z" fill="#FEFEFE" fill-opacity="0.501961"/>
<path fill-rule="evenodd" clip-rule="evenodd" d="M669.454 54.5459L716.135 54.5459V26.1624L669.454 26.1624V54.5459Z" fill="#FEFEFE" fill-opacity="0.501961"/>
<path fill-rule="evenodd" clip-rule="evenodd" d="M630.873 41.1592L677.554 41.1592V12.7757L630.873 12.7757V41.1592Z" fill="#FEFEFE" fill-opacity="0.501961"/>
<path fill-rule="evenodd" clip-rule="evenodd" d="M704.773 31.9552L751.455 31.9552V3.57251L704.773 3.57251V31.9552Z" fill="#FEFEFE" fill-opacity="0.501961"/>
<path fill-rule="evenodd" clip-rule="evenodd" d="M673.68 63.323L768.728 63.323V49.4215L673.68 49.4215V63.323Z" fill="#FEFEFE" fill-opacity="0.501961"/>
<path fill-rule="evenodd" clip-rule="evenodd" d="M291.847 76.0364L384.197 76.0364V62.1349L291.847 62.1349V76.0364Z" fill="#005F96" fill-opacity="0.501961"/>
<path fill-rule="evenodd" clip-rule="evenodd" d="M194.254 61.6226L286.604 61.6226V47.7211L194.254 47.7211V61.6226Z" fill="#005F96" fill-opacity="0.501961"/>
<path fill-rule="evenodd" clip-rule="evenodd" d="M253.754 69.0854L346.104 69.0854V55.1839L253.754 55.1839V69.0854Z" fill="#005F96" fill-opacity="0.501961"/>
<path fill-rule="evenodd" clip-rule="evenodd" d="M171.432 80.7993L263.781 80.7993V66.8962L171.432 66.8962V80.7993Z" fill="#005F96" fill-opacity="0.501961"/>
<path fill-rule="evenodd" clip-rule="evenodd" d="M111 74.1057L187.006 74.1057V60.2035L111 60.2035V74.1057Z" fill="#005F96" fill-opacity="0.501961"/>
<path fill-rule="evenodd" clip-rule="evenodd" d="M533.396 78.9817L625.746 78.9817V65.0794L533.396 65.0794V78.9817Z" fill="#005F96" fill-opacity="0.501961"/>
<path fill-rule="evenodd" clip-rule="evenodd" d="M405.356 79.6724L497.706 79.6724V65.7709L405.356 65.7709V79.6724Z" fill="#005F96" fill-opacity="0.501961"/>
<path fill-rule="evenodd" clip-rule="evenodd" d="M465.401 73.8151H519.387V59.9136L465.401 59.9136V73.8151Z" fill="#005F96" fill-opacity="0.501961"/>
<path fill-rule="evenodd" clip-rule="evenodd" d="M512.415 62.0757L559.096 62.0757V33.6922L512.415 33.6922V62.0757Z" fill="#FEFEFE" fill-opacity="0.501961"/>
<path fill-rule="evenodd" clip-rule="evenodd" d="M473.836 48.6886L520.517 48.6886V20.3051L473.836 20.3051V48.6886Z" fill="#FEFEFE" fill-opacity="0.501961"/>
<path fill-rule="evenodd" clip-rule="evenodd" d="M543.553 61.3654L635.903 61.3654V47.4639L543.553 47.4639V61.3654Z" fill="#FEFEFE" fill-opacity="0.501961"/>
<path fill-rule="evenodd" clip-rule="evenodd" d="M362.702 60.9294L455.052 60.9294V41.0875L362.702 41.0875V60.9294Z" fill="#005F96" fill-opacity="0.501961"/>
<path fill-rule="evenodd" clip-rule="evenodd" d="M1600.44 54.8551L1655.34 54.8551V4.03712L1600.44 4.03712V54.8551Z" fill="#005F96"/>
<path fill-rule="evenodd" clip-rule="evenodd" d="M1710.24 54.8551L1655.34 54.8551V4.03712L1710.24 4.03712V54.8551Z" fill="#005F96" fill-opacity="0.901961"/>
<path fill-rule="evenodd" clip-rule="evenodd" d="M1820.05 54.8551L1765.14 54.8551V4.03712L1820.05 4.03712V54.8551Z" fill="#005F96" fill-opacity="0.8"/>
<path fill-rule="evenodd" clip-rule="evenodd" d="M1710.24 54.8551L1765.14 54.8551V4.03712L1710.24 4.03712V54.8551Z" fill="#005F96" fill-opacity="0.901961"/>
<path fill-rule="evenodd" clip-rule="evenodd" d="M2039.66 54.8551L1984.76 54.8551V4.03712L2039.66 4.03712V54.8551Z" fill="#005F96" fill-opacity="0.501961"/>
<path fill-rule="evenodd" clip-rule="evenodd" d="M1929.85 54.8551L1984.76 54.8551V4.03712L1929.85 4.03712V54.8551Z" fill="#005F96" fill-opacity="0.4"/>
<path fill-rule="evenodd" clip-rule="evenodd" d="M1820.05 54.8551L1874.95 54.8551V4.03712L1820.05 4.03712V54.8551Z" fill="#005F96" fill-opacity="0.701961"/>
<path fill-rule="evenodd" clip-rule="evenodd" d="M1929.85 54.8551L1874.95 54.8551V4.03712L1929.85 4.03712V54.8551Z" fill="#005F96" fill-opacity="0.6"/>
<path fill-rule="evenodd" clip-rule="evenodd" d="M2039.66 54.8551L2094.56 54.8551V4.03712L2039.66 4.03712V54.8551Z" fill="#005F96" fill-opacity="0.6"/>
<path fill-rule="evenodd" clip-rule="evenodd" d="M2149.46 54.8551L2094.56 54.8551V4.03712L2149.46 4.03712V54.8551Z" fill="#005F96" fill-opacity="0.701961"/>
<path fill-rule="evenodd" clip-rule="evenodd" d="M2266.16 54.8551L2204.37 54.8551V4.03712L2266.16 4.03712V54.8551Z" fill="#005F96" fill-opacity="0.901961"/>
<path fill-rule="evenodd" clip-rule="evenodd" d="M2149.46 54.8551L2204.37 54.8551V4.03712L2149.46 4.03712V54.8551Z" fill="#005F96" fill-opacity="0.8"/>
<path fill-rule="evenodd" clip-rule="evenodd" d="M1639.98 30.0558L1686.66 30.0558V1.6731L1639.98 1.6731V30.0558Z" fill="#FEFEFE" fill-opacity="0.501961"/>
<path fill-rule="evenodd" clip-rule="evenodd" d="M1638.08 59.3069L1730.43 59.3069V37.2004L1638.08 37.2004V59.3069Z" fill="#FEFEFE" fill-opacity="0.501961"/>
<path fill-rule="evenodd" clip-rule="evenodd" d="M1710.24 32.8551L1802.59 32.8551V18.9536L1710.24 18.9536V32.8551Z" fill="#FEFEFE" fill-opacity="0.501961"/>
<path fill-rule="evenodd" clip-rule="evenodd" d="M1765.67 43.1537L1858.02 43.1537V29.2515L1765.67 29.2515V43.1537Z" fill="#FEFEFE" fill-opacity="0.501961"/>
<path fill-rule="evenodd" clip-rule="evenodd" d="M1600.44 52.6466L1652.7 52.6466V24.2631L1600.44 24.2631V52.6466Z" fill="#FEFEFE" fill-opacity="0.501961"/>
<path fill-rule="evenodd" clip-rule="evenodd" d="M1844.61 33.1451L1891.29 33.1451V4.76245L1844.61 4.76245V33.1451Z" fill="#FEFEFE" fill-opacity="0.501961"/>
<path fill-rule="evenodd" clip-rule="evenodd" d="M1936.67 28.3827L1983.35 28.3827V-7.53371e-05L1936.67 -7.53371e-05V28.3827Z" fill="#FEFEFE" fill-opacity="0.501961"/>
<path fill-rule="evenodd" clip-rule="evenodd" d="M2160 52.2301L2206.68 52.2301V23.8467L2160 23.8467V52.2301Z" fill="#FEFEFE" fill-opacity="0.501961"/>
<path fill-rule="evenodd" clip-rule="evenodd" d="M2121.42 38.8431L2168.1 38.8431V10.4596L2121.42 10.4596V38.8431Z" fill="#FEFEFE" fill-opacity="0.501961"/>
<path fill-rule="evenodd" clip-rule="evenodd" d="M2195.32 29.6395L2242 29.6395V1.25676L2195.32 1.25676V29.6395Z" fill="#FEFEFE" fill-opacity="0.501961"/>
<path fill-rule="evenodd" clip-rule="evenodd" d="M2164.22 61.0072L2259.27 61.0072V47.1057L2164.22 47.1057V61.0072Z" fill="#FEFEFE" fill-opacity="0.501961"/>
<path fill-rule="evenodd" clip-rule="evenodd" d="M1800.96 77.3635L1893.31 77.3635V63.4621L1800.96 63.4621V77.3635Z" fill="#005F96" fill-opacity="0.501961"/>
<path fill-rule="evenodd" clip-rule="evenodd" d="M1684.8 59.3069L1777.15 59.3069V45.4053L1684.8 45.4053V59.3069Z" fill="#005F96" fill-opacity="0.501961"/>
<path fill-rule="evenodd" clip-rule="evenodd" d="M1744.3 66.7695L1836.65 66.7695V52.8673L1744.3 52.8673V66.7695Z" fill="#005F96" fill-opacity="0.501961"/>
<path fill-rule="evenodd" clip-rule="evenodd" d="M1661.97 78.4835L1754.32 78.4835V64.5805L1661.97 64.5805V78.4835Z" fill="#005F96" fill-opacity="0.501961"/>
<path fill-rule="evenodd" clip-rule="evenodd" d="M1596.54 71.79L1672.55 71.79V57.8877L1596.54 57.8877V71.79Z" fill="#005F96" fill-opacity="0.501961"/>
<path fill-rule="evenodd" clip-rule="evenodd" d="M1895.9 77.3566L1988.25 77.3566V63.4551L1895.9 63.4551V77.3566Z" fill="#005F96" fill-opacity="0.501961"/>
<path fill-rule="evenodd" clip-rule="evenodd" d="M1955.94 71.4991H2009.93V57.5977L1955.94 57.5977V71.4991Z" fill="#005F96" fill-opacity="0.501961"/>
<path fill-rule="evenodd" clip-rule="evenodd" d="M2002.96 59.7599L2049.64 59.7599V31.3764L2002.96 31.3764V59.7599Z" fill="#FEFEFE" fill-opacity="0.501961"/>
<path fill-rule="evenodd" clip-rule="evenodd" d="M1964.38 46.3726L2011.06 46.3726V17.9891L1964.38 17.9891V46.3726Z" fill="#FEFEFE" fill-opacity="0.501961"/>
<path fill-rule="evenodd" clip-rule="evenodd" d="M2034.1 59.0493L2126.45 59.0493V45.1478L2034.1 45.1478V59.0493Z" fill="#FEFEFE" fill-opacity="0.501961"/>
<path fill-rule="evenodd" clip-rule="evenodd" d="M1853.24 58.6136L1945.59 58.6136V38.7717L1853.24 38.7717V58.6136Z" fill="#005F96" fill-opacity="0.501961"/>
<path fill-rule="evenodd" clip-rule="evenodd" d="M772.873 62.0967L841.519 62.0967V9.14779L772.873 9.14779V62.0967Z" fill="#005F96"/>
<path fill-rule="evenodd" clip-rule="evenodd" d="M910.165 62.0967L841.519 62.0967V9.14779L910.165 9.14779V62.0967Z" fill="#005F96" fill-opacity="0.901961"/>
<path fill-rule="evenodd" clip-rule="evenodd" d="M1047.46 62.0967L978.811 62.0967V9.14779L1047.46 9.14779V62.0967Z" fill="#005F96" fill-opacity="0.8"/>
<path fill-rule="evenodd" clip-rule="evenodd" d="M910.165 62.0967L978.811 62.0967V9.14779L910.165 9.14779V62.0967Z" fill="#005F96" fill-opacity="0.901961"/>
<path fill-rule="evenodd" clip-rule="evenodd" d="M1322.04 62.0967L1253.39 62.0967V9.14779L1322.04 9.14779V62.0967Z" fill="#005F96" fill-opacity="0.501961"/>
<path fill-rule="evenodd" clip-rule="evenodd" d="M1184.75 62.0967L1253.39 62.0967V9.14779L1184.75 9.14779V62.0967Z" fill="#005F96" fill-opacity="0.4"/>
<path fill-rule="evenodd" clip-rule="evenodd" d="M1047.46 62.0967L1116.1 62.0967V9.14779L1047.46 9.14779V62.0967Z" fill="#005F96" fill-opacity="0.701961"/>
<path fill-rule="evenodd" clip-rule="evenodd" d="M1184.75 62.0967L1116.1 62.0967V9.14779L1184.75 9.14779V62.0967Z" fill="#005F96" fill-opacity="0.6"/>
<path fill-rule="evenodd" clip-rule="evenodd" d="M1322.04 62.0967L1390.68 62.0967V9.14779L1322.04 9.14779V62.0967Z" fill="#005F96" fill-opacity="0.6"/>
<path fill-rule="evenodd" clip-rule="evenodd" d="M1459.33 62.0967L1390.68 62.0967V9.14779L1459.33 9.14779V62.0967Z" fill="#005F96" fill-opacity="0.701961"/>
<path fill-rule="evenodd" clip-rule="evenodd" d="M1605.23 62.0967L1527.97 62.0967V9.14779L1605.23 9.14779V62.0967Z" fill="#005F96" fill-opacity="0.901961"/>
<path fill-rule="evenodd" clip-rule="evenodd" d="M1459.33 62.0967L1527.97 62.0967V9.14779L1459.33 9.14779V62.0967Z" fill="#005F96" fill-opacity="0.8"/>
<path fill-rule="evenodd" clip-rule="evenodd" d="M1397.07 74.5107L1512.53 74.5107V60.0257L1397.07 60.0257V74.5107Z" fill="#005F96" fill-opacity="0.501961"/>
<path fill-rule="evenodd" clip-rule="evenodd" d="M822.321 36.2577L880.686 36.2577V6.6844L822.321 6.6844V36.2577Z" fill="#FEFEFE" fill-opacity="0.501961"/>
<path fill-rule="evenodd" clip-rule="evenodd" d="M819.942 66.7352L935.408 66.7352V43.7015L819.942 43.7015V66.7352Z" fill="#FEFEFE" fill-opacity="0.501961"/>
<path fill-rule="evenodd" clip-rule="evenodd" d="M910.165 39.1748L1025.63 39.1748V24.689L910.165 24.689V39.1748Z" fill="#FEFEFE" fill-opacity="0.501961"/>
<path fill-rule="evenodd" clip-rule="evenodd" d="M979.464 49.9049L1094.93 49.9049V35.419L979.464 35.419V49.9049Z" fill="#FEFEFE" fill-opacity="0.501961"/>
<path fill-rule="evenodd" clip-rule="evenodd" d="M772.873 59.7947L838.224 59.7947V30.2214L772.873 30.2214V59.7947Z" fill="#FEFEFE" fill-opacity="0.501961"/>
<path fill-rule="evenodd" clip-rule="evenodd" d="M1078.16 39.4756L1136.53 39.4756V9.90229L1078.16 9.90229V39.4756Z" fill="#FEFEFE" fill-opacity="0.501961"/>
<path fill-rule="evenodd" clip-rule="evenodd" d="M1193.27 34.5135L1251.64 34.5135V4.94026L1193.27 4.94026V34.5135Z" fill="#FEFEFE" fill-opacity="0.501961"/>
<path fill-rule="evenodd" clip-rule="evenodd" d="M1472.5 59.3612L1530.86 59.3612V29.7879L1472.5 29.7879V59.3612Z" fill="#FEFEFE" fill-opacity="0.501961"/>
<path fill-rule="evenodd" clip-rule="evenodd" d="M1424.26 45.4131L1482.63 45.4131V15.8398L1424.26 15.8398V45.4131Z" fill="#FEFEFE" fill-opacity="0.501961"/>
<path fill-rule="evenodd" clip-rule="evenodd" d="M1516.66 35.8239L1575.02 35.8239V6.25056L1516.66 6.25056V35.8239Z" fill="#FEFEFE" fill-opacity="0.501961"/>
<path fill-rule="evenodd" clip-rule="evenodd" d="M1477.78 68.5073L1596.62 68.5073V54.0214L1477.78 54.0214V68.5073Z" fill="#FEFEFE" fill-opacity="0.501961"/>
<path fill-rule="evenodd" clip-rule="evenodd" d="M878.351 66.7352L993.816 66.7352V52.2501L878.351 52.2501V66.7352Z" fill="#005F96" fill-opacity="0.501961"/>
<path fill-rule="evenodd" clip-rule="evenodd" d="M952.744 74.5107L1068.21 74.5107V60.0257L952.744 60.0257V74.5107Z" fill="#005F96" fill-opacity="0.501961"/>
<path fill-rule="evenodd" clip-rule="evenodd" d="M849.815 86.7156L965.281 86.7156V72.2305L849.815 72.2305V86.7156Z" fill="#005F96" fill-opacity="0.501961"/>
<path fill-rule="evenodd" clip-rule="evenodd" d="M768.007 79.7414L863.037 79.7414V65.2563L768.007 65.2563V79.7414Z" fill="#005F96" fill-opacity="0.501961"/>
<path fill-rule="evenodd" clip-rule="evenodd" d="M1276.15 67.2072L1334.52 67.2072V37.6339L1276.15 37.6339V67.2072Z" fill="#FEFEFE" fill-opacity="0.501961"/>
<path fill-rule="evenodd" clip-rule="evenodd" d="M1227.91 53.2581L1286.28 53.2581V23.6848L1227.91 23.6848V53.2581Z" fill="#FEFEFE" fill-opacity="0.501961"/>
<path fill-rule="evenodd" clip-rule="evenodd" d="M1315.08 66.4672L1430.55 66.4672V51.9828L1315.08 51.9828V66.4672Z" fill="#FEFEFE" fill-opacity="0.501961"/>
<path fill-rule="evenodd" clip-rule="evenodd" d="M1088.96 66.0134L1204.43 66.0134V45.3384L1088.96 45.3384V66.0134Z" fill="#005F96" fill-opacity="0.501961"/>
<path fill-rule="evenodd" clip-rule="evenodd" d="M2266.14 11.2345L111 11.2345V0.000118207L2266.14 0.000118207V11.2345Z" fill="url(#paint0_linear_119_1291)"/>
<path fill-rule="evenodd" clip-rule="evenodd" d="M1004.82 95L1120.28 95V70.4384L1004.82 70.4384V95Z" fill="#005F96" fill-opacity="0.501961"/>
<path fill-rule="evenodd" clip-rule="evenodd" d="M1154.1 79.9521L1269.56 79.9521V71.9942L1154.1 71.9942V79.9521Z" fill="#005F96" fill-opacity="0.501961"/>
</g>
<path fill-rule="evenodd" clip-rule="evenodd" d="M111.159 57.1711L56.2558 57.1711L56.2558 6.35316L111.159 6.35316V57.1711Z" fill="#005F96"/>
<path fill-rule="evenodd" clip-rule="evenodd" d="M2.46067 57.171L57.3633 57.171L57.3633 6.35304L2.46067 6.35304L2.46067 57.171Z" fill="#005F96" fill-opacity="0.901961"/>
<path fill-rule="evenodd" clip-rule="evenodd" d="M2.46094 57.171L-52.4417 57.171L-52.4417 6.35304L2.46094 6.35304L2.46094 57.171Z" fill="#005F96" fill-opacity="0.901961"/>
<path fill-rule="evenodd" clip-rule="evenodd" d="M72.7188 32.3827L26.0375 32.3827V4L72.7188 4V32.3827Z" fill="#FEFEFE" fill-opacity="0.501961"/>
<path fill-rule="evenodd" clip-rule="evenodd" d="M74.6201 61.6226L-17.7298 61.6226V39.516L74.6201 39.516V61.6226Z" fill="#FEFEFE" fill-opacity="0.501961"/>
<path fill-rule="evenodd" clip-rule="evenodd" d="M2.46094 35.171L-89.889 35.171V21.2695L2.46094 21.2695L2.46094 35.171Z" fill="#FEFEFE" fill-opacity="0.501961"/>
<path fill-rule="evenodd" clip-rule="evenodd" d="M111.159 54.9624L58.8911 54.9624V26.5789L111.159 26.5789V54.9624Z" fill="#FEFEFE" fill-opacity="0.501961"/>
<path fill-rule="evenodd" clip-rule="evenodd" d="M27.9053 61.6226L-64.4446 61.6226V47.7211L27.9053 47.7211V61.6226Z" fill="#005F96" fill-opacity="0.501961"/>
<path fill-rule="evenodd" clip-rule="evenodd" d="M50.7275 80.7993L-41.6216 80.7993V66.8962L50.7275 66.8962V80.7993Z" fill="#005F96" fill-opacity="0.501961"/>
<path fill-rule="evenodd" clip-rule="evenodd" d="M111.159 74.1057L35.1533 74.1057V60.2035L111.159 60.2035V74.1057Z" fill="#005F96" fill-opacity="0.501961"/>
<path fill-rule="evenodd" clip-rule="evenodd" d="M-2043.98 11.2345L111.159 11.2345V0.000118207L-2043.98 0.000118207V11.2345Z" fill="url(#paint1_linear_119_1291)"/>
<path fill-rule="evenodd" clip-rule="evenodd" d="M3756.54 57.171L3818.34 57.171V6.35304L3756.54 6.35304V57.171Z" fill="#005F96" fill-opacity="0.901961"/>
<path fill-rule="evenodd" clip-rule="evenodd" d="M3873.24 57.171L3818.34 57.171V6.35304L3873.24 6.35304V57.171Z" fill="#005F96" fill-opacity="0.8"/>
<path fill-rule="evenodd" clip-rule="evenodd" d="M3923.03 69.0854L3830.68 69.0854V55.1839L3923.03 55.1839V69.0854Z" fill="#005F96" fill-opacity="0.501961"/>
<path fill-rule="evenodd" clip-rule="evenodd" d="M3862.71 54.5459L3816.02 54.5459V26.1624L3862.71 26.1624V54.5459Z" fill="#FEFEFE" fill-opacity="0.501961"/>
<path fill-rule="evenodd" clip-rule="evenodd" d="M3827.39 31.9552L3780.7 31.9552V3.57251L3827.39 3.57251V31.9552Z" fill="#FEFEFE" fill-opacity="0.501961"/>
<path fill-rule="evenodd" clip-rule="evenodd" d="M3858.48 63.323L3763.43 63.323V49.4215L3858.48 49.4215V63.323Z" fill="#FEFEFE" fill-opacity="0.501961"/>
<path fill-rule="evenodd" clip-rule="evenodd" d="M2931.72 54.8551L2876.82 54.8551V4.03712L2931.72 4.03712V54.8551Z" fill="#005F96"/>
<path fill-rule="evenodd" clip-rule="evenodd" d="M2821.92 54.8551L2876.82 54.8551V4.03712L2821.92 4.03712V54.8551Z" fill="#005F96" fill-opacity="0.901961"/>
<path fill-rule="evenodd" clip-rule="evenodd" d="M2712.11 54.8551L2767.02 54.8551V4.03712L2712.11 4.03712V54.8551Z" fill="#005F96" fill-opacity="0.8"/>
<path fill-rule="evenodd" clip-rule="evenodd" d="M2821.92 54.8551L2767.02 54.8551V4.03712L2821.92 4.03712V54.8551Z" fill="#005F96" fill-opacity="0.901961"/>
<path fill-rule="evenodd" clip-rule="evenodd" d="M2492.5 54.8551L2547.4 54.8551V4.03712L2492.5 4.03712V54.8551Z" fill="#005F96" fill-opacity="0.501961"/>
<path fill-rule="evenodd" clip-rule="evenodd" d="M2602.31 54.8551L2547.4 54.8551V4.03712L2602.31 4.03712V54.8551Z" fill="#005F96" fill-opacity="0.4"/>
<path fill-rule="evenodd" clip-rule="evenodd" d="M2712.11 54.8551L2657.21 54.8551V4.03712L2712.11 4.03712V54.8551Z" fill="#005F96" fill-opacity="0.701961"/>
<path fill-rule="evenodd" clip-rule="evenodd" d="M2602.31 54.8551L2657.21 54.8551V4.03712L2602.31 4.03712V54.8551Z" fill="#005F96" fill-opacity="0.6"/>
<path fill-rule="evenodd" clip-rule="evenodd" d="M2492.5 54.8551L2437.6 54.8551V4.03712L2492.5 4.03712V54.8551Z" fill="#005F96" fill-opacity="0.6"/>
<path fill-rule="evenodd" clip-rule="evenodd" d="M2382.7 54.8551L2437.6 54.8551V4.03712L2382.7 4.03712V54.8551Z" fill="#005F96" fill-opacity="0.701961"/>
<path fill-rule="evenodd" clip-rule="evenodd" d="M2266 54.8551L2327.79 54.8551V4.03712L2266 4.03712V54.8551Z" fill="#005F96" fill-opacity="0.901961"/>
<path fill-rule="evenodd" clip-rule="evenodd" d="M2382.7 54.8551L2327.79 54.8551V4.03712L2382.7 4.03712V54.8551Z" fill="#005F96" fill-opacity="0.8"/>
<path fill-rule="evenodd" clip-rule="evenodd" d="M2892.18 30.0558L2845.5 30.0558V1.6731L2892.18 1.6731V30.0558Z" fill="#FEFEFE" fill-opacity="0.501961"/>
<path fill-rule="evenodd" clip-rule="evenodd" d="M2894.08 59.3069L2801.73 59.3069V37.2004L2894.08 37.2004V59.3069Z" fill="#FEFEFE" fill-opacity="0.501961"/>
<path fill-rule="evenodd" clip-rule="evenodd" d="M2821.92 32.8551L2729.57 32.8551V18.9536L2821.92 18.9536V32.8551Z" fill="#FEFEFE" fill-opacity="0.501961"/>
<path fill-rule="evenodd" clip-rule="evenodd" d="M2766.49 43.1537L2674.14 43.1537V29.2515L2766.49 29.2515V43.1537Z" fill="#FEFEFE" fill-opacity="0.501961"/>
<path fill-rule="evenodd" clip-rule="evenodd" d="M2931.72 52.6466L2879.46 52.6466V24.2631L2931.72 24.2631V52.6466Z" fill="#FEFEFE" fill-opacity="0.501961"/>
<path fill-rule="evenodd" clip-rule="evenodd" d="M2687.55 33.1451L2640.87 33.1451V4.76245L2687.55 4.76245V33.1451Z" fill="#FEFEFE" fill-opacity="0.501961"/>
<path fill-rule="evenodd" clip-rule="evenodd" d="M2595.49 28.3827L2548.81 28.3827V-7.53371e-05L2595.49 -7.53371e-05V28.3827Z" fill="#FEFEFE" fill-opacity="0.501961"/>
<path fill-rule="evenodd" clip-rule="evenodd" d="M2372.16 52.2301L2325.48 52.2301V23.8467L2372.16 23.8467V52.2301Z" fill="#FEFEFE" fill-opacity="0.501961"/>
<path fill-rule="evenodd" clip-rule="evenodd" d="M2410.74 38.8431L2364.06 38.8431V10.4596L2410.74 10.4596V38.8431Z" fill="#FEFEFE" fill-opacity="0.501961"/>
<path fill-rule="evenodd" clip-rule="evenodd" d="M2336.84 29.6395L2290.16 29.6395V1.25676L2336.84 1.25676V29.6395Z" fill="#FEFEFE" fill-opacity="0.501961"/>
<path fill-rule="evenodd" clip-rule="evenodd" d="M2367.94 61.0072L2272.89 61.0072V47.1057L2367.94 47.1057V61.0072Z" fill="#FEFEFE" fill-opacity="0.501961"/>
<path fill-rule="evenodd" clip-rule="evenodd" d="M2731.2 77.3635L2638.85 77.3635V63.4621L2731.2 63.4621V77.3635Z" fill="#005F96" fill-opacity="0.501961"/>
<path fill-rule="evenodd" clip-rule="evenodd" d="M2847.36 59.3069L2755.01 59.3069V45.4053L2847.36 45.4053V59.3069Z" fill="#005F96" fill-opacity="0.501961"/>
<path fill-rule="evenodd" clip-rule="evenodd" d="M2787.86 66.7695L2695.51 66.7695V52.8673L2787.86 52.8673V66.7695Z" fill="#005F96" fill-opacity="0.501961"/>
<path fill-rule="evenodd" clip-rule="evenodd" d="M2870.19 78.4835L2777.84 78.4835V64.5805L2870.19 64.5805V78.4835Z" fill="#005F96" fill-opacity="0.501961"/>
<path fill-rule="evenodd" clip-rule="evenodd" d="M2935.62 71.79L2859.61 71.79V57.8877L2935.62 57.8877V71.79Z" fill="#005F96" fill-opacity="0.501961"/>
<path fill-rule="evenodd" clip-rule="evenodd" d="M2636.26 77.3566L2543.91 77.3566V63.4551L2636.26 63.4551V77.3566Z" fill="#005F96" fill-opacity="0.501961"/>
<path fill-rule="evenodd" clip-rule="evenodd" d="M2576.22 71.4991H2522.23V57.5977L2576.22 57.5977V71.4991Z" fill="#005F96" fill-opacity="0.501961"/>
<path fill-rule="evenodd" clip-rule="evenodd" d="M2529.2 59.7599L2482.52 59.7599V31.3764L2529.2 31.3764V59.7599Z" fill="#FEFEFE" fill-opacity="0.501961"/>
<path fill-rule="evenodd" clip-rule="evenodd" d="M2567.78 46.3726L2521.1 46.3726V17.9891L2567.78 17.9891V46.3726Z" fill="#FEFEFE" fill-opacity="0.501961"/>
<path fill-rule="evenodd" clip-rule="evenodd" d="M2498.06 59.0493L2405.71 59.0493V45.1478L2498.06 45.1478V59.0493Z" fill="#FEFEFE" fill-opacity="0.501961"/>
<path fill-rule="evenodd" clip-rule="evenodd" d="M2678.92 58.6136L2586.57 58.6136V38.7717L2678.92 38.7717V58.6136Z" fill="#005F96" fill-opacity="0.501961"/>
<path fill-rule="evenodd" clip-rule="evenodd" d="M3759.29 62.0967L3690.64 62.0967V9.14779L3759.29 9.14779V62.0967Z" fill="#005F96"/>
<path fill-rule="evenodd" clip-rule="evenodd" d="M3622 62.0967L3690.64 62.0967V9.14779L3622 9.14779V62.0967Z" fill="#005F96" fill-opacity="0.901961"/>
<path fill-rule="evenodd" clip-rule="evenodd" d="M3484.7 62.0967L3553.35 62.0967V9.14779L3484.7 9.14779V62.0967Z" fill="#005F96" fill-opacity="0.8"/>
<path fill-rule="evenodd" clip-rule="evenodd" d="M3622 62.0967L3553.35 62.0967V9.14779L3622 9.14779V62.0967Z" fill="#005F96" fill-opacity="0.901961"/>
<path fill-rule="evenodd" clip-rule="evenodd" d="M3210.12 62.0967L3278.77 62.0967V9.14779L3210.12 9.14779V62.0967Z" fill="#005F96" fill-opacity="0.501961"/>
<path fill-rule="evenodd" clip-rule="evenodd" d="M3347.41 62.0967L3278.77 62.0967V9.14779L3347.41 9.14779V62.0967Z" fill="#005F96" fill-opacity="0.4"/>
<path fill-rule="evenodd" clip-rule="evenodd" d="M3484.7 62.0967L3416.06 62.0967V9.14779L3484.7 9.14779V62.0967Z" fill="#005F96" fill-opacity="0.701961"/>
<path fill-rule="evenodd" clip-rule="evenodd" d="M3347.41 62.0967L3416.06 62.0967V9.14779L3347.41 9.14779V62.0967Z" fill="#005F96" fill-opacity="0.6"/>
<path fill-rule="evenodd" clip-rule="evenodd" d="M3210.12 62.0967L3141.48 62.0967V9.14779L3210.12 9.14779V62.0967Z" fill="#005F96" fill-opacity="0.6"/>
<path fill-rule="evenodd" clip-rule="evenodd" d="M3072.83 62.0967L3141.48 62.0967V9.14779L3072.83 9.14779V62.0967Z" fill="#005F96" fill-opacity="0.701961"/>
<path fill-rule="evenodd" clip-rule="evenodd" d="M2926.93 62.0967L3004.19 62.0967V9.14779L2926.93 9.14779V62.0967Z" fill="#005F96" fill-opacity="0.901961"/>
<path fill-rule="evenodd" clip-rule="evenodd" d="M3072.83 62.0967L3004.19 62.0967V9.14779L3072.83 9.14779V62.0967Z" fill="#005F96" fill-opacity="0.8"/>
<path fill-rule="evenodd" clip-rule="evenodd" d="M3135.09 74.5107L3019.63 74.5107V60.0257L3135.09 60.0257V74.5107Z" fill="#005F96" fill-opacity="0.501961"/>
<path fill-rule="evenodd" clip-rule="evenodd" d="M3709.84 36.2577L3651.47 36.2577V6.6844L3709.84 6.6844V36.2577Z" fill="#FEFEFE" fill-opacity="0.501961"/>
<path fill-rule="evenodd" clip-rule="evenodd" d="M3712.22 66.7352L3596.75 66.7352V43.7015L3712.22 43.7015V66.7352Z" fill="#FEFEFE" fill-opacity="0.501961"/>
<path fill-rule="evenodd" clip-rule="evenodd" d="M3622 39.1748L3506.53 39.1748V24.689L3622 24.689V39.1748Z" fill="#FEFEFE" fill-opacity="0.501961"/>
<path fill-rule="evenodd" clip-rule="evenodd" d="M3552.7 49.9049L3437.23 49.9049V35.419L3552.7 35.419V49.9049Z" fill="#FEFEFE" fill-opacity="0.501961"/>
<path fill-rule="evenodd" clip-rule="evenodd" d="M3759.29 59.7947L3693.94 59.7947V30.2214L3759.29 30.2214V59.7947Z" fill="#FEFEFE" fill-opacity="0.501961"/>
<path fill-rule="evenodd" clip-rule="evenodd" d="M3454 39.4756L3395.63 39.4756V9.90229L3454 9.90229V39.4756Z" fill="#FEFEFE" fill-opacity="0.501961"/>
<path fill-rule="evenodd" clip-rule="evenodd" d="M3338.89 34.5135L3280.52 34.5135V4.94026L3338.89 4.94026V34.5135Z" fill="#FEFEFE" fill-opacity="0.501961"/>
<path fill-rule="evenodd" clip-rule="evenodd" d="M3059.66 59.3612L3001.3 59.3612V29.7879L3059.66 29.7879V59.3612Z" fill="#FEFEFE" fill-opacity="0.501961"/>
<path fill-rule="evenodd" clip-rule="evenodd" d="M3107.9 45.4131L3049.53 45.4131V15.8398L3107.9 15.8398V45.4131Z" fill="#FEFEFE" fill-opacity="0.501961"/>
<path fill-rule="evenodd" clip-rule="evenodd" d="M3015.5 35.8239L2957.14 35.8239V6.25056L3015.5 6.25056V35.8239Z" fill="#FEFEFE" fill-opacity="0.501961"/>
<path fill-rule="evenodd" clip-rule="evenodd" d="M3054.38 68.5073L2935.54 68.5073V54.0214L3054.38 54.0214V68.5073Z" fill="#FEFEFE" fill-opacity="0.501961"/>
<path fill-rule="evenodd" clip-rule="evenodd" d="M3653.81 66.7352L3538.34 66.7352V52.2501L3653.81 52.2501V66.7352Z" fill="#005F96" fill-opacity="0.501961"/>
<path fill-rule="evenodd" clip-rule="evenodd" d="M3579.42 74.5107L3463.95 74.5107V60.0257L3579.42 60.0257V74.5107Z" fill="#005F96" fill-opacity="0.501961"/>
<path fill-rule="evenodd" clip-rule="evenodd" d="M3682.34 86.7156L3566.88 86.7156V72.2305L3682.34 72.2305V86.7156Z" fill="#005F96" fill-opacity="0.501961"/>
<path fill-rule="evenodd" clip-rule="evenodd" d="M3764.15 79.7414L3669.12 79.7414V65.2563L3764.15 65.2563V79.7414Z" fill="#005F96" fill-opacity="0.501961"/>
<path fill-rule="evenodd" clip-rule="evenodd" d="M3256.01 67.2072L3197.64 67.2072V37.6339L3256.01 37.6339V67.2072Z" fill="#FEFEFE" fill-opacity="0.501961"/>
<path fill-rule="evenodd" clip-rule="evenodd" d="M3304.25 53.2581L3245.88 53.2581V23.6848L3304.25 23.6848V53.2581Z" fill="#FEFEFE" fill-opacity="0.501961"/>
<path fill-rule="evenodd" clip-rule="evenodd" d="M3217.08 66.4672L3101.61 66.4672V51.9828L3217.08 51.9828V66.4672Z" fill="#FEFEFE" fill-opacity="0.501961"/>
<path fill-rule="evenodd" clip-rule="evenodd" d="M3443.2 66.0134L3327.73 66.0134V45.3384L3443.2 45.3384V66.0134Z" fill="#005F96" fill-opacity="0.501961"/>
<path fill-rule="evenodd" clip-rule="evenodd" d="M2266 11.2345L4421.14 11.2345V0.000118207L2266 0.000118207V11.2345Z" fill="url(#paint2_linear_119_1291)"/>
<path fill-rule="evenodd" clip-rule="evenodd" d="M3527.34 95L3411.88 95V70.4384L3527.34 70.4384V95Z" fill="#005F96" fill-opacity="0.501961"/>
<path fill-rule="evenodd" clip-rule="evenodd" d="M3378.06 79.9521L3262.6 79.9521V71.9942L3378.06 71.9942V79.9521Z" fill="#005F96" fill-opacity="0.501961"/>
</g>
<defs>
<linearGradient id="paint0_linear_119_1291" x1="111.001" y1="5.61728" x2="2266.14" y2="5.61728" gradientUnits="userSpaceOnUse">
<stop stop-color="#9D9E9E"/>
<stop offset="0.0784314" stop-color="#D9DADA"/>
<stop offset="0.160784" stop-color="#898989"/>
<stop offset="0.270588" stop-color="#D9DADA"/>
<stop offset="0.411765" stop-color="#9D9E9E"/>
<stop offset="0.541176" stop-color="#D9DADA"/>
<stop offset="0.701961" stop-color="#898989"/>
<stop offset="0.870588" stop-color="#EBECEC"/>
<stop offset="1" stop-color="#9D9E9E"/>
</linearGradient>
<linearGradient id="paint1_linear_119_1291" x1="111.158" y1="5.61728" x2="-2043.98" y2="5.61728" gradientUnits="userSpaceOnUse">
<stop stop-color="#9D9E9E"/>
<stop offset="0.0784314" stop-color="#D9DADA"/>
<stop offset="0.160784" stop-color="#898989"/>
<stop offset="0.270588" stop-color="#D9DADA"/>
<stop offset="0.411765" stop-color="#9D9E9E"/>
<stop offset="0.541176" stop-color="#D9DADA"/>
<stop offset="0.701961" stop-color="#898989"/>
<stop offset="0.870588" stop-color="#EBECEC"/>
<stop offset="1" stop-color="#9D9E9E"/>
</linearGradient>
<linearGradient id="paint2_linear_119_1291" x1="4421.14" y1="5.61728" x2="2266" y2="5.61728" gradientUnits="userSpaceOnUse">
<stop stop-color="#9D9E9E"/>
<stop offset="0.0784314" stop-color="#D9DADA"/>
<stop offset="0.160784" stop-color="#898989"/>
<stop offset="0.270588" stop-color="#D9DADA"/>
<stop offset="0.411765" stop-color="#9D9E9E"/>
<stop offset="0.541176" stop-color="#D9DADA"/>
<stop offset="0.701961" stop-color="#898989"/>
<stop offset="0.870588" stop-color="#EBECEC"/>
<stop offset="1" stop-color="#9D9E9E"/>
</linearGradient>
<clipPath id="clip0_119_1291">
<rect width="3840" height="95" fill="white"/>
</clipPath>
<clipPath id="clip1_119_1291">
<rect width="2160.16" height="95" fill="white" transform="translate(106)"/>
</clipPath>
</defs>
</svg>
