<svg width="119" height="121" viewBox="0 0 119 121" fill="none" xmlns="http://www.w3.org/2000/svg">
<path fill-rule="evenodd" clip-rule="evenodd" d="M12.0365 95.1232C13.9056 97.6034 15.9535 99.6381 17.5831 101.81C20.1622 100.921 18.6389 100.425 23.2557 98.6407C37.3909 93.176 29.3655 93.1007 36.5707 82.0287C39.0046 78.2878 34.7158 78.1625 36.5888 71.1431C37.7957 66.6196 41.076 64.1718 44.7538 62.2796C56.424 56.2761 65.2247 59.5547 61.8561 72.7353C57.0707 91.4606 43.8323 85.0691 42.4564 85.4554C38.8581 88.0326 38.5909 92.2696 35.9203 96.1157C33.5072 99.5909 30.0452 100.374 24.5722 101.798C18.9289 103.267 18.4746 105.777 16.9113 111.243C15.0043 117.913 12.3315 116.271 8.32107 120.166C11.5225 118.776 15.289 117.512 16.9872 115.117C19.3001 111.854 19.1572 108.411 22.061 105.945C25.0747 106.791 36.9376 119.136 60.4812 118.765C105.645 118.052 133.028 69.2924 111.547 30.7211C105.867 20.5217 96.5223 11.0014 85.2289 5.79991C72.3319 -0.139625 56.782 -2.05063 42.0427 2.59291C22.8578 8.63671 8.95754 23.1556 3.16779 40.6162C0.652016 50.5731 -5.63527 75.486 12.0375 95.1236L12.0365 95.1232Z" fill="#005F96"/>
<path fill-rule="evenodd" clip-rule="evenodd" d="M87.7239 27.7075C85.1154 31.1583 80.0888 35.2819 76.9822 38.5202C76.2725 39.2602 75.3107 40.2356 74.3905 41.1449L66.4109 49.6441C60.803 47.5024 57.2106 43.3264 46.1003 44.6904C32.2218 46.3945 22.2234 58.7856 22.7493 72.7687C23.0406 80.5272 26.8643 87.1372 30.4599 90.7767C31.7332 89.4484 31.718 87.2078 33.0879 84.2548C34.6191 80.9548 33.2291 81.3266 32.0123 77.99C30.1115 72.777 31.0301 66.9648 33.1773 62.5509C39.4395 49.6797 61.225 48.877 67.4129 64.4427C71.2042 73.9796 66.6485 85.0236 57.239 88.9875C50.2974 91.9117 47.8895 90.1162 41.6085 88.9132L38.4804 96.0098C45.5694 101.258 60.9795 98.7546 68.09 91.7481L70.8569 88.8462C76.1081 81.943 78.8793 72.0019 75.5703 62.8679C74.4334 59.7296 72.6451 57.4629 71.8823 55.1946C76.8198 51.6194 89.2624 36.9091 93.8489 33.8562C94.1217 39.4143 93.8779 45.3677 93.8851 50.9727C93.8891 54.0451 93.8132 55.8614 96.359 56.8252C104.498 59.9064 102.081 45.1698 102.09 37.1948C102.094 33.6318 102.881 22.7066 101.097 20.7765C99.0807 18.5953 88.9829 19.5122 85.1438 19.5069C81.5917 19.5023 70.3088 19.0153 67.633 19.623C63.4095 20.5825 62.2346 27.5801 69.9373 27.7375C75.7082 27.8553 81.9569 27.8563 87.7236 27.7068L87.7239 27.7075Z" fill="white"/>
</svg>
