<svg width="3840" height="95" viewBox="0 0 3840 95" fill="none" xmlns="http://www.w3.org/2000/svg">
<g clip-path="url(#clip0_120_2194)">
<path d="M2833.1 57.171L2888 57.171V6.35406L2833.1 6.35406V57.171Z" fill="#F0B3BB"/>
<path fill-rule="evenodd" clip-rule="evenodd" d="M2779.3 57.171L2834.2 57.171V6.35329L2779.3 6.35329V57.171Z" fill="#EC8D92" fill-opacity="0.901961"/>
<path fill-rule="evenodd" clip-rule="evenodd" d="M2669.5 57.171L2724.4 57.171V6.35329L2669.5 6.35329V57.171Z" fill="#F0B3BB" fill-opacity="0.8"/>
<path fill-rule="evenodd" clip-rule="evenodd" d="M2779.3 57.171L2724.4 57.171V6.35329L2779.3 6.35329V57.171Z" fill="#EC8D92" fill-opacity="0.901961"/>
<path fill-rule="evenodd" clip-rule="evenodd" d="M2449.88 57.171L2504.79 57.171V6.35329L2449.88 6.35329V57.171Z" fill="#EC8D92" fill-opacity="0.501961"/>
<path fill-rule="evenodd" clip-rule="evenodd" d="M2559.69 57.171L2504.79 57.171V6.35329L2559.69 6.35329V57.171Z" fill="#EC8D92" fill-opacity="0.4"/>
<path fill-rule="evenodd" clip-rule="evenodd" d="M2669.5 57.171L2614.59 57.171V6.35329L2669.5 6.35329V57.171Z" fill="#EC8D92" fill-opacity="0.701961"/>
<path fill-rule="evenodd" clip-rule="evenodd" d="M2559.69 57.171L2614.59 57.171V6.35329L2559.69 6.35329V57.171Z" fill="#F0B3BB" fill-opacity="0.6"/>
<path fill-rule="evenodd" clip-rule="evenodd" d="M2449.88 57.171L2394.98 57.171V6.35329L2449.88 6.35329V57.171Z" fill="#F0B3BB" fill-opacity="0.6"/>
<path fill-rule="evenodd" clip-rule="evenodd" d="M2340.08 57.171L2394.98 57.171V6.35329L2340.08 6.35329V57.171Z" fill="#EC8D92" fill-opacity="0.701961"/>
<path fill-rule="evenodd" clip-rule="evenodd" d="M2223.38 57.171L2285.17 57.171V6.35329L2223.38 6.35329V57.171Z" fill="#F0B3BB" fill-opacity="0.901961"/>
<path fill-rule="evenodd" clip-rule="evenodd" d="M2340.08 57.171L2285.18 57.171V6.35329L2340.08 6.35329V57.171Z" fill="#F0B3BB" fill-opacity="0.8"/>
<path fill-rule="evenodd" clip-rule="evenodd" d="M2389.87 69.0853L2297.52 69.0853V55.1839L2389.87 55.1839V69.0853Z" fill="#F0B3BB" fill-opacity="0.501961"/>
<path fill-rule="evenodd" clip-rule="evenodd" d="M2849.56 32.3721L2802.88 32.3721V3.98948L2849.56 3.98948V32.3721Z" fill="#FEFEFE" fill-opacity="0.501961"/>
<path fill-rule="evenodd" clip-rule="evenodd" d="M2851.46 61.6234L2759.11 61.6234V39.5163L2851.46 39.5163V61.6234Z" fill="#FEFEFE" fill-opacity="0.501961"/>
<path fill-rule="evenodd" clip-rule="evenodd" d="M2779.3 35.1716L2686.95 35.1716V21.2702L2779.3 21.2702V35.1716Z" fill="#FEFEFE" fill-opacity="0.501961"/>
<path fill-rule="evenodd" clip-rule="evenodd" d="M2723.88 45.47L2631.53 45.47V31.5671L2723.88 31.5671V45.47Z" fill="#FEFEFE" fill-opacity="0.501961"/>
<path fill-rule="evenodd" clip-rule="evenodd" d="M2888 54.9626L2835.73 54.9626V26.5792L2888 26.5792V54.9626Z" fill="#FEFEFE" fill-opacity="0.501961"/>
<path fill-rule="evenodd" clip-rule="evenodd" d="M2644.93 35.4609L2598.25 35.4609V7.07829L2644.93 7.07829V35.4609Z" fill="#FEFEFE" fill-opacity="0.501961"/>
<path fill-rule="evenodd" clip-rule="evenodd" d="M2552.87 30.6989L2506.19 30.6989V2.31627L2552.87 2.31627V30.6989Z" fill="#FEFEFE" fill-opacity="0.501961"/>
<path fill-rule="evenodd" clip-rule="evenodd" d="M2329.55 54.5458L2282.86 54.5458V26.1624L2329.55 26.1624V54.5458Z" fill="#FEFEFE" fill-opacity="0.501961"/>
<path fill-rule="evenodd" clip-rule="evenodd" d="M2368.13 41.1589L2321.44 41.1589V12.7754L2368.13 12.7754V41.1589Z" fill="#FEFEFE" fill-opacity="0.501961"/>
<path fill-rule="evenodd" clip-rule="evenodd" d="M2294.23 31.9557L2247.55 31.9557V3.5731L2294.23 3.5731V31.9557Z" fill="#FEFEFE" fill-opacity="0.501961"/>
<path fill-rule="evenodd" clip-rule="evenodd" d="M2325.32 63.3234L2230.27 63.3234V49.4212L2325.32 49.4212V63.3234Z" fill="#FEFEFE" fill-opacity="0.501961"/>
<path fill-rule="evenodd" clip-rule="evenodd" d="M2707.15 76.0364L2614.8 76.0364V62.135L2707.15 62.135V76.0364Z" fill="#EC8D92" fill-opacity="0.501961"/>
<path fill-rule="evenodd" clip-rule="evenodd" d="M2804.75 61.6234L2712.4 61.6234V47.7203L2804.75 47.7203V61.6234Z" fill="#EC8D92" fill-opacity="0.501961"/>
<path fill-rule="evenodd" clip-rule="evenodd" d="M2745.25 69.0853L2652.9 69.0853V55.1839L2745.25 55.1839V69.0853Z" fill="#EC8D92" fill-opacity="0.501961"/>
<path fill-rule="evenodd" clip-rule="evenodd" d="M2827.57 80.7994L2735.22 80.7994V66.8963L2827.57 66.8963V80.7994Z" fill="#EC8D92" fill-opacity="0.501961"/>
<path fill-rule="evenodd" clip-rule="evenodd" d="M2888 74.1055L2811.99 74.1055V60.2041L2888 60.2041V74.1055Z" fill="#EC8D92" fill-opacity="0.501961"/>
<path fill-rule="evenodd" clip-rule="evenodd" d="M2465.6 78.9814L2373.25 78.9814V65.08L2465.6 65.08V78.9814Z" fill="#F0B3BB" fill-opacity="0.501961"/>
<path fill-rule="evenodd" clip-rule="evenodd" d="M2593.64 79.6726L2501.29 79.6726V65.771L2593.64 65.771V79.6726Z" fill="#F0B3BB" fill-opacity="0.501961"/>
<path fill-rule="evenodd" clip-rule="evenodd" d="M2533.6 73.8154H2479.61V59.9139L2533.6 59.9139V73.8154Z" fill="#F0B3BB" fill-opacity="0.501961"/>
<path fill-rule="evenodd" clip-rule="evenodd" d="M2486.58 62.0759L2439.9 62.0759V33.6925L2486.58 33.6925V62.0759Z" fill="#FEFEFE" fill-opacity="0.501961"/>
<path fill-rule="evenodd" clip-rule="evenodd" d="M2525.16 48.6885L2478.48 48.6885V20.3058L2525.16 20.3058V48.6885Z" fill="#FEFEFE" fill-opacity="0.501961"/>
<path fill-rule="evenodd" clip-rule="evenodd" d="M2455.45 61.3663L2363.1 61.3663V47.4639L2455.45 47.4639V61.3663Z" fill="#FEFEFE" fill-opacity="0.501961"/>
<path fill-rule="evenodd" clip-rule="evenodd" d="M2636.3 60.9299L2543.95 60.9299V41.0878L2636.3 41.0878V60.9299Z" fill="#F0B3BB" fill-opacity="0.501961"/>
<path d="M1343.66 54.855L1398.56 54.855V4.03808L1343.66 4.03808V54.855Z" fill="#EC8D92"/>
<path fill-rule="evenodd" clip-rule="evenodd" d="M1288.76 54.855L1343.66 54.855V4.03808L1288.76 4.03808V54.855Z" fill="#F0B3BB" fill-opacity="0.901961"/>
<path fill-rule="evenodd" clip-rule="evenodd" d="M1178.95 54.855L1233.86 54.855V4.03808L1178.95 4.03808V54.855Z" fill="#EC8D92" fill-opacity="0.8"/>
<path fill-rule="evenodd" clip-rule="evenodd" d="M1288.76 54.855L1233.86 54.855V4.03808L1288.76 4.03808V54.855Z" fill="#EC8D92" fill-opacity="0.901961"/>
<path fill-rule="evenodd" clip-rule="evenodd" d="M959.341 54.855L1014.24 54.855V4.03808L959.341 4.03808V54.855Z" fill="#EC8D92" fill-opacity="0.501961"/>
<path fill-rule="evenodd" clip-rule="evenodd" d="M1069.15 54.855L1014.24 54.855V4.03808L1069.15 4.03808V54.855Z" fill="#F0B3BB" fill-opacity="0.4"/>
<path fill-rule="evenodd" clip-rule="evenodd" d="M1178.95 54.855L1124.05 54.855V4.03808L1178.95 4.03808V54.855Z" fill="#F0B3BB" fill-opacity="0.701961"/>
<path fill-rule="evenodd" clip-rule="evenodd" d="M1069.15 54.855L1124.05 54.855V4.03808L1069.15 4.03808V54.855Z" fill="#EC8D92" fill-opacity="0.6"/>
<path fill-rule="evenodd" clip-rule="evenodd" d="M959.34 54.855L904.438 54.855V4.03808L959.34 4.03808V54.855Z" fill="#F0B3BB" fill-opacity="0.6"/>
<path fill-rule="evenodd" clip-rule="evenodd" d="M849.536 54.855L904.438 54.855V4.03808L849.536 4.03808V54.855Z" fill="#EC8D92" fill-opacity="0.701961"/>
<path fill-rule="evenodd" clip-rule="evenodd" d="M732.841 54.855L794.633 54.855V4.03808L732.841 4.03808V54.855Z" fill="#EC8D92" fill-opacity="0.901961"/>
<path fill-rule="evenodd" clip-rule="evenodd" d="M849.535 54.855L794.632 54.855V4.03808L849.535 4.03808V54.855Z" fill="#EC8D92" fill-opacity="0.8"/>
<path fill-rule="evenodd" clip-rule="evenodd" d="M1359.02 30.0564L1312.34 30.0564V1.6736L1359.02 1.6736V30.0564Z" fill="#FEFEFE" fill-opacity="0.501961"/>
<path fill-rule="evenodd" clip-rule="evenodd" d="M1360.92 59.3073L1268.57 59.3073V37.2001L1360.92 37.2001V59.3073Z" fill="#FEFEFE" fill-opacity="0.501961"/>
<path fill-rule="evenodd" clip-rule="evenodd" d="M1288.76 32.8557L1196.41 32.8557V18.9541L1288.76 18.9541V32.8557Z" fill="#FEFEFE" fill-opacity="0.501961"/>
<path fill-rule="evenodd" clip-rule="evenodd" d="M1233.33 43.1541L1140.98 43.1541V29.251L1233.33 29.251V43.1541Z" fill="#FEFEFE" fill-opacity="0.501961"/>
<path fill-rule="evenodd" clip-rule="evenodd" d="M1398.56 52.6466L1346.3 52.6466V24.264L1398.56 24.264V52.6466Z" fill="#FEFEFE" fill-opacity="0.501961"/>
<path fill-rule="evenodd" clip-rule="evenodd" d="M1154.39 33.1449L1107.71 33.1449V4.76302L1154.39 4.76302V33.1449Z" fill="#FEFEFE" fill-opacity="0.501961"/>
<path fill-rule="evenodd" clip-rule="evenodd" d="M1062.33 28.3829L1015.65 28.3829V0.000136188L1062.33 0.000136188V28.3829Z" fill="#FEFEFE" fill-opacity="0.501961"/>
<path fill-rule="evenodd" clip-rule="evenodd" d="M839.003 52.2299L792.322 52.2299V23.8472L839.003 23.8472V52.2299Z" fill="#FEFEFE" fill-opacity="0.501961"/>
<path fill-rule="evenodd" clip-rule="evenodd" d="M877.583 38.8431L830.902 38.8431V10.4596L877.583 10.4596V38.8431Z" fill="#FEFEFE" fill-opacity="0.501961"/>
<path fill-rule="evenodd" clip-rule="evenodd" d="M803.683 29.6398L757.002 29.6398V1.25712L803.683 1.25712V29.6398Z" fill="#FEFEFE" fill-opacity="0.501961"/>
<path fill-rule="evenodd" clip-rule="evenodd" d="M834.776 61.0074L739.73 61.0074V47.1051L834.776 47.1051V61.0074Z" fill="#FEFEFE" fill-opacity="0.501961"/>
<path fill-rule="evenodd" clip-rule="evenodd" d="M1198.04 77.3637L1105.69 77.3637V63.4623L1198.04 63.4623V77.3637Z" fill="#F0B3BB" fill-opacity="0.501961"/>
<path fill-rule="evenodd" clip-rule="evenodd" d="M1314.2 59.3073L1221.85 59.3073V45.4057L1314.2 45.4057V59.3073Z" fill="#F0B3BB" fill-opacity="0.501961"/>
<path fill-rule="evenodd" clip-rule="evenodd" d="M1254.7 66.7694L1162.35 66.7694V52.868L1254.7 52.868V66.7694Z" fill="#EC8D92" fill-opacity="0.501961"/>
<path fill-rule="evenodd" clip-rule="evenodd" d="M1337.02 78.4833L1244.68 78.4833V64.581L1337.02 64.581V78.4833Z" fill="#F0B3BB" fill-opacity="0.501961"/>
<path fill-rule="evenodd" clip-rule="evenodd" d="M1402.46 71.7898L1326.45 71.7898V57.8884L1402.46 57.8884V71.7898Z" fill="#F0B3BB" fill-opacity="0.501961"/>
<path fill-rule="evenodd" clip-rule="evenodd" d="M1103.1 77.3567L1010.75 77.3567V63.4553L1103.1 63.4553V77.3567Z" fill="#F0B3BB" fill-opacity="0.501961"/>
<path fill-rule="evenodd" clip-rule="evenodd" d="M1043.06 71.4993H989.071V57.5979L1043.06 57.5979V71.4993Z" fill="#EC8D92" fill-opacity="0.501961"/>
<path fill-rule="evenodd" clip-rule="evenodd" d="M996.042 59.7601L949.36 59.7601V31.3767L996.042 31.3767V59.7601Z" fill="#FEFEFE" fill-opacity="0.501961"/>
<path fill-rule="evenodd" clip-rule="evenodd" d="M1034.62 46.3726L987.939 46.3726V17.9899L1034.62 17.9899V46.3726Z" fill="#FEFEFE" fill-opacity="0.501961"/>
<path fill-rule="evenodd" clip-rule="evenodd" d="M964.902 59.0498L872.553 59.0498V45.1484L964.902 45.1484V59.0498Z" fill="#FEFEFE" fill-opacity="0.501961"/>
<path fill-rule="evenodd" clip-rule="evenodd" d="M1145.75 58.614L1053.4 58.614V38.7719L1145.75 38.7719V58.614Z" fill="#EC8D92" fill-opacity="0.501961"/>
<path d="M2157.48 62.0965L2226.13 62.0965V9.14807L2157.48 9.14807V62.0965Z" fill="#EC8D92"/>
<path fill-rule="evenodd" clip-rule="evenodd" d="M2088.83 62.097L2157.48 62.097V9.14786L2088.83 9.14786V62.097Z" fill="#EC8D92" fill-opacity="0.901961"/>
<path fill-rule="evenodd" clip-rule="evenodd" d="M1951.54 62.097L2020.19 62.097V9.14786L1951.54 9.14786V62.097Z" fill="#F0B3BB" fill-opacity="0.8"/>
<path fill-rule="evenodd" clip-rule="evenodd" d="M2088.83 62.097L2020.19 62.097V9.14786L2088.83 9.14786V62.097Z" fill="#EC8D92" fill-opacity="0.901961"/>
<path fill-rule="evenodd" clip-rule="evenodd" d="M1676.96 62.097L1745.61 62.097V9.14786L1676.96 9.14786V62.097Z" fill="#EC8D92" fill-opacity="0.501961"/>
<path fill-rule="evenodd" clip-rule="evenodd" d="M1814.25 62.097L1745.61 62.097V9.14786L1814.25 9.14786V62.097Z" fill="#F0B3BB" fill-opacity="0.4"/>
<path fill-rule="evenodd" clip-rule="evenodd" d="M1951.54 62.097L1882.9 62.097V9.14786L1951.54 9.14786V62.097Z" fill="#F0B3BB" fill-opacity="0.701961"/>
<path fill-rule="evenodd" clip-rule="evenodd" d="M1814.25 62.097L1882.9 62.097V9.14786L1814.25 9.14786V62.097Z" fill="#EC8D92" fill-opacity="0.6"/>
<path fill-rule="evenodd" clip-rule="evenodd" d="M1676.96 62.097L1608.32 62.097V9.14786L1676.96 9.14786V62.097Z" fill="#F0B3BB" fill-opacity="0.6"/>
<path fill-rule="evenodd" clip-rule="evenodd" d="M1539.67 62.097L1608.32 62.097V9.14786L1539.67 9.14786V62.097Z" fill="#EC8D92" fill-opacity="0.701961"/>
<path fill-rule="evenodd" clip-rule="evenodd" d="M1393.77 62.097L1471.02 62.097V9.14786L1393.77 9.14786V62.097Z" fill="#EC8D92" fill-opacity="0.901961"/>
<path fill-rule="evenodd" clip-rule="evenodd" d="M1539.67 62.097L1471.03 62.097V9.14786L1539.67 9.14786V62.097Z" fill="#F0B3BB" fill-opacity="0.8"/>
<path fill-rule="evenodd" clip-rule="evenodd" d="M1601.93 74.5113L1486.47 74.5113V60.0262L1601.93 60.0262V74.5113Z" fill="#F0B3BB" fill-opacity="0.501961"/>
<path fill-rule="evenodd" clip-rule="evenodd" d="M2176.68 36.2581L2118.31 36.2581V6.68449L2176.68 6.68449V36.2581Z" fill="#FEFEFE" fill-opacity="0.501961"/>
<path fill-rule="evenodd" clip-rule="evenodd" d="M2179.06 66.7355L2063.59 66.7355V43.7019L2179.06 43.7019V66.7355Z" fill="#FEFEFE" fill-opacity="0.501961"/>
<path fill-rule="evenodd" clip-rule="evenodd" d="M2088.83 39.1749L1973.37 39.1749V24.6899L2088.83 24.6899V39.1749Z" fill="#FEFEFE" fill-opacity="0.501961"/>
<path fill-rule="evenodd" clip-rule="evenodd" d="M2019.54 49.9045L1904.07 49.9045V35.4194L2019.54 35.4194V49.9045Z" fill="#FEFEFE" fill-opacity="0.501961"/>
<path fill-rule="evenodd" clip-rule="evenodd" d="M2226.13 59.7953L2160.78 59.7953V30.2217L2226.13 30.2217V59.7953Z" fill="#FEFEFE" fill-opacity="0.501961"/>
<path fill-rule="evenodd" clip-rule="evenodd" d="M1920.84 39.476L1862.47 39.476V9.90244L1920.84 9.90244V39.476Z" fill="#FEFEFE" fill-opacity="0.501961"/>
<path fill-rule="evenodd" clip-rule="evenodd" d="M1805.73 34.5139L1747.36 34.5139V4.94111L1805.73 4.94111V34.5139Z" fill="#FEFEFE" fill-opacity="0.501961"/>
<path fill-rule="evenodd" clip-rule="evenodd" d="M1526.5 59.3615L1468.14 59.3615V29.7879L1526.5 29.7879V59.3615Z" fill="#FEFEFE" fill-opacity="0.501961"/>
<path fill-rule="evenodd" clip-rule="evenodd" d="M1574.74 45.4138L1516.37 45.4138V15.84L1574.74 15.84V45.4138Z" fill="#FEFEFE" fill-opacity="0.501961"/>
<path fill-rule="evenodd" clip-rule="evenodd" d="M1482.34 35.8242L1423.98 35.8242V6.25049L1482.34 6.25049V35.8242Z" fill="#FEFEFE" fill-opacity="0.501961"/>
<path fill-rule="evenodd" clip-rule="evenodd" d="M1521.22 68.5071L1402.38 68.5071V54.0219L1521.22 54.0219V68.5071Z" fill="#FEFEFE" fill-opacity="0.501961"/>
<path fill-rule="evenodd" clip-rule="evenodd" d="M2120.65 66.7355L2005.18 66.7355V52.2502L2120.65 52.2502V66.7355Z" fill="#EC8D92" fill-opacity="0.501961"/>
<path fill-rule="evenodd" clip-rule="evenodd" d="M2046.25 74.5113L1930.79 74.5113V60.0262L2046.25 60.0262V74.5113Z" fill="#F0B3BB" fill-opacity="0.501961"/>
<path fill-rule="evenodd" clip-rule="evenodd" d="M2149.18 86.7157L2033.72 86.7157V72.2305L2149.18 72.2305V86.7157Z" fill="#F0B3BB" fill-opacity="0.501961"/>
<path fill-rule="evenodd" clip-rule="evenodd" d="M2230.99 79.7418L2135.96 79.7418V65.2575L2230.99 65.2575V79.7418Z" fill="#EC8D92" fill-opacity="0.501961"/>
<path fill-rule="evenodd" clip-rule="evenodd" d="M1722.85 67.207L1664.48 67.207V37.6342L1722.85 37.6342V67.207Z" fill="#FEFEFE" fill-opacity="0.501961"/>
<path fill-rule="evenodd" clip-rule="evenodd" d="M1771.09 53.2585L1712.72 53.2585V23.6857L1771.09 23.6857V53.2585Z" fill="#FEFEFE" fill-opacity="0.501961"/>
<path fill-rule="evenodd" clip-rule="evenodd" d="M1683.92 66.4673L1568.45 66.4673V51.9828L1683.92 51.9828V66.4673Z" fill="#FEFEFE" fill-opacity="0.501961"/>
<path fill-rule="evenodd" clip-rule="evenodd" d="M1910.04 66.0139L1794.57 66.0139V45.3394L1910.04 45.3394V66.0139Z" fill="#EC8D92" fill-opacity="0.501961"/>
<path fill-rule="evenodd" clip-rule="evenodd" d="M732.864 11.2341L2888 11.2341V-1.95809e-05L732.864 -1.95809e-05V11.2341Z" fill="url(#paint0_linear_120_2194)"/>
<path fill-rule="evenodd" clip-rule="evenodd" d="M1932.77 51.6776L1817.31 51.6776V34.7258L1932.77 34.7258V51.6776Z" fill="#F0B3BB" fill-opacity="0.501961"/>
<path fill-rule="evenodd" clip-rule="evenodd" d="M1994.18 43.2021L1878.72 43.2021V18.6401L1994.18 18.6401V43.2021Z" fill="#EC8D92" fill-opacity="0.501961"/>
<path fill-rule="evenodd" clip-rule="evenodd" d="M1844.9 79.9529L1729.44 79.9529V71.9944L1844.9 71.9944V79.9529Z" fill="#EC8D92" fill-opacity="0.501961"/>
<path d="M2942.9 57.171L2888 57.171V6.35406L2942.9 6.35406V57.171Z" fill="#F0B3BB"/>
<path fill-rule="evenodd" clip-rule="evenodd" d="M2996.7 57.171L2941.8 57.171V6.35329L2996.7 6.35329V57.171Z" fill="#EC8D92" fill-opacity="0.901961"/>
<path fill-rule="evenodd" clip-rule="evenodd" d="M3106.5 57.171L3051.6 57.171V6.35329L3106.5 6.35329V57.171Z" fill="#F0B3BB" fill-opacity="0.8"/>
<path fill-rule="evenodd" clip-rule="evenodd" d="M2996.7 57.171L3051.6 57.171V6.35329L2996.7 6.35329V57.171Z" fill="#EC8D92" fill-opacity="0.901961"/>
<path fill-rule="evenodd" clip-rule="evenodd" d="M3326.12 57.171L3271.21 57.171V6.35329L3326.12 6.35329V57.171Z" fill="#EC8D92" fill-opacity="0.501961"/>
<path fill-rule="evenodd" clip-rule="evenodd" d="M3216.31 57.171L3271.21 57.171V6.35329L3216.31 6.35329V57.171Z" fill="#EC8D92" fill-opacity="0.4"/>
<path fill-rule="evenodd" clip-rule="evenodd" d="M3106.5 57.171L3161.41 57.171V6.35329L3106.5 6.35329V57.171Z" fill="#EC8D92" fill-opacity="0.701961"/>
<path fill-rule="evenodd" clip-rule="evenodd" d="M3216.31 57.171L3161.41 57.171V6.35329L3216.31 6.35329V57.171Z" fill="#F0B3BB" fill-opacity="0.6"/>
<path fill-rule="evenodd" clip-rule="evenodd" d="M3326.12 57.171L3381.02 57.171V6.35329L3326.12 6.35329V57.171Z" fill="#F0B3BB" fill-opacity="0.6"/>
<path fill-rule="evenodd" clip-rule="evenodd" d="M3435.92 57.171L3381.02 57.171V6.35329L3435.92 6.35329V57.171Z" fill="#EC8D92" fill-opacity="0.701961"/>
<path fill-rule="evenodd" clip-rule="evenodd" d="M3552.62 57.171L3490.83 57.171V6.35329L3552.62 6.35329V57.171Z" fill="#F0B3BB" fill-opacity="0.901961"/>
<path fill-rule="evenodd" clip-rule="evenodd" d="M3435.92 57.171L3490.82 57.171V6.35329L3435.92 6.35329V57.171Z" fill="#F0B3BB" fill-opacity="0.8"/>
<path fill-rule="evenodd" clip-rule="evenodd" d="M3386.13 69.0853L3478.48 69.0853V55.1839L3386.13 55.1839V69.0853Z" fill="#F0B3BB" fill-opacity="0.501961"/>
<path fill-rule="evenodd" clip-rule="evenodd" d="M2926.44 32.3721L2973.12 32.3721V3.98948L2926.44 3.98948V32.3721Z" fill="#FEFEFE" fill-opacity="0.501961"/>
<path fill-rule="evenodd" clip-rule="evenodd" d="M2924.54 61.6234L3016.89 61.6234V39.5163L2924.54 39.5163V61.6234Z" fill="#FEFEFE" fill-opacity="0.501961"/>
<path fill-rule="evenodd" clip-rule="evenodd" d="M2996.7 35.1716L3089.05 35.1716V21.2702L2996.7 21.2702V35.1716Z" fill="#FEFEFE" fill-opacity="0.501961"/>
<path fill-rule="evenodd" clip-rule="evenodd" d="M3052.12 45.47L3144.47 45.47V31.5671L3052.12 31.5671V45.47Z" fill="#FEFEFE" fill-opacity="0.501961"/>
<path fill-rule="evenodd" clip-rule="evenodd" d="M2888 54.9626L2940.27 54.9626V26.5792L2888 26.5792V54.9626Z" fill="#FEFEFE" fill-opacity="0.501961"/>
<path fill-rule="evenodd" clip-rule="evenodd" d="M3131.07 35.4609L3177.75 35.4609V7.07829L3131.07 7.07829V35.4609Z" fill="#FEFEFE" fill-opacity="0.501961"/>
<path fill-rule="evenodd" clip-rule="evenodd" d="M3223.13 30.6989L3269.81 30.6989V2.31627L3223.13 2.31627V30.6989Z" fill="#FEFEFE" fill-opacity="0.501961"/>
<path fill-rule="evenodd" clip-rule="evenodd" d="M3446.45 54.5458L3493.14 54.5458V26.1624L3446.45 26.1624V54.5458Z" fill="#FEFEFE" fill-opacity="0.501961"/>
<path fill-rule="evenodd" clip-rule="evenodd" d="M3407.87 41.1589L3454.56 41.1589V12.7754L3407.87 12.7754V41.1589Z" fill="#FEFEFE" fill-opacity="0.501961"/>
<path fill-rule="evenodd" clip-rule="evenodd" d="M3481.77 31.9557L3528.45 31.9557V3.5731L3481.77 3.5731V31.9557Z" fill="#FEFEFE" fill-opacity="0.501961"/>
<path fill-rule="evenodd" clip-rule="evenodd" d="M3450.68 63.3234L3545.73 63.3234V49.4212L3450.68 49.4212V63.3234Z" fill="#FEFEFE" fill-opacity="0.501961"/>
<path fill-rule="evenodd" clip-rule="evenodd" d="M3068.85 76.0364L3161.2 76.0364V62.135L3068.85 62.135V76.0364Z" fill="#EC8D92" fill-opacity="0.501961"/>
<path fill-rule="evenodd" clip-rule="evenodd" d="M2971.25 61.6234L3063.6 61.6234V47.7203L2971.25 47.7203V61.6234Z" fill="#EC8D92" fill-opacity="0.501961"/>
<path fill-rule="evenodd" clip-rule="evenodd" d="M3030.75 69.0853L3123.1 69.0853V55.1839L3030.75 55.1839V69.0853Z" fill="#EC8D92" fill-opacity="0.501961"/>
<path fill-rule="evenodd" clip-rule="evenodd" d="M2948.43 80.7994L3040.78 80.7994V66.8963L2948.43 66.8963V80.7994Z" fill="#EC8D92" fill-opacity="0.501961"/>
<path fill-rule="evenodd" clip-rule="evenodd" d="M2888 74.1055L2964.01 74.1055V60.2041L2888 60.2041V74.1055Z" fill="#EC8D92" fill-opacity="0.501961"/>
<path fill-rule="evenodd" clip-rule="evenodd" d="M3310.4 78.9814L3402.75 78.9814V65.08L3310.4 65.08V78.9814Z" fill="#F0B3BB" fill-opacity="0.501961"/>
<path fill-rule="evenodd" clip-rule="evenodd" d="M3182.36 79.6726L3274.71 79.6726V65.771L3182.36 65.771V79.6726Z" fill="#F0B3BB" fill-opacity="0.501961"/>
<path fill-rule="evenodd" clip-rule="evenodd" d="M3242.4 73.8154H3296.39V59.9139L3242.4 59.9139V73.8154Z" fill="#F0B3BB" fill-opacity="0.501961"/>
<path fill-rule="evenodd" clip-rule="evenodd" d="M3289.42 62.0759L3336.1 62.0759V33.6925L3289.42 33.6925V62.0759Z" fill="#FEFEFE" fill-opacity="0.501961"/>
<path fill-rule="evenodd" clip-rule="evenodd" d="M3250.84 48.6885L3297.52 48.6885V20.3058L3250.84 20.3058V48.6885Z" fill="#FEFEFE" fill-opacity="0.501961"/>
<path fill-rule="evenodd" clip-rule="evenodd" d="M3320.55 61.3663L3412.9 61.3663V47.4639L3320.55 47.4639V61.3663Z" fill="#FEFEFE" fill-opacity="0.501961"/>
<path fill-rule="evenodd" clip-rule="evenodd" d="M3139.7 60.9299L3232.05 60.9299V41.0878L3139.7 41.0878V60.9299Z" fill="#F0B3BB" fill-opacity="0.501961"/>
<path d="M3618.52 62.0965L3549.87 62.0965V9.14807L3618.52 9.14807V62.0965Z" fill="#EC8D92"/>
<path fill-rule="evenodd" clip-rule="evenodd" d="M3687.17 62.097L3618.52 62.097V9.14786L3687.17 9.14786V62.097Z" fill="#EC8D92" fill-opacity="0.901961"/>
<path fill-rule="evenodd" clip-rule="evenodd" d="M3824.46 62.097L3755.81 62.097V9.14786L3824.46 9.14786V62.097Z" fill="#F0B3BB" fill-opacity="0.8"/>
<path fill-rule="evenodd" clip-rule="evenodd" d="M3687.17 62.097L3755.81 62.097V9.14786L3687.17 9.14786V62.097Z" fill="#EC8D92" fill-opacity="0.901961"/>
<path fill-rule="evenodd" clip-rule="evenodd" d="M3824.46 62.097L3893.1 62.097V9.14786L3824.46 9.14786V62.097Z" fill="#F0B3BB" fill-opacity="0.701961"/>
<path fill-rule="evenodd" clip-rule="evenodd" d="M3599.32 36.2581L3657.69 36.2581V6.68449L3599.32 6.68449V36.2581Z" fill="#FEFEFE" fill-opacity="0.501961"/>
<path fill-rule="evenodd" clip-rule="evenodd" d="M3596.94 66.7355L3712.41 66.7355V43.7019L3596.94 43.7019V66.7355Z" fill="#FEFEFE" fill-opacity="0.501961"/>
<path fill-rule="evenodd" clip-rule="evenodd" d="M3687.17 39.1749L3802.63 39.1749V24.6899L3687.17 24.6899V39.1749Z" fill="#FEFEFE" fill-opacity="0.501961"/>
<path fill-rule="evenodd" clip-rule="evenodd" d="M3756.46 49.9045L3871.93 49.9045V35.4194L3756.46 35.4194V49.9045Z" fill="#FEFEFE" fill-opacity="0.501961"/>
<path fill-rule="evenodd" clip-rule="evenodd" d="M3549.87 59.7953L3615.22 59.7953V30.2217L3549.87 30.2217V59.7953Z" fill="#FEFEFE" fill-opacity="0.501961"/>
<path fill-rule="evenodd" clip-rule="evenodd" d="M3655.35 66.7355L3770.82 66.7355V52.2502L3655.35 52.2502V66.7355Z" fill="#EC8D92" fill-opacity="0.501961"/>
<path fill-rule="evenodd" clip-rule="evenodd" d="M3729.75 74.5113L3845.21 74.5113V60.0262L3729.75 60.0262V74.5113Z" fill="#F0B3BB" fill-opacity="0.501961"/>
<path fill-rule="evenodd" clip-rule="evenodd" d="M3626.82 86.7157L3742.28 86.7157V72.2305L3626.82 72.2305V86.7157Z" fill="#F0B3BB" fill-opacity="0.501961"/>
<path fill-rule="evenodd" clip-rule="evenodd" d="M3545.01 79.7418L3640.04 79.7418V65.2575L3545.01 65.2575V79.7418Z" fill="#EC8D92" fill-opacity="0.501961"/>
<path fill-rule="evenodd" clip-rule="evenodd" d="M5043.14 11.2341L2888 11.2341V-1.95809e-05L5043.14 -1.95809e-05V11.2341Z" fill="url(#paint1_linear_120_2194)"/>
<path fill-rule="evenodd" clip-rule="evenodd" d="M3781.82 43.2021L3897.28 43.2021V18.6401L3781.82 18.6401V43.2021Z" fill="#EC8D92" fill-opacity="0.501961"/>
<path d="M122.338 54.855L67.4355 54.855V4.03808L122.338 4.03808V54.855Z" fill="#EC8D92"/>
<path fill-rule="evenodd" clip-rule="evenodd" d="M177.242 54.855L122.338 54.855V4.03808L177.242 4.03808V54.855Z" fill="#F0B3BB" fill-opacity="0.901961"/>
<path fill-rule="evenodd" clip-rule="evenodd" d="M287.047 54.855L232.145 54.855V4.03808L287.047 4.03808V54.855Z" fill="#EC8D92" fill-opacity="0.8"/>
<path fill-rule="evenodd" clip-rule="evenodd" d="M177.242 54.855L232.144 54.855V4.03808L177.242 4.03808V54.855Z" fill="#EC8D92" fill-opacity="0.901961"/>
<path fill-rule="evenodd" clip-rule="evenodd" d="M506.659 54.855L451.756 54.855V4.03808L506.659 4.03808V54.855Z" fill="#EC8D92" fill-opacity="0.501961"/>
<path fill-rule="evenodd" clip-rule="evenodd" d="M396.853 54.855L451.755 54.855V4.03808L396.853 4.03808V54.855Z" fill="#F0B3BB" fill-opacity="0.4"/>
<path fill-rule="evenodd" clip-rule="evenodd" d="M287.047 54.855L341.95 54.855V4.03808L287.047 4.03808V54.855Z" fill="#F0B3BB" fill-opacity="0.701961"/>
<path fill-rule="evenodd" clip-rule="evenodd" d="M396.854 54.855L341.95 54.855V4.03808L396.854 4.03808V54.855Z" fill="#EC8D92" fill-opacity="0.6"/>
<path fill-rule="evenodd" clip-rule="evenodd" d="M506.66 54.855L561.563 54.855V4.03808L506.66 4.03808V54.855Z" fill="#F0B3BB" fill-opacity="0.6"/>
<path fill-rule="evenodd" clip-rule="evenodd" d="M616.464 54.855L561.562 54.855V4.03808L616.464 4.03808V54.855Z" fill="#EC8D92" fill-opacity="0.701961"/>
<path fill-rule="evenodd" clip-rule="evenodd" d="M733.159 54.855L671.367 54.855V4.03808L733.159 4.03808V54.855Z" fill="#EC8D92" fill-opacity="0.901961"/>
<path fill-rule="evenodd" clip-rule="evenodd" d="M616.465 54.855L671.368 54.855V4.03808L616.465 4.03808V54.855Z" fill="#EC8D92" fill-opacity="0.8"/>
<path fill-rule="evenodd" clip-rule="evenodd" d="M106.983 30.0564L153.665 30.0564V1.6736L106.983 1.6736V30.0564Z" fill="#FEFEFE" fill-opacity="0.501961"/>
<path fill-rule="evenodd" clip-rule="evenodd" d="M105.082 59.3073L197.432 59.3073V37.2001L105.082 37.2001V59.3073Z" fill="#FEFEFE" fill-opacity="0.501961"/>
<path fill-rule="evenodd" clip-rule="evenodd" d="M177.242 32.8557L269.592 32.8557V18.9541L177.242 18.9541V32.8557Z" fill="#FEFEFE" fill-opacity="0.501961"/>
<path fill-rule="evenodd" clip-rule="evenodd" d="M232.668 43.1541L325.017 43.1541V29.251L232.668 29.251V43.1541Z" fill="#FEFEFE" fill-opacity="0.501961"/>
<path fill-rule="evenodd" clip-rule="evenodd" d="M67.4355 52.6466L119.703 52.6466V24.264L67.4355 24.264V52.6466Z" fill="#FEFEFE" fill-opacity="0.501961"/>
<path fill-rule="evenodd" clip-rule="evenodd" d="M311.608 33.1449L358.29 33.1449V4.76302L311.608 4.76302V33.1449Z" fill="#FEFEFE" fill-opacity="0.501961"/>
<path fill-rule="evenodd" clip-rule="evenodd" d="M403.67 28.3829L450.351 28.3829V0.000136188L403.67 0.000136188V28.3829Z" fill="#FEFEFE" fill-opacity="0.501961"/>
<path fill-rule="evenodd" clip-rule="evenodd" d="M626.997 52.2299L673.678 52.2299V23.8472L626.997 23.8472V52.2299Z" fill="#FEFEFE" fill-opacity="0.501961"/>
<path fill-rule="evenodd" clip-rule="evenodd" d="M588.417 38.8431L635.098 38.8431V10.4596L588.417 10.4596V38.8431Z" fill="#FEFEFE" fill-opacity="0.501961"/>
<path fill-rule="evenodd" clip-rule="evenodd" d="M662.317 29.6398L708.998 29.6398V1.25712L662.317 1.25712V29.6398Z" fill="#FEFEFE" fill-opacity="0.501961"/>
<path fill-rule="evenodd" clip-rule="evenodd" d="M631.224 61.0074L726.27 61.0074V47.1051L631.224 47.1051V61.0074Z" fill="#FEFEFE" fill-opacity="0.501961"/>
<path fill-rule="evenodd" clip-rule="evenodd" d="M267.964 77.3637L360.314 77.3637V63.4623L267.964 63.4623V77.3637Z" fill="#F0B3BB" fill-opacity="0.501961"/>
<path fill-rule="evenodd" clip-rule="evenodd" d="M151.797 59.3073L244.146 59.3073V45.4057L151.797 45.4057V59.3073Z" fill="#F0B3BB" fill-opacity="0.501961"/>
<path fill-rule="evenodd" clip-rule="evenodd" d="M211.297 66.7694L303.646 66.7694V52.868L211.297 52.868V66.7694Z" fill="#EC8D92" fill-opacity="0.501961"/>
<path fill-rule="evenodd" clip-rule="evenodd" d="M128.975 78.4833L221.323 78.4833V64.581L128.975 64.581V78.4833Z" fill="#F0B3BB" fill-opacity="0.501961"/>
<path fill-rule="evenodd" clip-rule="evenodd" d="M63.543 71.7898L139.549 71.7898V57.8884L63.543 57.8884V71.7898Z" fill="#F0B3BB" fill-opacity="0.501961"/>
<path fill-rule="evenodd" clip-rule="evenodd" d="M362.9 77.3567L455.251 77.3567V63.4553L362.9 63.4553V77.3567Z" fill="#F0B3BB" fill-opacity="0.501961"/>
<path fill-rule="evenodd" clip-rule="evenodd" d="M422.943 71.4993H476.929V57.5979L422.943 57.5979V71.4993Z" fill="#EC8D92" fill-opacity="0.501961"/>
<path fill-rule="evenodd" clip-rule="evenodd" d="M469.958 59.7601L516.64 59.7601V31.3767L469.958 31.3767V59.7601Z" fill="#FEFEFE" fill-opacity="0.501961"/>
<path fill-rule="evenodd" clip-rule="evenodd" d="M431.38 46.3726L478.061 46.3726V17.9899L431.38 17.9899V46.3726Z" fill="#FEFEFE" fill-opacity="0.501961"/>
<path fill-rule="evenodd" clip-rule="evenodd" d="M501.098 59.0498L593.447 59.0498V45.1484L501.098 45.1484V59.0498Z" fill="#FEFEFE" fill-opacity="0.501961"/>
<path fill-rule="evenodd" clip-rule="evenodd" d="M320.246 58.614L412.595 58.614V38.7719L320.246 38.7719V58.614Z" fill="#EC8D92" fill-opacity="0.501961"/>
<path fill-rule="evenodd" clip-rule="evenodd" d="M72.2332 62.097L-5.02539 62.097L-5.02539 9.14786L72.2332 9.14786V62.097Z" fill="#EC8D92" fill-opacity="0.901961"/>
<path fill-rule="evenodd" clip-rule="evenodd" d="M-16.3428 35.8242L42.023 35.8242L42.023 6.25049L-16.3428 6.25049L-16.3428 35.8242Z" fill="#FEFEFE" fill-opacity="0.501961"/>
<path fill-rule="evenodd" clip-rule="evenodd" d="M-55.2188 68.5071L63.6195 68.5071V54.0219L-55.2188 54.0219V68.5071Z" fill="#FEFEFE" fill-opacity="0.501961"/>
<path fill-rule="evenodd" clip-rule="evenodd" d="M733.136 11.2341L-1422 11.2341V-1.95809e-05L733.136 -1.95809e-05V11.2341Z" fill="url(#paint2_linear_120_2194)"/>
</g>
<defs>
<linearGradient id="paint0_linear_120_2194" x1="2888" y1="5.61663" x2="732.863" y2="5.61663" gradientUnits="userSpaceOnUse">
<stop stop-color="#EBECEC"/>
<stop offset="0.0784314" stop-color="#D9DADA"/>
<stop offset="0.160784" stop-color="#EBECEC"/>
<stop offset="0.270588" stop-color="#D9DADA"/>
<stop offset="0.411765" stop-color="#EBECEC"/>
<stop offset="0.541176" stop-color="#D9DADA"/>
<stop offset="0.701961" stop-color="#EBECEC"/>
<stop offset="0.870588" stop-color="#EBECEC"/>
<stop offset="1" stop-color="#EBECEC"/>
</linearGradient>
<linearGradient id="paint1_linear_120_2194" x1="2888" y1="5.61663" x2="5043.14" y2="5.61663" gradientUnits="userSpaceOnUse">
<stop stop-color="#EBECEC"/>
<stop offset="0.0784314" stop-color="#D9DADA"/>
<stop offset="0.160784" stop-color="#EBECEC"/>
<stop offset="0.270588" stop-color="#D9DADA"/>
<stop offset="0.411765" stop-color="#EBECEC"/>
<stop offset="0.541176" stop-color="#D9DADA"/>
<stop offset="0.701961" stop-color="#EBECEC"/>
<stop offset="0.870588" stop-color="#EBECEC"/>
<stop offset="1" stop-color="#EBECEC"/>
</linearGradient>
<linearGradient id="paint2_linear_120_2194" x1="-1422" y1="5.61663" x2="733.137" y2="5.61663" gradientUnits="userSpaceOnUse">
<stop stop-color="#EBECEC"/>
<stop offset="0.0784314" stop-color="#D9DADA"/>
<stop offset="0.160784" stop-color="#EBECEC"/>
<stop offset="0.270588" stop-color="#D9DADA"/>
<stop offset="0.411765" stop-color="#EBECEC"/>
<stop offset="0.541176" stop-color="#D9DADA"/>
<stop offset="0.701961" stop-color="#EBECEC"/>
<stop offset="0.870588" stop-color="#EBECEC"/>
<stop offset="1" stop-color="#EBECEC"/>
</linearGradient>
<clipPath id="clip0_120_2194">
<rect width="3840" height="95" fill="white"/>
</clipPath>
</defs>
</svg>
