<svg width="318" height="135" viewBox="0 0 318 135" fill="none" xmlns="http://www.w3.org/2000/svg">
<path d="M1.24604 111.288L6.40307 95.9099H8.35742L13.832 111.288H11.8068L10.2522 106.627H4.59132L3.13329 111.288H1.24604ZM94.9715 33.0051V30.7211H95.4241L95.9642 32.3376C96.0147 32.4877 96.0517 32.6 96.0751 32.6762C96.0999 32.5933 96.1414 32.4718 96.1942 32.3104L96.7411 30.7211H97.1477V33.0051H96.855V31.0945L96.1935 33.0051H95.9197L95.2597 31.0621V33.0051H94.9701H94.9715ZM93.6124 33.0051V30.9904H92.8611V30.7211H94.6706V30.9904H93.9171V33.0051H93.6124ZM23.1006 41.8966H18.0469L20.5255 35.5251L23.1006 41.8966ZM29.985 48.5041L29.982 48.5018C29.9133 48.2838 29.8001 47.9957 29.6538 47.6465L23.3284 32.726C23.2017 32.4198 23.0591 32.0939 22.9053 31.7394C22.7167 31.3117 22.5236 31.004 22.344 30.8245C22.1321 30.5899 21.8591 30.4013 21.5325 30.2633C20.8355 29.9729 20.0284 30.0174 19.4793 30.2769C19.1806 30.4194 18.9181 30.6238 18.7016 30.8878C18.5108 31.1224 18.3388 31.4128 18.1887 31.7522C18.0575 32.0464 17.9194 32.3851 17.7769 32.7569L11.6679 47.7551C11.5322 48.0794 11.4334 48.3419 11.367 48.5531C11.281 48.8178 11.2381 49.0841 11.2381 49.3519C11.2381 49.8044 11.4213 50.2208 11.7834 50.5912C12.1439 50.963 12.6221 51.1591 13.1652 51.1591C14.0319 51.1591 14.4618 50.7707 14.6738 50.4411C14.8714 50.1326 15.072 49.7079 15.2878 49.1497L16.7842 45.3233H24.4387L25.9857 49.1037C26.2173 49.6807 26.4247 50.1129 26.6178 50.4214C26.8252 50.7571 27.2575 51.1591 28.1309 51.1591C28.7215 51.1591 29.2276 50.9404 29.5912 50.524C29.9359 50.1311 30.1101 49.717 30.1101 49.2983C30.1101 49.0343 30.0671 48.7673 29.9842 48.5026L29.985 48.5041ZM121.433 30.4707C121.307 30.2965 121.109 30.172 120.838 30.0936C120.567 30.0159 120.199 29.9767 119.732 29.9767C119.638 29.9767 119.549 29.9767 119.461 29.9789C119.459 29.9789 119.456 29.9767 119.453 29.9767C118.997 29.9767 118.657 29.9925 118.409 30.0219C118.12 30.0596 117.875 30.1509 117.681 30.3002C117.488 30.4473 117.33 30.6744 117.206 30.9738C117.098 31.234 116.966 31.6014 116.815 32.0683C116.358 33.4403 112.86 43.9512 111.821 47.1162C110.753 43.8192 107.064 32.5322 106.882 31.98C106.723 31.5154 106.584 31.1662 106.455 30.9089C106.307 30.6193 106.118 30.4006 105.896 30.2557C105.673 30.1132 105.401 30.0279 105.089 30.0053C104.819 29.9872 104.461 29.9759 104.017 29.9759L104.015 29.9782C103.983 29.9759 103.96 29.9759 103.928 29.9759C103.753 29.9759 103.546 29.9895 103.303 30.0189C103.061 30.0491 102.829 30.1343 102.606 30.2806C102.383 30.4262 102.199 30.6532 102.054 30.964C101.909 31.274 101.836 31.7175 101.836 32.2998V49.0939C101.836 49.3262 101.845 49.5653 101.866 49.8067C101.885 50.0481 101.937 50.2668 102.025 50.4599C102.112 50.6553 102.247 50.8144 102.431 50.9404C102.615 51.0649 102.864 51.129 103.171 51.129C103.502 51.129 103.758 51.0558 103.944 50.911C104.128 50.7662 104.261 50.5866 104.348 50.3732C104.436 50.1612 104.484 49.9342 104.496 49.6898C104.504 49.4484 104.509 49.241 104.509 49.0668V33.0843L109.855 48.9197C110.03 49.4047 110.179 49.7939 110.306 50.0828C110.433 50.3732 110.562 50.5957 110.697 50.7526C110.832 50.9065 110.989 51.0075 111.164 51.0558C111.339 51.1041 111.56 51.129 111.831 51.129C112.084 51.129 112.293 51.0943 112.456 51.0279C112.622 50.9585 112.766 50.8393 112.891 50.6643C113.017 50.4901 113.135 50.2615 113.24 49.9817C113.348 49.6988 113.477 49.3466 113.633 48.9189L119.036 33.3762V49.4711C119.036 49.5487 119.041 49.68 119.051 49.864C119.062 50.0473 119.11 50.2321 119.198 50.4154C119.284 50.5995 119.421 50.7654 119.604 50.9102C119.788 51.055 120.043 51.1282 120.374 51.1282C120.703 51.1282 120.954 51.055 121.129 50.9102C121.303 50.7654 121.434 50.5904 121.522 50.386C121.608 50.1839 121.662 49.9855 121.68 49.7931C121.699 49.597 121.71 49.453 121.71 49.3564V32.2998C121.71 31.8563 121.696 31.4814 121.666 31.1805C121.637 30.8818 121.558 30.6449 121.434 30.47L121.433 30.4707ZM202.014 42.3257C200.213 41.7465 199.032 41.263 199.032 39.8834C199.032 38.9337 199.676 37.9132 201.088 37.9132C202.295 37.9132 203.154 38.6992 203.355 39.4353C203.537 40.1368 204.09 40.385 204.546 40.385C205.222 40.385 205.773 39.8336 205.773 39.1578C205.773 37.134 203.672 35.4904 201.088 35.4904C198.434 35.4904 196.431 37.3784 196.431 39.8841C196.431 42.9971 198.74 43.7672 200.593 44.3857C202.143 44.9099 203.172 45.533 203.172 46.8582C203.172 47.7988 202.433 48.7982 201.06 48.7982C199.338 48.7982 198.777 47.4715 198.646 47.0649C198.469 46.4992 197.92 46.242 197.484 46.242C196.809 46.242 196.259 46.7911 196.259 47.4692C196.259 49.4839 198.5 51.2519 201.059 51.2519C203.706 51.2519 205.86 49.2531 205.86 46.8001C205.86 43.829 203.665 42.8243 202.014 42.3257ZM192.125 30.0272C191.37 30.0272 190.78 30.6185 190.78 31.3698V49.821C190.78 50.6032 191.357 51.1938 192.125 51.1938C192.864 51.1938 193.467 50.5776 193.467 49.821V31.3698C193.467 30.6299 192.864 30.0272 192.125 30.0272ZM179.479 48.7409C176.598 48.7409 174.342 46.3815 174.342 43.3704C174.342 40.3601 176.598 38.0037 179.479 38.0037C182.28 38.0037 184.475 40.213 184.588 43.1374V43.5997C184.472 46.5316 182.277 48.7409 179.479 48.7409ZM185.93 35.5478C185.19 35.5478 184.588 36.1504 184.588 36.8904V37.5625C183.153 36.2221 181.304 35.4904 179.333 35.4904C175.011 35.4904 171.626 38.9503 171.626 43.3704C171.626 47.7913 175.011 51.2527 179.333 51.2527C181.327 51.2527 183.176 50.521 184.588 49.1859V49.8225C184.588 50.5791 185.19 51.1953 185.93 51.1953C186.697 51.1953 187.273 50.604 187.273 49.8225V36.8919C187.273 36.1406 186.682 35.5493 185.93 35.5493V35.5478ZM170.057 35.4904C166.368 35.4904 163.89 38.0837 163.89 41.9471V49.8218C163.89 50.604 164.467 51.1946 165.233 51.1946C165.975 51.1946 166.578 50.5783 166.578 49.8218V41.9471C166.578 39.4776 167.88 38.0037 170.057 38.0037C170.737 38.0037 171.314 37.4267 171.314 36.7463C171.314 36.0539 170.748 35.4904 170.057 35.4904ZM160.294 46.4743C159.813 46.4743 159.507 46.7504 159.172 47.0581C158.491 47.826 157.293 48.7417 155.442 48.7417C152.561 48.7417 150.306 46.3823 150.306 43.3712C150.306 40.3608 152.561 38.0045 155.442 38.0045C156.387 38.0045 157.318 38.2896 157.974 38.7769L153.57 43.9708C153.359 44.1828 153.256 44.4611 153.256 44.8262C153.256 45.5367 153.796 46.0519 154.541 46.0519C154.918 46.0519 155.229 45.9093 155.493 45.6099L160.662 39.4248C160.958 39.0989 161.087 38.8017 161.087 38.4321C161.087 38.055 160.906 37.6756 160.593 37.3973C159.277 36.1851 157.401 35.4912 155.442 35.4912C151.039 35.4912 147.59 38.9511 147.59 43.3712C147.59 47.792 151.039 51.2534 155.442 51.2534C157.748 51.2534 159.863 50.3083 161.246 48.6647C161.48 48.3955 161.639 48.0319 161.639 47.7603C161.639 47.0272 161.059 46.4743 160.294 46.4743ZM138.466 35.4904C134.614 35.4904 131.923 38.3258 131.923 42.3838V49.8218C131.923 50.604 132.5 51.1946 133.266 51.1946C134.006 51.1946 134.611 50.5783 134.611 49.8218V42.3265C134.611 39.7008 136.124 38.0037 138.466 38.0037C140.828 38.0037 142.355 39.7008 142.355 42.3265V49.8218C142.355 50.604 142.932 51.1946 143.697 51.1946C144.437 51.1946 145.04 50.5783 145.04 49.8218V42.3838C145.04 38.3258 142.338 35.4904 138.466 35.4904ZM127.278 30.7241C126.363 30.7241 125.643 31.4415 125.643 32.3587C125.643 33.2578 126.377 33.9917 127.278 33.9917C128.163 33.9917 128.913 33.2442 128.913 32.3587C128.913 31.4573 128.18 30.7241 127.278 30.7241ZM127.278 35.5478C126.524 35.5478 125.936 36.1391 125.936 36.8904V49.821C125.936 50.6032 126.513 51.1938 127.278 51.1938C128.018 51.1938 128.621 50.5776 128.621 49.821V36.8904C128.621 36.1504 128.018 35.5478 127.278 35.5478ZM84.4818 42.4985C84.4818 38.4012 87.4152 35.67 91.1654 35.67C94.9135 35.67 97.8476 38.4012 97.8476 42.4985V49.0381C97.8476 50.1718 96.9463 51.0701 95.8156 51.0701C94.6819 51.0701 93.7805 50.1718 93.7805 49.0381V42.3544C93.7805 40.4664 92.6189 39.4482 91.1662 39.4482C89.7134 39.4482 88.5496 40.4672 88.5496 42.3544V49.0381C88.5496 50.1718 87.6482 51.0701 86.5168 51.0701C85.3839 51.0701 84.4825 50.1718 84.4825 49.0381L84.4818 42.4985ZM77.4511 43.3704C77.4511 41.2501 75.941 39.4474 73.8207 39.4474C71.6982 39.4474 70.158 41.2501 70.158 43.3704C70.158 45.4922 71.6989 47.295 73.8207 47.295C75.941 47.295 77.4511 45.4922 77.4511 43.3704ZM66.06 43.3704C66.06 39.071 69.3132 35.67 73.82 35.67C78.3215 35.67 81.577 39.071 81.577 43.3704C81.577 47.6721 78.3215 51.0701 73.82 51.0701C69.3132 51.0701 66.06 47.6721 66.06 43.3704ZM59.0866 37.705C59.0866 36.5713 59.988 35.67 61.121 35.67C62.2546 35.67 63.156 36.5713 63.156 37.705V49.0373C63.156 50.171 62.2546 51.0694 61.121 51.0694C59.988 51.0694 59.0866 50.171 59.0866 49.0373V37.705ZM58.797 31.894C58.797 30.6133 59.8432 29.5671 61.121 29.5671C62.3995 29.5671 63.4456 30.6133 63.4456 31.894C63.4456 33.1703 62.3995 34.2187 61.121 34.2187C59.8432 34.2187 58.797 33.1703 58.797 31.894ZM52.0846 43.3697C52.0846 41.1317 50.4871 39.4467 48.4241 39.4467C46.4192 39.4467 44.8488 41.0744 44.7915 43.2248V43.5439C44.8488 45.7238 46.4192 47.2942 48.4241 47.2942C50.4871 47.2942 52.0846 45.637 52.0846 43.3697ZM44.7047 49.6189C44.4724 50.4607 43.688 51.0694 42.7594 51.0694C41.6257 51.0694 40.7244 50.171 40.7244 49.0373V32.1844C40.7244 31.0507 41.6257 30.1494 42.7594 30.1494C43.8901 30.1494 44.7915 31.0507 44.7915 32.1844V37.0654C45.9546 36.1934 47.4081 35.6692 49.0064 35.6692C53.1037 35.6692 56.1819 39.0703 56.1819 43.3697C56.1819 47.6713 53.1037 51.0694 49.0064 51.0694C47.3787 51.0694 45.8957 50.5474 44.7047 49.6189ZM32.5668 32.1837C32.5668 31.05 33.4682 30.1486 34.6019 30.1486C35.7326 30.1486 36.6339 31.05 36.6339 32.1837V49.0366C36.6339 50.1703 35.7326 51.0686 34.6019 51.0686C33.4682 51.0686 32.5668 50.1703 32.5668 49.0366V32.1837ZM48.0432 85.2617V85.2383H47.783C47.6676 85.227 47.5552 85.2134 47.4405 85.1976V85.1931H47.4194C47.3342 85.1818 47.2497 85.1652 47.1622 85.1516V85.1471H47.141C47.0875 85.138 47.0332 85.1259 46.9774 85.1146V85.101H46.908L46.7903 85.0762V85.055H46.7036L46.607 85.0302V85.009H46.5203L46.4207 84.9819V84.9608H46.3499L46.2352 84.9283V84.9147H46.1937C46.1477 84.9012 46.1017 84.8876 46.0557 84.871L31.5041 80.1439L29.6508 79.542L14.9657 74.7712L13.1124 74.1685L5.80723 71.7955C5.64657 71.7427 5.48509 71.6854 5.32895 71.6236V71.6205H5.31997C5.2468 71.5911 5.17062 71.5587 5.0967 71.5293V71.5262C4.80932 71.4048 4.53173 71.269 4.26471 71.1174V71.1099H4.25337C4.09949 71.0231 3.94788 70.9304 3.8008 70.8338V70.8316H3.7963C3.75256 70.8014 3.70651 70.772 3.66276 70.7418V70.7395H3.65753C3.54967 70.6664 3.44179 70.5879 3.3377 70.5102V70.508H3.33313C3.25695 70.4506 3.18155 70.3903 3.10537 70.3277V70.3209H3.09631C3.00655 70.2477 2.91451 70.1708 2.82701 70.0931V70.0908H2.8248C2.5789 69.8744 2.34885 69.6443 2.13313 69.4007V69.3939H2.12554L2.08635 69.3479C2.00565 69.2581 1.93021 69.1661 1.85403 69.0741V69.0695H1.85175C1.6149 68.7769 1.39921 68.4691 1.20611 68.1448V68.1425H1.20383C1.14122 68.0392 1.07934 67.9306 1.01975 67.8227V67.8174H1.01754C0.936835 67.6704 0.861369 67.5187 0.789712 67.3626V67.3551H0.784409C0.601118 66.9598 0.446502 66.548 0.325063 66.1256V66.1045H0.319833C0.269296 65.9272 0.223247 65.7462 0.186287 65.5637V65.5478H0.181794C0.167462 65.4769 0.151616 65.4052 0.138039 65.3321V65.3155H0.135756C0.119162 65.2287 0.105579 65.1413 0.0920017 65.0515V65.0402H0.0897182C0.073124 64.9225 0.0595411 64.8056 0.045964 64.6887V64.6676H0.0437542C0.0166001 64.387 0 64.1018 0 63.8145V21.4691C0 21.1817 0.0166001 20.8943 0.0437542 20.6115H0.045964V20.5979C0.0595411 20.4787 0.0731447 20.3588 0.0920017 20.2419V20.2328C0.105579 20.1431 0.119182 20.0533 0.138039 19.9636V19.9523C0.151616 19.8791 0.167409 19.8052 0.184003 19.732H0.186287V19.7207C0.22551 19.5389 0.269296 19.3549 0.319833 19.1753H0.325063V19.1618C0.39144 18.9317 0.46766 18.7039 0.552894 18.4806H0.557387V18.4693C0.62829 18.286 0.704475 18.1043 0.786692 17.9247H0.789712V17.9217L0.830446 17.8327H0.83575V17.8252C0.878744 17.7332 0.924758 17.6434 0.970769 17.5536H0.972979V17.5491C1.18644 17.1448 1.43311 16.7609 1.71069 16.3951H1.71599V16.3898C1.84724 16.2178 1.98448 16.0496 2.13232 15.8867V15.8844L2.17305 15.8407H2.17836V15.8339C2.35259 15.6423 2.5344 15.459 2.72749 15.284H2.73427V15.2772L2.77802 15.238H2.78023V15.2357C2.88583 15.1414 2.99373 15.0494 3.10235 14.9597H3.10537V14.9574C3.46592 14.6647 3.85287 14.403 4.26169 14.1714H4.26397L4.34463 14.1254H4.35598V14.1179C4.53323 14.0213 4.71201 13.9316 4.89907 13.8463H4.91263V13.8396L4.9994 13.8003H5.00463V13.7981C5.15171 13.734 5.30336 13.6714 5.45572 13.6148H5.46928V13.6118C5.5794 13.5688 5.69258 13.5288 5.80723 13.4926L17.9768 9.53789L32.6619 4.76706L46.0549 0.417118C46.1583 0.382421 46.2646 0.349987 46.3702 0.32057H46.3748V0.318307C46.4298 0.301713 46.4856 0.288135 46.5406 0.274558H46.5595V0.267016C46.9849 0.159153 47.4096 0.0837252 47.838 0.0414855H47.8584V0.0392226C48.1352 0.0120685 48.4105 0 48.6866 0C48.9506 0.00226284 49.2176 0.0135771 49.4801 0.0407312H49.4846C49.6061 0.0520454 49.729 0.0686396 49.8504 0.0844795V0.0867424H49.8663C49.9537 0.100319 50.0413 0.114651 50.128 0.128228V0.132754H50.1514C50.2208 0.146331 50.2917 0.159908 50.3611 0.174239V0.178765H50.3883C50.4577 0.194605 50.524 0.208936 50.5904 0.224776H50.5957C50.6553 0.240616 50.7171 0.254193 50.7774 0.270787V0.27305H50.7797C50.8876 0.300204 50.9955 0.330375 51.1018 0.362809V0.365072H51.1093C51.2474 0.405803 51.3831 0.451815 51.5182 0.502351H51.5235C51.6796 0.559677 51.8319 0.620019 51.9835 0.686396V0.688659H51.9903C52.2732 0.810098 52.5493 0.948886 52.8163 1.10276V1.10502H52.8231C53.1587 1.29812 53.4808 1.5146 53.7915 1.75069V1.7537H53.7938C53.8692 1.81329 53.9477 1.87514 54.0217 1.93699V1.93926H54.0239C54.1664 2.05693 54.3045 2.18138 54.4403 2.31036L54.4862 2.35336V2.35562H54.4885C54.5345 2.40163 54.5805 2.44538 54.6243 2.49139V2.49592H54.6288L54.6703 2.53967V2.54193H54.6748L54.7186 2.58794C54.8445 2.72145 54.969 2.85948 55.0889 3.00204V3.0043H55.0912C55.153 3.07973 55.2126 3.1544 55.273 3.22983V3.23738H55.2805C55.3378 3.3128 55.3959 3.38823 55.4532 3.46668L62.4538 13.1056L66.763 19.035L72.4283 26.8321H67.8235L59.3989 15.2365L55.46 9.81546L52.4391 5.65862C51.54 4.42084 50.128 3.72917 48.6609 3.72917C48.1782 3.72917 47.6909 3.80233 47.2104 3.95847L38.7384 6.71084H38.7354L36.8844 7.31351H36.8821L24.0495 11.4839L11.2177 15.6521L6.96355 17.0347C5.02957 17.6623 3.73296 19.4507 3.73296 21.4812V63.8016C3.73296 65.8322 5.02957 67.6191 6.96355 68.2459L47.2097 81.3244C49.1437 81.9542 51.2429 81.2693 52.4384 79.625L63.1024 64.9436H63.1047L67.1725 59.3454H71.7781L70.0991 61.6557L61.8541 73.0046L55.4532 81.8154C55.3982 81.8916 55.3401 81.9655 55.2828 82.0387H55.2737V82.05C55.2307 82.1096 55.1824 82.1677 55.1364 82.225L55.0972 82.271H55.0897V82.28L55.0572 82.317H55.0437V82.3351C54.9547 82.4384 54.8619 82.5425 54.7676 82.6413H54.7653V82.6459L54.7239 82.6873H54.7194V82.6941L54.6801 82.7334H54.6719V82.7417L54.6349 82.7794H54.6258V82.7877L54.5888 82.8269H54.5798V82.8352L54.5428 82.8729H54.5338V82.8812L54.4945 82.9182H54.487V82.9257L54.4463 82.9649H54.441V82.9725L54.398 83.0117H54.395V83.017L54.3467 83.0577C54.1725 83.2214 53.9885 83.3753 53.8021 83.5223H53.7931V83.5299C53.7358 83.5729 53.6754 83.6189 53.6181 83.6611H53.6068V83.6702C53.5449 83.7132 53.4853 83.7569 53.4235 83.8014H53.4204C53.3058 83.8814 53.1889 83.9576 53.069 84.0307H53.0501V84.042C53.0064 84.0692 52.9611 84.0971 52.9151 84.125H52.9128L52.8344 84.171H52.8186V84.1801L52.7537 84.217H52.7266V84.2306C52.5267 84.343 52.3199 84.4463 52.1102 84.5406H52.0778V84.5542L52.0047 84.5866H51.9866V84.5957L51.8968 84.6326H51.8946V84.6349C51.8184 84.6673 51.7429 84.6968 51.6667 84.7269H51.6615C51.5325 84.7775 51.4043 84.8235 51.273 84.8642H51.2436V84.8733L51.1282 84.9102H51.1049V84.9178C51.0619 84.9313 51.0181 84.9449 50.9736 84.957H50.9668V84.9593C50.9117 84.9758 50.859 84.9894 50.8031 85.0053H50.7797V85.0098C50.6605 85.0422 50.5383 85.0694 50.4161 85.0973H50.4094C50.3332 85.1131 50.2578 85.1297 50.1839 85.1433H50.1303V85.1516C50.0548 85.1659 49.981 85.1772 49.9048 85.1893H49.852V85.1976C49.7486 85.2112 49.6453 85.2255 49.5419 85.2346H49.4823V85.2421C49.2108 85.2693 48.9393 85.2813 48.664 85.2813C48.4596 85.2813 48.2521 85.2745 48.0454 85.2579L48.0432 85.2617ZM111.023 134.758V119.337H112.524V120.801C112.878 120.235 113.278 119.81 113.726 119.528C114.17 119.245 114.71 119.1 115.345 119.1C116.177 119.1 116.908 119.344 117.546 119.833C118.18 120.321 118.661 121.013 118.985 121.9C119.307 122.79 119.47 123.766 119.47 124.828C119.47 125.963 119.29 126.986 118.934 127.9C118.578 128.808 118.058 129.506 117.376 129.994C116.698 130.477 115.98 130.721 115.229 130.721C114.679 130.721 114.185 130.587 113.75 130.323C113.313 130.059 112.957 129.726 112.675 129.32V134.758H111.023ZM112.524 124.979C112.524 126.407 112.776 127.462 113.28 128.145C113.789 128.831 114.4 129.173 115.12 129.173C115.851 129.173 116.478 128.818 116.998 128.111C117.52 127.403 117.78 126.306 117.78 124.82C117.78 123.404 117.527 122.344 117.016 121.638C116.506 120.932 115.899 120.583 115.193 120.583C114.492 120.583 113.872 120.957 113.333 121.707C112.793 122.459 112.524 123.547 112.524 124.979ZM121.933 130.483V128.336H123.809V130.483H121.933ZM131.895 119.337H133.546V127.839L138.135 119.337H139.909V130.483H138.258V122.036L133.672 130.483H131.895V119.337ZM143.189 119.337H150.868V130.472H149.217V120.905H144.842V126.448C144.842 127.74 144.802 128.593 144.732 129.009C144.656 129.421 144.458 129.777 144.127 130.086C143.795 130.394 143.322 130.548 142.699 130.548C142.312 130.548 141.868 130.521 141.367 130.465V128.895H142.092C142.432 128.895 142.675 128.855 142.822 128.772C142.97 128.695 143.067 128.566 143.117 128.389C143.165 128.214 143.188 127.643 143.188 126.682V119.336L143.189 119.337ZM153.336 119.337H154.988V127.839L159.577 119.337H161.351V130.483H159.699V122.036L155.115 130.483H153.336V119.337ZM166.738 130.483L171.895 115.106H173.85L179.324 130.483H177.298L175.744 125.823H170.083L168.626 130.483H166.738ZM170.605 124.17H175.185L173.785 119.907C173.362 118.61 173.043 117.539 172.819 116.695C172.638 117.697 172.389 118.681 172.079 119.656L170.605 124.17ZM180.49 130.483V115.106H182.141V130.483H180.49ZM186.217 130.483H184.677V115.106H186.329V120.591C187.026 119.599 187.913 119.1 188.999 119.1C189.596 119.1 190.164 119.235 190.7 119.511C191.235 119.787 191.672 120.177 192.02 120.674C192.364 121.175 192.638 121.777 192.832 122.481C193.027 123.185 193.125 123.939 193.125 124.742C193.125 126.645 192.711 128.118 191.888 129.159C191.063 130.2 190.074 130.719 188.92 130.719C187.771 130.719 186.872 130.172 186.216 129.08V130.482L186.217 130.483ZM186.199 124.828C186.199 126.159 186.357 127.122 186.673 127.717C187.195 128.686 187.896 129.173 188.779 129.173C189.503 129.173 190.126 128.817 190.648 128.1C191.173 127.384 191.437 126.318 191.437 124.898C191.437 123.446 191.186 122.376 190.682 121.684C190.179 120.994 189.567 120.647 188.857 120.647C188.133 120.647 187.509 121.006 186.987 121.721C186.463 122.436 186.199 123.471 186.199 124.828ZM195.139 117.254V115.106H196.791V117.254H195.139ZM195.139 130.483V119.337H196.791V130.483H195.139ZM198.689 124.91C198.689 122.852 199.188 121.328 200.192 120.334C201.03 119.511 202.052 119.1 203.258 119.1C204.594 119.1 205.687 119.6 206.539 120.603C207.387 121.601 207.812 122.987 207.812 124.754C207.812 126.184 207.626 127.308 207.249 128.129C206.874 128.947 206.325 129.585 205.605 130.04C204.89 130.494 204.104 130.72 203.258 130.72C201.892 130.72 200.79 130.221 199.951 129.223C199.107 128.226 198.689 126.786 198.689 124.91ZM200.379 124.914C200.379 126.338 200.65 127.405 201.195 128.111C201.742 128.818 202.427 129.173 203.258 129.173C204.076 129.173 204.759 128.818 205.306 128.106C205.851 127.393 206.122 126.31 206.122 124.852C206.122 123.477 205.846 122.436 205.301 121.732C204.751 121.022 204.071 120.668 203.257 120.668C202.427 120.668 201.742 121.019 201.194 121.723C200.649 122.428 200.378 123.493 200.378 124.914L200.379 124.914ZM209.751 130.483V119.337H211.23V120.919C211.943 119.705 212.978 119.1 214.325 119.1C214.914 119.1 215.454 119.222 215.944 119.463C216.434 119.702 216.805 120.02 217.05 120.41C217.292 120.801 217.466 121.266 217.56 121.804C217.62 122.154 217.652 122.765 217.652 123.639V130.483H216V123.71C216 122.942 215.938 122.365 215.809 121.985C215.68 121.606 215.454 121.302 215.129 121.073C214.802 120.847 214.418 120.733 213.979 120.733C213.28 120.733 212.675 120.988 212.165 121.499C211.654 122.007 211.402 122.977 211.402 124.402V130.483H209.751ZM225.537 130.483V115.106H227.319V128.678H233.927V130.483H225.537ZM242.212 129.088C241.598 129.685 241.006 130.104 240.438 130.35C239.874 130.598 239.266 130.72 238.615 130.72C237.547 130.72 236.721 130.424 236.146 129.826C235.57 129.231 235.284 128.47 235.284 127.541C235.284 126.998 235.395 126.499 235.608 126.048C235.826 125.597 236.113 125.239 236.463 124.967C236.815 124.696 237.211 124.486 237.652 124.349C237.978 124.252 238.468 124.158 239.124 124.066C240.455 123.886 241.441 123.667 242.069 123.417C242.076 123.16 242.081 122.995 242.081 122.928C242.081 122.16 241.924 121.62 241.609 121.304C241.189 120.88 240.558 120.668 239.726 120.668C238.947 120.668 238.372 120.826 238.001 121.136C237.63 121.449 237.358 121.998 237.181 122.794L235.564 122.536C235.714 121.746 235.953 121.104 236.291 120.616C236.629 120.131 237.119 119.758 237.755 119.494C238.39 119.232 239.13 119.099 239.969 119.099C240.804 119.099 241.479 119.211 242.004 119.437C242.523 119.662 242.907 119.94 243.153 120.281C243.395 120.621 243.567 121.051 243.668 121.569C243.721 121.893 243.748 122.473 243.748 123.307V125.811C243.748 127.563 243.783 128.669 243.852 129.138C243.919 129.607 244.056 130.053 244.254 130.483H242.53C242.363 130.086 242.256 129.621 242.21 129.088H242.212ZM242.081 124.898C241.478 125.179 240.577 125.416 239.377 125.609C238.693 125.719 238.211 125.844 237.93 125.983C237.647 126.123 237.433 126.328 237.279 126.593C237.125 126.859 237.047 127.158 237.047 127.486C237.047 127.983 237.215 128.401 237.548 128.735C237.884 129.068 238.371 129.236 239.012 129.236C239.647 129.236 240.215 129.079 240.709 128.76C241.206 128.445 241.571 128.012 241.804 127.465C241.981 127.038 242.069 126.413 242.069 125.585L242.08 124.897L242.081 124.898ZM247.808 130.483H246.267V115.106H247.92V120.591C248.616 119.599 249.506 119.1 250.589 119.1C251.187 119.1 251.757 119.235 252.291 119.511C252.826 119.787 253.263 120.177 253.611 120.674C253.955 121.175 254.229 121.777 254.422 122.481C254.618 123.185 254.716 123.939 254.716 124.742C254.716 126.645 254.302 128.118 253.482 129.159C252.653 130.2 251.665 130.719 250.511 130.719C249.364 130.719 248.463 130.172 247.807 129.08V130.482L247.808 130.483ZM247.79 124.828C247.79 126.159 247.948 127.122 248.263 127.717C248.785 128.686 249.487 129.173 250.369 129.173C251.093 129.173 251.717 128.817 252.238 128.1C252.766 127.384 253.027 126.318 253.027 124.898C253.027 123.446 252.777 122.376 252.273 121.684C251.77 120.994 251.158 120.647 250.447 120.647C249.723 120.647 249.1 121.006 248.578 121.721C248.054 122.436 247.79 123.471 247.79 124.828ZM256.071 127.155L257.704 126.854C257.793 127.603 258.051 128.175 258.471 128.576C258.89 128.973 259.478 129.173 260.231 129.173C260.989 129.173 261.552 128.998 261.923 128.644C262.288 128.292 262.472 127.878 262.472 127.403C262.472 126.975 262.306 126.639 261.978 126.396C261.748 126.228 261.182 126.016 260.287 125.755C259.081 125.408 258.246 125.109 257.777 124.853C257.31 124.595 256.957 124.244 256.714 123.793C256.473 123.347 256.354 122.848 256.354 122.306C256.354 121.807 256.453 121.349 256.65 120.926C256.85 120.506 257.119 120.153 257.46 119.875C257.715 119.659 258.067 119.477 258.508 119.326C258.952 119.176 259.424 119.1 259.931 119.1C260.698 119.1 261.366 119.226 261.942 119.48C262.519 119.73 262.946 120.075 263.222 120.505C263.493 120.937 263.684 121.514 263.787 122.237L262.171 122.494C262.101 121.915 261.888 121.459 261.536 121.135C261.186 120.809 260.692 120.648 260.051 120.648C259.297 120.648 258.754 120.791 258.432 121.078C258.112 121.363 257.949 121.702 257.949 122.083C257.949 122.326 258.014 122.55 258.147 122.745C258.282 122.944 258.494 123.113 258.782 123.246C258.945 123.317 259.428 123.477 260.235 123.729C261.4 124.083 262.215 124.377 262.677 124.603C263.139 124.828 263.502 125.162 263.764 125.591C264.031 126.024 264.162 126.562 264.162 127.205C264.162 127.83 264.003 128.422 263.681 128.978C263.357 129.532 262.895 129.962 262.292 130.266C261.685 130.57 261 130.721 260.235 130.721C258.973 130.721 258.004 130.42 257.342 129.822C256.677 129.22 256.255 128.332 256.07 127.155L256.071 127.155ZM266.586 130.484V128.337H268.462V130.484H266.586ZM5.11328 104.974H9.69325L8.29334 100.712C7.87019 99.4143 7.55033 98.3432 7.32706 97.4992C7.14528 98.5024 6.89716 99.4852 6.58715 100.461L5.11328 104.974ZM14.9974 111.288V95.9099H16.6485V111.288H14.9974ZM20.7254 111.288H19.1844V95.9099H20.837V101.396C21.534 100.403 22.424 99.9038 23.5064 99.9038C24.1038 99.9038 24.674 100.039 25.2073 100.315C25.7436 100.592 26.1796 100.982 26.5281 101.478C26.8728 101.98 27.1466 102.582 27.3397 103.286C27.535 103.99 27.6338 104.743 27.6338 105.546C27.6338 107.45 27.2198 108.923 26.3991 109.963C25.5709 111.005 24.5827 111.524 23.4287 111.524C22.2792 111.524 21.3801 110.977 20.7246 109.884V111.287L20.7254 111.288ZM20.7065 105.632C20.7065 106.963 20.8657 107.926 21.1802 108.522C21.7022 109.49 22.4036 109.977 23.2869 109.977C24.011 109.977 24.6341 109.621 25.156 108.904C25.6802 108.188 25.9443 107.122 25.9443 105.703C25.9443 104.25 25.6938 103.18 25.1907 102.488C24.6869 101.799 24.0759 101.452 23.3646 101.452C22.6405 101.452 22.0174 101.81 21.4955 102.525C20.9705 103.241 20.7065 104.275 20.7065 105.632ZM29.6463 98.0581V95.9107H31.2989V98.0581H29.6463ZM29.6463 111.288V100.141H31.2989V111.288H29.6463ZM33.1966 105.714C33.1966 103.656 33.6952 102.132 34.7007 101.139C35.5372 100.315 36.5608 99.9038 37.7653 99.9038C39.1019 99.9038 40.1956 100.405 41.0465 101.407C41.895 102.405 42.3205 103.791 42.3205 105.558C42.3205 106.988 42.1341 108.112 41.757 108.933C41.3829 109.752 40.8322 110.389 40.1134 110.844C39.3983 111.299 38.6116 111.524 37.7653 111.524C36.3993 111.524 35.2981 111.026 34.4593 110.028C33.6145 109.03 33.1966 107.59 33.1966 105.714ZM34.887 105.719C34.887 107.142 35.1578 108.209 35.7024 108.915C36.2493 109.623 36.9349 109.977 37.7653 109.977C38.5837 109.977 39.2671 109.623 39.814 108.91C40.3593 108.197 40.6293 107.115 40.6293 105.657C40.6293 104.282 40.3533 103.241 39.8087 102.536C39.2596 101.826 38.5792 101.472 37.7646 101.472C36.9341 101.472 36.2493 101.823 35.7017 102.527C35.1563 103.232 34.8863 104.298 34.8863 105.718L34.887 105.719ZM44.2582 111.288V100.141H45.7388V101.723C46.4516 100.51 47.4866 99.9046 48.8329 99.9046C49.422 99.9046 49.9621 100.026 50.4524 100.267C50.9419 100.506 51.3123 100.824 51.5582 101.215C51.7995 101.605 51.9745 102.07 52.0711 102.608C52.1284 102.958 52.1608 103.569 52.1608 104.443V111.288H50.5074V104.514C50.5074 103.746 50.4456 103.169 50.3166 102.79C50.1876 102.41 49.9621 102.106 49.6362 101.877C49.3096 101.651 48.9257 101.537 48.4867 101.537C47.7875 101.537 47.1825 101.793 46.6726 102.303C46.165 102.811 45.9093 103.782 45.9093 105.206V111.288H44.2582ZM63.1605 104.459V97.1771H60.7393V95.9099H66.8603V97.1771H64.4005V104.459H63.1605ZM67.6854 104.459V95.9107H69.5093L71.3897 102.737L73.2226 95.9107H75.0276V104.459H73.8803V97.2812L71.9464 104.459H70.8217L68.8312 97.1771V104.459H67.6854ZM91.5818 100.141V111.288H89.9292V106.949H88.9796C88.4003 106.949 87.968 107.034 87.6829 107.211C87.3978 107.386 86.9815 107.932 86.4339 108.859L84.9834 111.287H82.9355L84.7194 108.293C85.2647 107.378 85.8093 106.863 86.3494 106.744C85.4073 106.599 84.7081 106.208 84.2502 105.578C83.7931 104.948 83.5653 104.221 83.5653 103.401C83.5653 102.43 83.8617 101.646 84.4614 101.047C85.0565 100.442 85.9239 100.141 87.0576 100.141H91.5826L91.5818 100.141ZM89.9292 101.71H87.5811C86.5991 101.71 85.9647 101.884 85.6796 102.236C85.3945 102.585 85.2541 102.997 85.2541 103.466C85.2541 104.133 85.4639 104.623 85.884 104.935C86.2981 105.246 87.0411 105.404 88.1031 105.404H89.9292V101.71ZM94.0702 100.141H97.871C98.8018 100.141 99.4987 100.23 99.9536 100.41C100.409 100.589 100.798 100.914 101.124 101.39C101.452 101.87 101.616 102.44 101.616 103.105C101.616 103.638 101.517 104.103 101.326 104.499C101.133 104.894 100.845 105.228 100.46 105.492C100.915 105.669 101.292 105.992 101.596 106.474C101.897 106.95 102.046 107.52 102.046 108.175C101.989 109.23 101.658 110.014 101.058 110.523C100.46 111.033 99.5915 111.289 98.4533 111.289H94.071V100.142L94.0702 100.141ZM95.7213 104.846H97.4728C98.172 104.846 98.6525 104.802 98.9119 104.719C99.1744 104.634 99.409 104.466 99.6157 104.209C99.8223 103.954 99.9257 103.646 99.9257 103.287C99.9257 102.698 99.7439 102.288 99.3848 102.057C99.022 101.824 98.4013 101.71 97.5256 101.71H95.7206L95.7213 104.846ZM95.7213 109.74H97.8892C98.8207 109.74 99.4626 109.617 99.8096 109.37C100.157 109.12 100.339 108.692 100.359 108.08C100.359 107.726 100.258 107.392 100.058 107.09C99.8533 106.786 99.5908 106.591 99.2695 106.513C98.9466 106.43 98.4277 106.391 97.7149 106.391H95.7213V109.74ZM104.419 100.141H112.098V111.277H110.446V101.71H106.07V107.253C106.07 108.544 106.031 109.397 105.962 109.814C105.887 110.225 105.686 110.581 105.357 110.89C105.026 111.198 104.55 111.352 103.927 111.352C103.54 111.352 103.097 111.325 102.598 111.269V109.699H103.32C103.66 109.699 103.906 109.66 104.051 109.577C104.199 109.499 104.295 109.37 104.345 109.193C104.393 109.018 104.418 108.448 104.418 107.487V100.141L104.419 100.141ZM122.243 100.141V111.288H120.592V106.949H119.64C119.061 106.949 118.628 107.034 118.343 107.211C118.058 107.386 117.641 107.932 117.095 108.859L115.644 111.287H113.597L115.382 108.293C115.927 107.378 116.472 106.863 117.012 106.744C116.07 106.599 115.37 106.208 114.91 105.578C114.455 104.948 114.225 104.221 114.225 103.401C114.225 102.43 114.524 101.646 115.121 101.047C115.719 100.442 116.584 100.141 117.718 100.141H122.243L122.243 100.141ZM120.592 101.71H118.244C117.26 101.71 116.625 101.884 116.343 102.236C116.057 102.585 115.915 102.997 115.915 103.466C115.915 104.133 116.124 104.623 116.545 104.935C116.961 105.246 117.701 105.404 118.766 105.404H120.592V101.71ZM131.375 107.68L133.084 107.938C132.82 109.071 132.321 109.956 131.593 110.582C130.869 111.21 129.942 111.524 128.814 111.524C127.393 111.524 126.267 111.023 125.434 110.021C124.602 109.023 124.186 107.616 124.186 105.806C124.186 103.939 124.605 102.486 125.445 101.453C126.29 100.418 127.379 99.9038 128.722 99.9038C130.022 99.9038 131.081 100.409 131.904 101.421C132.728 102.435 133.139 103.861 133.139 105.696C133.139 105.806 133.139 105.976 133.132 106.197H125.876C125.938 107.418 126.239 108.356 126.784 109.004C127.325 109.653 128.003 109.977 128.815 109.977C129.42 109.977 129.934 109.795 130.359 109.43C130.79 109.064 131.127 108.48 131.375 107.68ZM125.97 104.652H131.397C131.323 103.714 131.114 103.012 130.773 102.543C130.251 101.817 129.565 101.451 128.733 101.451C127.974 101.451 127.34 101.74 126.823 102.32C126.31 102.899 126.025 103.676 125.97 104.652ZM133.684 100.141H141.57V101.709H138.452V111.287H136.799V101.709H133.684V100.141ZM149.301 107.206L150.915 107.463C150.738 108.736 150.288 109.726 149.558 110.446C148.83 111.165 147.93 111.524 146.871 111.524C145.542 111.524 144.471 111.025 143.663 110.032C142.852 109.036 142.45 107.61 142.45 105.757C142.45 104.554 142.624 103.503 142.974 102.602C143.319 101.703 143.851 101.027 144.563 100.581C145.273 100.129 146.043 99.9031 146.885 99.9031C147.938 99.9031 148.805 100.209 149.474 100.82C150.146 101.431 150.577 102.301 150.766 103.425L149.17 103.705C149.017 102.956 148.75 102.395 148.356 102.016C147.97 101.639 147.498 101.45 146.949 101.45C146.117 101.45 145.441 101.79 144.919 102.471C144.399 103.154 144.139 104.227 144.139 105.701C144.139 107.198 144.389 108.284 144.89 108.96C145.394 109.635 146.047 109.976 146.852 109.976C147.502 109.976 148.043 109.75 148.474 109.295C148.911 108.844 149.185 108.148 149.3 107.205L149.301 107.206ZM160.003 100.141V111.287H158.351V106.948H157.401C156.822 106.948 156.39 107.033 156.105 107.21C155.819 107.385 155.403 107.932 154.856 108.859L153.405 111.287H151.357L153.143 108.292C153.689 107.377 154.231 106.862 154.774 106.743C153.831 106.598 153.13 106.207 152.673 105.578C152.217 104.948 151.987 104.221 151.987 103.4C151.987 102.429 152.283 101.645 152.883 101.046C153.479 100.441 154.346 100.14 155.479 100.14H160.004L160.003 100.141ZM158.351 101.709H156.003C155.021 101.709 154.386 101.883 154.101 102.235C153.816 102.585 153.676 102.996 153.676 103.466C153.676 104.132 153.885 104.622 154.306 104.934C154.722 105.245 155.463 105.403 156.527 105.403H158.351V101.709ZM166.842 100.141H174.729V101.709H171.61V111.287H169.958V101.709H166.842V100.141ZM175.475 105.714C175.475 103.656 175.975 102.132 176.979 101.139C177.817 100.315 178.839 99.9038 180.044 99.9038C181.381 99.9038 182.474 100.405 183.326 101.407C184.174 102.405 184.599 103.791 184.599 105.558C184.599 106.988 184.413 108.112 184.036 108.933C183.661 109.752 183.112 110.389 182.392 110.844C181.677 111.299 180.891 111.524 180.044 111.524C178.678 111.524 177.577 111.026 176.738 110.028C175.894 109.03 175.475 107.59 175.475 105.714ZM177.166 105.719C177.166 107.142 177.437 108.209 177.982 108.915C178.529 109.623 179.213 109.977 180.044 109.977C180.862 109.977 181.546 109.623 182.093 108.91C182.638 108.197 182.909 107.115 182.909 105.657C182.909 104.282 182.632 103.241 182.087 102.536C181.538 101.826 180.858 101.472 180.043 101.472C179.213 101.472 178.529 101.823 177.981 102.527C177.436 103.232 177.165 104.298 177.165 105.718L177.166 105.719ZM186.537 100.141H190.338C191.269 100.141 191.965 100.23 192.421 100.41C192.876 100.589 193.265 100.914 193.591 101.39C193.92 101.87 194.083 102.44 194.083 103.105C194.083 103.638 193.985 104.103 193.793 104.499C193.6 104.894 193.313 105.228 192.926 105.492C193.382 105.669 193.759 105.992 194.062 106.474C194.366 106.95 194.513 107.52 194.513 108.175C194.456 109.23 194.125 110.014 193.525 110.523C192.93 111.033 192.058 111.289 190.92 111.289H186.538V100.142L186.537 100.141ZM188.188 104.846H189.94C190.639 104.846 191.119 104.802 191.379 104.719C191.641 104.634 191.876 104.466 192.083 104.209C192.29 103.954 192.394 103.646 192.394 103.287C192.394 102.698 192.212 102.288 191.853 102.057C191.489 101.824 190.869 101.71 189.993 101.71H188.188V104.846ZM188.188 109.74H190.356C191.287 109.74 191.929 109.617 192.277 109.37C192.626 109.12 192.806 108.692 192.826 108.08C192.826 107.726 192.724 107.392 192.525 107.09C192.323 106.786 192.058 106.591 191.736 106.513C191.414 106.43 190.894 106.391 190.181 106.391H188.188V109.74ZM202.667 109.892C202.053 110.489 201.462 110.909 200.895 111.154C200.329 111.402 199.722 111.524 199.071 111.524C198.002 111.524 197.176 111.228 196.601 110.63C196.026 110.035 195.739 109.274 195.739 108.345C195.739 107.802 195.85 107.303 196.063 106.852C196.281 106.401 196.569 106.043 196.919 105.771C197.27 105.5 197.666 105.29 198.107 105.153C198.433 105.056 198.924 104.962 199.579 104.87C200.91 104.69 201.896 104.472 202.525 104.221C202.531 103.964 202.536 103.799 202.536 103.732C202.536 102.964 202.38 102.424 202.064 102.109C201.644 101.684 201.014 101.472 200.181 101.472C199.402 101.472 198.827 101.63 198.457 101.94C198.085 102.253 197.813 102.803 197.636 103.598L196.02 103.34C196.17 102.55 196.408 101.909 196.746 101.42C197.085 100.936 197.574 100.562 198.21 100.298C198.845 100.037 199.585 99.9031 200.425 99.9031C201.259 99.9031 201.935 100.015 202.459 100.241C202.979 100.467 203.363 100.745 203.608 101.085C203.851 101.425 204.023 101.855 204.124 102.373C204.176 102.698 204.204 103.277 204.204 104.111V106.615C204.204 108.368 204.238 109.473 204.307 109.943C204.374 110.412 204.511 110.857 204.71 111.288H202.985C202.818 110.89 202.712 110.426 202.666 109.892H202.667ZM202.536 105.703C201.933 105.983 201.032 106.22 199.832 106.413C199.149 106.523 198.666 106.648 198.385 106.788C198.102 106.928 197.888 107.133 197.734 107.397C197.58 107.663 197.503 107.962 197.503 108.291C197.503 108.788 197.67 109.206 198.003 109.539C198.339 109.872 198.826 110.041 199.467 110.041C200.103 110.041 200.671 109.884 201.168 109.564C201.662 109.249 202.028 108.817 202.26 108.27C202.436 107.842 202.524 107.217 202.524 106.389L202.535 105.701L202.536 105.703ZM206.743 115.563V100.141H208.245V101.605C208.599 101.04 208.999 100.615 209.447 100.332C209.891 100.049 210.432 99.9046 211.066 99.9046C211.898 99.9046 212.63 100.148 213.269 100.638C213.904 101.125 214.383 101.817 214.706 102.705C215.028 103.595 215.191 104.57 215.191 105.632C215.191 106.768 215.012 107.791 214.658 108.704C214.3 109.612 213.78 110.311 213.097 110.799C212.421 111.281 211.703 111.525 210.952 111.525C210.4 111.525 209.905 111.392 209.471 111.128C209.035 110.864 208.678 110.53 208.397 110.125V115.563H206.745H206.743ZM208.245 105.783C208.245 107.211 208.498 108.267 209.004 108.95C209.509 109.635 210.123 109.977 210.841 109.977C211.574 109.977 212.2 109.623 212.719 108.915C213.241 108.207 213.501 107.11 213.501 105.625C213.501 104.209 213.248 103.149 212.737 102.442C212.229 101.737 211.623 101.387 210.914 101.387C210.212 101.387 209.594 101.762 209.054 102.511C208.514 103.263 208.245 104.351 208.245 105.783ZM217.185 100.141H218.837V104.781H223.417V100.141H225.069V111.288H223.417V106.349H218.837V111.288H217.185V100.141ZM236.825 100.141H238.476V111.288H236.825V100.141ZM227.607 100.141H229.26V104.5H231.34C232.704 104.5 233.75 104.801 234.483 105.406C235.219 106.011 235.585 106.845 235.585 107.908C235.585 108.839 235.278 109.635 234.664 110.297C234.053 110.959 233.071 111.288 231.721 111.288H227.606V100.141H227.607ZM229.26 109.74H230.992C232.033 109.74 232.783 109.596 233.227 109.301C233.673 109.007 233.896 108.55 233.896 107.926C233.896 107.444 233.73 107.014 233.402 106.635C233.071 106.26 232.341 106.069 231.212 106.069H229.26V109.74ZM241.103 100.141H243.643L246.219 109.062L249.067 100.141H251.427V111.288H249.776V102.314L246.906 111.288H245.43L242.716 101.884V111.288H241.102L241.103 100.141ZM261.328 106.241V104.758C262.022 104.751 262.497 104.718 262.749 104.666C263.001 104.609 263.243 104.443 263.468 104.166C263.694 103.885 263.807 103.538 263.807 103.119C263.807 102.615 263.659 102.207 263.363 101.907C263.064 101.602 262.682 101.452 262.211 101.452C261.28 101.452 260.631 102.075 260.257 103.319L258.682 103.021C259.17 100.944 260.352 99.9053 262.223 99.9053C263.262 99.9053 264.076 100.227 264.667 100.875C265.258 101.524 265.552 102.296 265.552 103.196C265.552 104.101 265.168 104.823 264.403 105.357C264.892 105.657 265.258 106.042 265.506 106.506C265.75 106.971 265.872 107.522 265.872 108.159C265.872 109.159 265.552 109.968 264.915 110.589C264.278 111.212 263.391 111.524 262.246 111.524C260.024 111.524 258.734 110.4 258.381 108.151L259.937 107.765C260.08 108.472 260.365 109.025 260.795 109.416C261.227 109.805 261.72 110 262.276 110C262.835 110 263.296 109.82 263.667 109.457C264.035 109.101 264.218 108.643 264.218 108.085C264.218 107.65 264.103 107.275 263.871 106.953C263.639 106.631 263.393 106.429 263.129 106.351C262.869 106.268 262.393 106.229 261.705 106.229C261.648 106.229 261.521 106.235 261.328 106.241ZM267.777 100.141H269.429V104.781H274.009V100.141H275.66V111.288H274.009V106.349H269.429V111.288H267.777V100.141ZM284.506 109.892C283.895 110.489 283.304 110.909 282.736 111.154C282.171 111.402 281.563 111.524 280.91 111.524C279.841 111.524 279.018 111.228 278.443 110.63C277.867 110.035 277.579 109.274 277.579 108.345C277.579 107.802 277.689 107.303 277.904 106.852C278.123 106.401 278.408 106.043 278.758 105.771C279.112 105.5 279.505 105.29 279.949 105.153C280.273 105.056 280.765 104.962 281.42 104.87C282.752 104.69 283.736 104.472 284.366 104.221C284.373 103.964 284.375 103.799 284.375 103.732C284.375 102.964 284.218 102.424 283.906 102.109C283.483 101.684 282.855 101.472 282.023 101.472C281.243 101.472 280.669 101.63 280.298 101.94C279.927 102.253 279.652 102.803 279.476 103.598L277.861 103.34C278.009 102.55 278.248 101.909 278.588 101.42C278.926 100.936 279.413 100.562 280.05 100.298C280.688 100.037 281.428 99.9031 282.267 99.9031C283.099 99.9031 283.777 100.015 284.299 100.241C284.821 100.467 285.205 100.745 285.449 101.085C285.692 101.425 285.865 101.855 285.965 102.373C286.019 102.698 286.046 103.277 286.046 104.111V106.615C286.046 108.368 286.081 109.473 286.148 109.943C286.214 110.412 286.355 110.857 286.552 111.288H284.825C284.659 110.89 284.552 110.426 284.506 109.892ZM284.375 105.703C283.775 105.983 282.874 106.22 281.674 106.413C280.99 106.523 280.508 106.648 280.225 106.788C279.945 106.928 279.728 107.133 279.577 107.397C279.423 107.663 279.345 107.962 279.345 108.291C279.345 108.788 279.51 109.206 279.844 109.539C280.179 109.872 280.669 110.041 281.31 110.041C281.945 110.041 282.51 109.884 283.007 109.564C283.502 109.249 283.869 108.817 284.102 108.27C284.279 107.842 284.366 107.217 284.366 106.389L284.375 105.701V105.703ZM288.564 100.141H290.217V104.951C290.744 104.951 291.111 104.838 291.323 104.605C291.534 104.376 291.844 103.708 292.256 102.592C292.58 101.712 292.845 101.132 293.045 100.854C293.25 100.574 293.48 100.385 293.744 100.289C294.008 100.192 294.431 100.141 295.009 100.141H295.342V101.698L294.88 101.689C294.447 101.689 294.167 101.762 294.048 101.91C293.919 102.064 293.722 102.521 293.458 103.285C293.208 104.016 292.978 104.519 292.771 104.798C292.564 105.077 292.24 105.331 291.805 105.565C292.516 105.783 293.217 106.537 293.904 107.834L295.716 111.288H293.902L292.115 107.843C291.755 107.147 291.442 106.687 291.174 106.466C290.905 106.244 290.586 106.133 290.216 106.133V111.288H288.563L288.564 100.141ZM296.386 105.715C296.386 103.657 296.887 102.133 297.892 101.139C298.726 100.316 299.75 99.9046 300.955 99.9046C302.29 99.9046 303.387 100.405 304.236 101.408C305.084 102.406 305.512 103.792 305.512 105.559C305.512 106.989 305.323 108.113 304.948 108.934C304.571 109.752 304.024 110.39 303.305 110.845C302.59 111.3 301.803 111.525 300.955 111.525C299.589 111.525 298.488 111.026 297.648 110.029C296.807 109.031 296.387 107.591 296.387 105.716L296.386 105.715ZM298.075 105.719C298.075 107.143 298.347 108.21 298.892 108.916C299.441 109.624 300.126 109.978 300.955 109.978C301.775 109.978 302.458 109.623 303.005 108.911C303.548 108.198 303.819 107.116 303.819 105.657C303.819 104.282 303.545 103.242 302.999 102.537C302.449 101.827 301.768 101.473 300.955 101.473C300.126 101.473 299.441 101.824 298.892 102.528C298.346 103.233 298.075 104.299 298.075 105.719ZM307.505 100.142H310.046L312.618 109.063L315.469 100.142H317.829V111.289H316.176V102.315L313.306 111.289H311.832L309.12 101.885V111.289H307.505V100.142ZM2.64374 130.485V115.107H7.68837C8.71344 115.107 9.53941 115.261 10.1602 115.572C10.781 115.885 11.2637 116.363 11.6152 117.012C11.9674 117.655 12.1424 118.333 12.1424 119.042C12.1424 119.698 11.9886 120.315 11.6778 120.895C11.3678 121.474 10.8979 121.944 10.2703 122.302C11.0849 122.574 11.7094 123.04 12.1424 123.698C12.5814 124.354 12.7994 125.13 12.7994 126.025C12.7994 126.749 12.6659 127.419 12.3989 128.037C12.1349 128.656 11.806 129.134 11.4153 129.469C11.0246 129.803 10.532 130.055 9.9437 130.228C9.35234 130.4 8.62821 130.485 7.77286 130.485H2.64301L2.64374 130.485ZM4.42765 121.571H7.33612C8.12208 121.571 8.69009 121.512 9.02876 121.394C9.4836 121.24 9.82676 120.982 10.0515 120.624C10.2808 120.266 10.3985 119.819 10.3985 119.279C10.3985 118.765 10.2906 118.315 10.0742 117.929C9.8622 117.538 9.55446 117.269 9.1562 117.126C8.76095 116.984 8.07838 116.911 7.11441 116.911H4.42684L4.42765 121.571ZM4.42765 128.68H7.77514C8.35216 128.68 8.75494 128.656 8.98877 128.607C9.39608 128.524 9.74078 128.384 10.0168 128.189C10.2906 127.991 10.5154 127.704 10.695 127.329C10.8722 126.952 10.959 126.519 10.959 126.029C10.959 125.452 10.833 124.956 10.5728 124.528C10.3148 124.103 9.95877 123.806 9.50093 123.634C9.04836 123.462 8.3906 123.376 7.53751 123.376H4.42684L4.42765 128.68ZM21.399 129.09C20.785 129.687 20.1936 130.107 19.6279 130.352C19.0607 130.6 18.4527 130.722 17.8025 130.722C16.7337 130.722 15.91 130.426 15.3353 129.828C14.7597 129.233 14.4709 128.472 14.4709 127.543C14.4709 127 14.581 126.501 14.7952 126.05C15.0162 125.599 15.3014 125.241 15.6506 124.969C16.0051 124.698 16.3981 124.488 16.8393 124.351C17.1659 124.254 17.6554 124.16 18.3109 124.068C19.6452 123.888 20.6288 123.67 21.2594 123.419C21.2639 123.162 21.2677 122.997 21.2677 122.93C21.2677 122.162 21.1116 121.622 20.797 121.307C20.3761 120.882 19.7456 120.67 18.9136 120.67C18.1344 120.67 17.5596 120.828 17.1893 121.138C16.8189 121.451 16.5459 122 16.3686 122.796L14.7522 122.538C14.9016 121.748 15.1399 121.106 15.4786 120.618C15.8165 120.134 16.3068 119.76 16.9427 119.496C17.5778 119.235 18.3199 119.101 19.1572 119.101C19.9914 119.101 20.6673 119.213 21.1916 119.439C21.7113 119.664 22.0951 119.942 22.341 120.283C22.5824 120.623 22.7574 121.053 22.8555 121.571C22.909 121.896 22.9362 122.475 22.9362 123.309V125.813C22.9362 127.565 22.9709 128.671 23.0395 129.141C23.1059 129.61 23.2439 130.055 23.4438 130.485H21.7165C21.5491 130.088 21.4427 129.623 21.3974 129.09H21.399ZM21.267 124.901C20.6673 125.181 19.7636 125.418 18.5636 125.611C17.8802 125.721 17.3982 125.846 17.1169 125.985C16.834 126.126 16.6198 126.33 16.4682 126.595C16.3121 126.861 16.2344 127.16 16.2344 127.489C16.2344 127.986 16.4019 128.404 16.7353 128.737C17.0709 129.07 17.5582 129.238 18.1993 129.238C18.8344 129.238 19.4016 129.082 19.8987 128.762C20.3935 128.447 20.7608 128.014 20.9909 127.468C21.1682 127.04 21.2579 126.415 21.2579 125.587L21.2662 124.899L21.267 124.901ZM25.4381 130.485V115.108H27.0892V130.485H25.4381ZM36.0079 126.405L37.6221 126.662C37.4448 127.934 36.9967 128.925 36.2658 129.644C35.5364 130.364 34.6381 130.722 33.5776 130.722C32.2486 130.722 31.1775 130.224 30.3726 129.23C29.5588 128.235 29.159 126.809 29.159 124.956C29.159 123.753 29.334 122.702 29.681 121.801C30.0257 120.902 30.5575 120.226 31.2703 119.78C31.9808 119.327 32.7531 119.102 33.5926 119.102C34.6449 119.102 35.5146 119.407 36.1836 120.019C36.8549 120.63 37.2871 121.5 37.4757 122.624L35.8796 122.904C35.7235 122.154 35.4572 121.594 35.0658 121.215C34.6773 120.837 34.2052 120.649 33.6561 120.649C32.8241 120.649 32.1475 120.989 31.6255 121.669C31.1081 122.352 30.8455 123.426 30.8455 124.9C30.8455 126.396 31.096 127.483 31.5976 128.158C32.1007 128.834 32.7539 129.174 33.5587 129.174C34.2097 129.174 34.7497 128.949 35.1819 128.494C35.6179 128.043 35.8948 127.347 36.0071 126.404L36.0079 126.405ZM39.0341 130.485V115.108H40.6867V120.642C41.4531 119.615 42.4185 119.102 43.5884 119.102C44.3057 119.102 44.9287 119.262 45.4597 119.589C45.987 119.915 46.3687 120.361 46.5935 120.934C46.8228 121.506 46.9359 122.341 46.9359 123.428V130.485H45.2848V123.438C45.2848 122.495 45.1045 121.808 44.7515 121.377C44.3955 120.95 43.8961 120.734 43.2429 120.734C42.7602 120.734 42.3001 120.877 41.8724 121.169C41.4447 121.459 41.1415 121.852 40.9575 122.348C40.7757 122.843 40.6859 123.527 40.6859 124.399V130.485H39.0333L39.0341 130.485ZM56.12 126.878L57.8285 127.136C57.5622 128.269 57.0652 129.154 56.3388 129.78C55.6147 130.408 54.6869 130.722 53.5563 130.722C52.1352 130.722 51.0113 130.221 50.1793 129.219C49.3473 128.221 48.931 126.814 48.931 125.004C48.931 123.136 49.3496 121.684 50.1907 120.651C51.0324 119.616 52.1246 119.102 53.4672 119.102C54.7661 119.102 55.8259 119.607 56.6496 120.619C57.4725 121.633 57.8843 123.059 57.8843 124.893C57.8843 125.004 57.8813 125.174 57.8767 125.395H50.6183C50.6824 126.616 50.9834 127.554 51.528 128.202C52.0688 128.851 52.7469 129.174 53.5563 129.174C54.1612 129.174 54.6786 128.993 55.104 128.628C55.534 128.262 55.8696 127.678 56.12 126.878ZM50.7126 123.85H56.1412C56.068 122.912 55.8561 122.21 55.5174 121.741C54.9932 121.015 54.3105 120.649 53.4755 120.649C52.7197 120.649 52.0846 120.938 51.568 121.518C51.0543 122.097 50.7692 122.874 50.7126 123.85ZM59.9163 130.485V119.339H61.397V120.913C61.7002 120.367 62.1098 119.928 62.6152 119.6C63.1213 119.267 63.6983 119.102 64.347 119.102C65.0666 119.102 65.6549 119.274 66.1173 119.615C66.5774 119.957 66.901 120.433 67.0896 121.049C67.8642 119.75 68.8689 119.102 70.1112 119.102C71.0789 119.102 71.8264 119.407 72.3461 120.019C72.8703 120.63 73.1321 121.571 73.1321 122.842V130.485H71.481V123.471C71.481 122.719 71.4237 122.173 71.3173 121.84C71.2117 121.506 71.0163 121.242 70.7312 121.04C70.4483 120.836 70.1172 120.734 69.7401 120.734C69.0507 120.734 68.4804 120.996 68.0271 121.516C67.5746 122.038 67.349 122.872 67.349 124.018V130.485H65.6979V123.252C65.6979 122.412 65.5629 121.783 65.2936 121.364C65.0243 120.945 64.5831 120.734 63.9736 120.734C63.509 120.734 63.0813 120.874 62.6853 121.153C62.2923 121.433 62.0072 121.841 61.8277 122.381C61.6527 122.918 61.5675 123.696 61.5675 124.708V130.485H59.9148L59.9163 130.485ZM90.5492 125.091L92.3331 125.605C91.9612 127.277 91.2922 128.548 90.3237 129.425C89.3582 130.303 88.1762 130.743 86.7785 130.743C85.3296 130.743 84.1552 130.407 83.2485 129.731C82.3388 129.058 81.6532 128.08 81.1773 126.802C80.7058 125.521 80.469 124.149 80.469 122.682C80.469 121.081 80.733 119.686 81.2685 118.495C81.8048 117.301 82.5636 116.396 83.5525 115.778C84.5368 115.158 85.6215 114.851 86.8057 114.851C88.1506 114.851 89.2797 115.239 90.1947 116.024C91.1096 116.807 91.747 117.907 92.1076 119.325L90.3622 119.796C90.0522 118.682 89.5988 117.865 89.0082 117.357C88.4154 116.843 87.6709 116.589 86.7733 116.589C85.743 116.589 84.8793 116.872 84.1883 117.437C83.4967 118.003 83.0094 118.766 82.7311 119.719C82.4505 120.675 82.3057 121.659 82.3057 122.67C82.3057 123.978 82.4731 125.119 82.8043 126.094C83.1377 127.071 83.6521 127.797 84.3536 128.281C85.0528 128.763 85.8115 129.002 86.6277 129.002C87.6233 129.002 88.4621 128.674 89.15 128.018C89.8394 127.36 90.3056 126.385 90.5492 125.091ZM93.7059 124.911C93.7059 122.854 94.2067 121.329 95.2122 120.336C96.0487 119.512 97.0722 119.101 98.2745 119.101C99.6126 119.101 100.707 119.602 101.557 120.604C102.406 121.602 102.831 122.989 102.831 124.755C102.831 126.185 102.645 127.309 102.268 128.131C101.894 128.949 101.343 129.586 100.624 130.041C99.9091 130.496 99.1224 130.721 98.2745 130.721C96.9108 130.721 95.8096 130.223 94.9678 129.225C94.126 128.227 93.7059 126.787 93.7059 124.911ZM95.3985 124.916C95.3985 126.339 95.6693 127.406 96.2124 128.112C96.7615 128.82 97.4471 129.174 98.2753 129.174C99.0959 129.174 99.7794 128.82 100.326 128.107C100.872 127.394 101.142 126.312 101.142 124.854C101.142 123.479 100.866 122.438 100.319 121.733C99.7718 121.024 99.0884 120.669 98.2745 120.669C97.4463 120.669 96.7615 121.021 96.2116 121.724C95.6685 122.43 95.3977 123.495 95.3977 124.915L95.3985 124.916ZM104.749 130.485V119.339H106.232V121.046C106.609 120.256 106.962 119.732 107.284 119.481C107.608 119.228 107.96 119.102 108.346 119.102C108.902 119.102 109.468 119.301 110.043 119.699L109.457 121.442C109.054 121.184 108.654 121.055 108.254 121.055C107.895 121.055 107.571 121.182 107.288 121.428C107.003 121.676 106.799 122.019 106.677 122.461C106.493 123.13 106.4 123.863 106.4 124.661V130.485H104.749Z" fill="#006097"/>
</svg>
