<svg width="1920" height="134" viewBox="0 0 1920 134" fill="none" xmlns="http://www.w3.org/2000/svg">
<path d="M426.285 29.5977H319.542V133.06H426.285V29.5977Z" fill="#04669B"/>
<path fill-rule="evenodd" clip-rule="evenodd" d="M533.027 29.5977H426.284V133.06H533.027V29.5977Z" fill="#005F96" fill-opacity="0.901961"/>
<path fill-rule="evenodd" clip-rule="evenodd" d="M746.515 29.5977H639.77V133.06H746.515V29.5977Z" fill="#005F96" fill-opacity="0.8"/>
<path fill-rule="evenodd" clip-rule="evenodd" d="M533.028 29.5977H639.77V133.06H533.028V29.5977Z" fill="#005F96" fill-opacity="0.901961"/>
<path fill-rule="evenodd" clip-rule="evenodd" d="M1173.48 29.5977H1066.74V133.06H1173.48V29.5977Z" fill="#005F96" fill-opacity="0.501961"/>
<path fill-rule="evenodd" clip-rule="evenodd" d="M959.999 29.5977H1066.74V133.06H959.999V29.5977Z" fill="#005F96" fill-opacity="0.4"/>
<path fill-rule="evenodd" clip-rule="evenodd" d="M746.515 29.5977H853.257V133.06H746.515V29.5977Z" fill="#005F96" fill-opacity="0.701961"/>
<path fill-rule="evenodd" clip-rule="evenodd" d="M959.999 29.5977H853.257V133.06H959.999V29.5977Z" fill="#005F96" fill-opacity="0.6"/>
<path fill-rule="evenodd" clip-rule="evenodd" d="M1173.49 29.5977H1280.23V133.06H1173.49V29.5977Z" fill="#005F96" fill-opacity="0.6"/>
<path fill-rule="evenodd" clip-rule="evenodd" d="M1386.97 29.5977H1280.23V133.06H1386.97V29.5977Z" fill="#005F96" fill-opacity="0.701961"/>
<path fill-rule="evenodd" clip-rule="evenodd" d="M1600.46 29.5977H1493.71V133.06H1600.46V29.5977Z" fill="#005F96" fill-opacity="0.901961"/>
<path fill-rule="evenodd" clip-rule="evenodd" d="M1386.97 29.5977H1493.72V133.06H1386.97V29.5977Z" fill="#005F96" fill-opacity="0.8"/>
<path fill-rule="evenodd" clip-rule="evenodd" d="M1290.16 14.6733H1469.71V32.0871H1290.16V14.6733Z" fill="#005F96" fill-opacity="0.501961"/>
<path fill-rule="evenodd" clip-rule="evenodd" d="M396.431 60.6611H487.189V96.2134H396.431V60.6611Z" fill="#005F96" fill-opacity="0.501961"/>
<path fill-rule="evenodd" clip-rule="evenodd" d="M392.733 34.2993H572.281V51.7131H392.733V34.2993Z" fill="#005F96" fill-opacity="0.501961"/>
<path fill-rule="evenodd" clip-rule="evenodd" d="M533.028 57.1538H712.576V74.5676H533.028V57.1538Z" fill="#005F96" fill-opacity="0.501961"/>
<path fill-rule="evenodd" clip-rule="evenodd" d="M640.786 44.2534H820.335V61.6684H640.786V44.2534Z" fill="#005F96" fill-opacity="0.501961"/>
<path fill-rule="evenodd" clip-rule="evenodd" d="M319.542 32.3638H421.161V67.9172H319.542V32.3638Z" fill="#005F96" fill-opacity="0.501961"/>
<path fill-rule="evenodd" clip-rule="evenodd" d="M794.265 56.792H885.023V92.3443H794.265V56.792Z" fill="#005F96" fill-opacity="0.501961"/>
<path fill-rule="evenodd" clip-rule="evenodd" d="M973.252 62.7578H1064.01V98.3112H973.252V62.7578Z" fill="#005F96" fill-opacity="0.501961"/>
<path fill-rule="evenodd" clip-rule="evenodd" d="M1407.45 32.8862H1498.21V68.4397H1407.45V32.8862Z" fill="#005F96" fill-opacity="0.501961"/>
<path fill-rule="evenodd" clip-rule="evenodd" d="M1332.44 49.6553H1423.2V85.2075H1332.44V49.6553Z" fill="#005F96" fill-opacity="0.501961"/>
<path fill-rule="evenodd" clip-rule="evenodd" d="M1476.12 61.1821H1566.88V96.7356H1476.12V61.1821Z" fill="#005F96" fill-opacity="0.501961"/>
<path fill-rule="evenodd" clip-rule="evenodd" d="M1415.67 21.8911H1600.46V39.3049H1415.67V21.8911Z" fill="#005F96" fill-opacity="0.501961"/>
<path fill-rule="evenodd" clip-rule="evenodd" d="M483.558 24.0215H663.106V41.4352H483.558V24.0215Z" fill="#005F96" fill-opacity="0.501961"/>
<path fill-rule="evenodd" clip-rule="evenodd" d="M599.238 14.6733H778.787V32.0871H599.238V14.6733Z" fill="#005F96" fill-opacity="0.501961"/>
<path fill-rule="evenodd" clip-rule="evenodd" d="M439.186 0H618.733V17.4149H439.186V0Z" fill="#005F96" fill-opacity="0.501961"/>
<path fill-rule="evenodd" clip-rule="evenodd" d="M319.542 8.38379H459.744V25.7987H319.542V8.38379Z" fill="#005F96" fill-opacity="0.501961"/>
<path fill-rule="evenodd" clip-rule="evenodd" d="M1102.13 23.4546H1192.89V59.0069H1102.13V23.4546Z" fill="#005F96" fill-opacity="0.501961"/>
<path fill-rule="evenodd" clip-rule="evenodd" d="M1027.12 40.2236H1117.88V75.7759H1027.12V40.2236Z" fill="#005F96" fill-opacity="0.501961"/>
<path fill-rule="evenodd" clip-rule="evenodd" d="M1162.67 24.3442H1342.22V41.758H1162.67V24.3442Z" fill="#005F96" fill-opacity="0.501961"/>
<path fill-rule="evenodd" clip-rule="evenodd" d="M811.058 24.8896H990.605V49.7443H811.058V24.8896Z" fill="#005F96" fill-opacity="0.501961"/>
<path d="M214.173 29.5977H320.917V133.06H214.173V29.5977Z" fill="#04669B"/>
<path fill-rule="evenodd" clip-rule="evenodd" d="M107.431 29.5977H214.175V133.06H107.431V29.5977Z" fill="#005F96" fill-opacity="0.901961"/>
<path fill-rule="evenodd" clip-rule="evenodd" d="M-106.056 29.5977H0.688477V133.06H-106.056V29.5977Z" fill="#005F96" fill-opacity="0.8"/>
<path fill-rule="evenodd" clip-rule="evenodd" d="M107.431 29.5977H0.688278V133.06H107.431V29.5977Z" fill="#005F96" fill-opacity="0.901961"/>
<path fill-rule="evenodd" clip-rule="evenodd" d="M244.027 60.6611H153.269V96.2134H244.027V60.6611Z" fill="#005F96" fill-opacity="0.501961"/>
<path fill-rule="evenodd" clip-rule="evenodd" d="M247.725 34.2993H68.1777V51.7131H247.725V34.2993Z" fill="#005F96" fill-opacity="0.501961"/>
<path fill-rule="evenodd" clip-rule="evenodd" d="M107.43 57.1538H-72.1172V74.5676H107.43V57.1538Z" fill="#005F96" fill-opacity="0.501961"/>
<path fill-rule="evenodd" clip-rule="evenodd" d="M320.917 32.3638H219.297V67.9172H320.917V32.3638Z" fill="#005F96" fill-opacity="0.501961"/>
<path fill-rule="evenodd" clip-rule="evenodd" d="M156.901 24.0215H-22.6477V41.4352H156.901V24.0215Z" fill="#005F96" fill-opacity="0.501961"/>
<path fill-rule="evenodd" clip-rule="evenodd" d="M41.2202 14.6733H-138.328V32.0871H41.2202V14.6733Z" fill="#005F96" fill-opacity="0.501961"/>
<path fill-rule="evenodd" clip-rule="evenodd" d="M201.272 0H21.7251V17.4149H201.272V0Z" fill="#005F96" fill-opacity="0.501961"/>
<path fill-rule="evenodd" clip-rule="evenodd" d="M320.917 8.38379H180.714V25.7987H320.917V8.38379Z" fill="#005F96" fill-opacity="0.501961"/>
<path fill-rule="evenodd" clip-rule="evenodd" d="M2026.06 29.5977H1919.31V133.06H2026.06V29.5977Z" fill="#005F96" fill-opacity="0.6"/>
<path fill-rule="evenodd" clip-rule="evenodd" d="M1812.57 29.5977H1919.31V133.06H1812.57V29.5977Z" fill="#005F96" fill-opacity="0.701961"/>
<path fill-rule="evenodd" clip-rule="evenodd" d="M1599.08 29.5977H1705.83V133.06H1599.08V29.5977Z" fill="#005F96" fill-opacity="0.901961"/>
<path fill-rule="evenodd" clip-rule="evenodd" d="M1812.57 29.5977H1705.83V133.06H1812.57V29.5977Z" fill="#005F96" fill-opacity="0.8"/>
<path fill-rule="evenodd" clip-rule="evenodd" d="M1909.38 14.6733H1729.84V32.0871H1909.38V14.6733Z" fill="#005F96" fill-opacity="0.501961"/>
<path fill-rule="evenodd" clip-rule="evenodd" d="M1792.09 32.8862H1701.34V68.4397H1792.09V32.8862Z" fill="#005F96" fill-opacity="0.501961"/>
<path fill-rule="evenodd" clip-rule="evenodd" d="M1867.1 49.6553H1776.34V85.2075H1867.1V49.6553Z" fill="#005F96" fill-opacity="0.501961"/>
<path fill-rule="evenodd" clip-rule="evenodd" d="M1723.42 61.1821H1632.67V96.7356H1723.42V61.1821Z" fill="#005F96" fill-opacity="0.501961"/>
<path fill-rule="evenodd" clip-rule="evenodd" d="M1783.88 21.8911H1599.08V39.3049H1783.88V21.8911Z" fill="#005F96" fill-opacity="0.501961"/>
<path fill-rule="evenodd" clip-rule="evenodd" d="M2036.87 24.3442H1857.32V41.758H2036.87V24.3442Z" fill="#005F96" fill-opacity="0.501961"/>
</svg>
