<svg width="1920" height="87" viewBox="0 0 1920 87" fill="none" xmlns="http://www.w3.org/2000/svg">
<path d="M1874.2 57.171L1929.11 57.171V6.35406L1874.2 6.35406V57.171Z" fill="#F0B3BB"/>
<path fill-rule="evenodd" clip-rule="evenodd" d="M1819.3 57.171L1874.2 57.171V6.35329L1819.3 6.35329V57.171Z" fill="#EC8D92" fill-opacity="0.901961"/>
<path fill-rule="evenodd" clip-rule="evenodd" d="M1709.5 57.171L1764.4 57.171V6.35329L1709.5 6.35329V57.171Z" fill="#F0B3BB" fill-opacity="0.8"/>
<path fill-rule="evenodd" clip-rule="evenodd" d="M1819.3 57.171L1764.4 57.171V6.35329L1819.3 6.35329V57.171Z" fill="#EC8D92" fill-opacity="0.901961"/>
<path fill-rule="evenodd" clip-rule="evenodd" d="M1489.88 57.171L1544.79 57.171V6.35329L1489.88 6.35329V57.171Z" fill="#EC8D92" fill-opacity="0.501961"/>
<path fill-rule="evenodd" clip-rule="evenodd" d="M1599.69 57.171L1544.79 57.171V6.35329L1599.69 6.35329V57.171Z" fill="#EC8D92" fill-opacity="0.4"/>
<path fill-rule="evenodd" clip-rule="evenodd" d="M1709.5 57.171L1654.59 57.171V6.35329L1709.5 6.35329V57.171Z" fill="#EC8D92" fill-opacity="0.701961"/>
<path fill-rule="evenodd" clip-rule="evenodd" d="M1599.69 57.171L1654.59 57.171V6.35329L1599.69 6.35329V57.171Z" fill="#F0B3BB" fill-opacity="0.6"/>
<path fill-rule="evenodd" clip-rule="evenodd" d="M1489.88 57.171L1434.98 57.171V6.35329L1489.88 6.35329V57.171Z" fill="#F0B3BB" fill-opacity="0.6"/>
<path fill-rule="evenodd" clip-rule="evenodd" d="M1380.08 57.171L1434.98 57.171V6.35329L1380.08 6.35329V57.171Z" fill="#EC8D92" fill-opacity="0.701961"/>
<path fill-rule="evenodd" clip-rule="evenodd" d="M1263.38 57.171L1325.18 57.171V6.35329L1263.38 6.35329V57.171Z" fill="#F0B3BB" fill-opacity="0.901961"/>
<path fill-rule="evenodd" clip-rule="evenodd" d="M1380.08 57.171L1325.18 57.171V6.35329L1380.08 6.35329V57.171Z" fill="#F0B3BB" fill-opacity="0.8"/>
<path fill-rule="evenodd" clip-rule="evenodd" d="M1429.87 69.0853L1337.52 69.0853V55.1839L1429.87 55.1839V69.0853Z" fill="#F0B3BB" fill-opacity="0.501961"/>
<path fill-rule="evenodd" clip-rule="evenodd" d="M1889.56 32.3721L1842.88 32.3721V3.98948L1889.56 3.98948V32.3721Z" fill="#FEFEFE" fill-opacity="0.501961"/>
<path fill-rule="evenodd" clip-rule="evenodd" d="M1891.46 61.6234L1799.11 61.6234V39.5163L1891.46 39.5163V61.6234Z" fill="#FEFEFE" fill-opacity="0.501961"/>
<path fill-rule="evenodd" clip-rule="evenodd" d="M1819.3 35.1716L1726.95 35.1716V21.2702L1819.3 21.2702V35.1716Z" fill="#FEFEFE" fill-opacity="0.501961"/>
<path fill-rule="evenodd" clip-rule="evenodd" d="M1763.88 45.47L1671.53 45.47V31.5671L1763.88 31.5671V45.47Z" fill="#FEFEFE" fill-opacity="0.501961"/>
<path fill-rule="evenodd" clip-rule="evenodd" d="M1929.11 54.9626L1876.84 54.9626V26.5792L1929.11 26.5792V54.9626Z" fill="#FEFEFE" fill-opacity="0.501961"/>
<path fill-rule="evenodd" clip-rule="evenodd" d="M1684.93 35.4609L1638.25 35.4609V7.07829L1684.93 7.07829V35.4609Z" fill="#FEFEFE" fill-opacity="0.501961"/>
<path fill-rule="evenodd" clip-rule="evenodd" d="M1592.87 30.6989L1546.19 30.6989V2.31627L1592.87 2.31627V30.6989Z" fill="#FEFEFE" fill-opacity="0.501961"/>
<path fill-rule="evenodd" clip-rule="evenodd" d="M1369.55 54.5458L1322.86 54.5458V26.1624L1369.55 26.1624V54.5458Z" fill="#FEFEFE" fill-opacity="0.501961"/>
<path fill-rule="evenodd" clip-rule="evenodd" d="M1408.13 41.1589L1361.44 41.1589V12.7754L1408.13 12.7754V41.1589Z" fill="#FEFEFE" fill-opacity="0.501961"/>
<path fill-rule="evenodd" clip-rule="evenodd" d="M1334.23 31.9557L1287.55 31.9557V3.5731L1334.23 3.5731V31.9557Z" fill="#FEFEFE" fill-opacity="0.501961"/>
<path fill-rule="evenodd" clip-rule="evenodd" d="M1365.32 63.3234L1270.27 63.3234V49.4212L1365.32 49.4212V63.3234Z" fill="#FEFEFE" fill-opacity="0.501961"/>
<path fill-rule="evenodd" clip-rule="evenodd" d="M1747.15 76.0364L1654.8 76.0364V62.135L1747.15 62.135V76.0364Z" fill="#EC8D92" fill-opacity="0.501961"/>
<path fill-rule="evenodd" clip-rule="evenodd" d="M1844.75 61.6234L1752.4 61.6234V47.7203L1844.75 47.7203V61.6234Z" fill="#EC8D92" fill-opacity="0.501961"/>
<path fill-rule="evenodd" clip-rule="evenodd" d="M1785.25 69.0853L1692.9 69.0853V55.1839L1785.25 55.1839V69.0853Z" fill="#EC8D92" fill-opacity="0.501961"/>
<path fill-rule="evenodd" clip-rule="evenodd" d="M1867.57 80.7994L1775.22 80.7994V66.8963L1867.57 66.8963V80.7994Z" fill="#EC8D92" fill-opacity="0.501961"/>
<path fill-rule="evenodd" clip-rule="evenodd" d="M1933 74.1055L1856.99 74.1055V60.2041L1933 60.2041V74.1055Z" fill="#EC8D92" fill-opacity="0.501961"/>
<path fill-rule="evenodd" clip-rule="evenodd" d="M1505.6 78.9814L1413.25 78.9814V65.08L1505.6 65.08V78.9814Z" fill="#F0B3BB" fill-opacity="0.501961"/>
<path fill-rule="evenodd" clip-rule="evenodd" d="M1633.64 79.6726L1541.29 79.6726V65.771L1633.64 65.771V79.6726Z" fill="#F0B3BB" fill-opacity="0.501961"/>
<path fill-rule="evenodd" clip-rule="evenodd" d="M1573.6 73.8154H1519.61V59.9139L1573.6 59.9139V73.8154Z" fill="#F0B3BB" fill-opacity="0.501961"/>
<path fill-rule="evenodd" clip-rule="evenodd" d="M1526.58 62.0759L1479.9 62.0759V33.6925L1526.58 33.6925V62.0759Z" fill="#FEFEFE" fill-opacity="0.501961"/>
<path fill-rule="evenodd" clip-rule="evenodd" d="M1565.16 48.6885L1518.48 48.6885V20.3058L1565.16 20.3058V48.6885Z" fill="#FEFEFE" fill-opacity="0.501961"/>
<path fill-rule="evenodd" clip-rule="evenodd" d="M1495.45 61.3663L1403.1 61.3663V47.4639L1495.45 47.4639V61.3663Z" fill="#FEFEFE" fill-opacity="0.501961"/>
<path fill-rule="evenodd" clip-rule="evenodd" d="M1676.3 60.9299L1583.95 60.9299V41.0878L1676.3 41.0878V60.9299Z" fill="#F0B3BB" fill-opacity="0.501961"/>
<path d="M383.661 54.855L438.564 54.855V4.03808L383.661 4.03808V54.855Z" fill="#EC8D92"/>
<path fill-rule="evenodd" clip-rule="evenodd" d="M328.758 54.855L383.661 54.855V4.03808L328.758 4.03808V54.855Z" fill="#F0B3BB" fill-opacity="0.901961"/>
<path fill-rule="evenodd" clip-rule="evenodd" d="M218.952 54.855L273.855 54.855V4.03808L218.952 4.03808V54.855Z" fill="#EC8D92" fill-opacity="0.8"/>
<path fill-rule="evenodd" clip-rule="evenodd" d="M328.758 54.855L273.856 54.855V4.03808L328.758 4.03808V54.855Z" fill="#EC8D92" fill-opacity="0.901961"/>
<path fill-rule="evenodd" clip-rule="evenodd" d="M-0.659245 54.855L54.2437 54.855L54.2437 4.03808L-0.659245 4.03808L-0.659245 54.855Z" fill="#EC8D92" fill-opacity="0.501961"/>
<path fill-rule="evenodd" clip-rule="evenodd" d="M109.147 54.855L54.2441 54.855L54.2441 4.03808L109.147 4.03808V54.855Z" fill="#F0B3BB" fill-opacity="0.4"/>
<path fill-rule="evenodd" clip-rule="evenodd" d="M218.953 54.855L164.05 54.855V4.03808L218.953 4.03808V54.855Z" fill="#F0B3BB" fill-opacity="0.701961"/>
<path fill-rule="evenodd" clip-rule="evenodd" d="M109.146 54.855L164.05 54.855V4.03808L109.146 4.03808V54.855Z" fill="#EC8D92" fill-opacity="0.6"/>
<path fill-rule="evenodd" clip-rule="evenodd" d="M399.017 30.0564L352.335 30.0564V1.6736L399.017 1.6736V30.0564Z" fill="#FEFEFE" fill-opacity="0.501961"/>
<path fill-rule="evenodd" clip-rule="evenodd" d="M400.918 59.3073L308.568 59.3073V37.2001L400.918 37.2001V59.3073Z" fill="#FEFEFE" fill-opacity="0.501961"/>
<path fill-rule="evenodd" clip-rule="evenodd" d="M328.758 32.8557L236.408 32.8557V18.9541L328.758 18.9541V32.8557Z" fill="#FEFEFE" fill-opacity="0.501961"/>
<path fill-rule="evenodd" clip-rule="evenodd" d="M273.332 43.1541L180.982 43.1541V29.251L273.332 29.251V43.1541Z" fill="#FEFEFE" fill-opacity="0.501961"/>
<path fill-rule="evenodd" clip-rule="evenodd" d="M438.564 52.6466L386.297 52.6466V24.264L438.564 24.264V52.6466Z" fill="#FEFEFE" fill-opacity="0.501961"/>
<path fill-rule="evenodd" clip-rule="evenodd" d="M194.392 33.1449L147.71 33.1449V4.76302L194.392 4.76302V33.1449Z" fill="#FEFEFE" fill-opacity="0.501961"/>
<path fill-rule="evenodd" clip-rule="evenodd" d="M102.33 28.3829L55.6483 28.3829V0.000135422L102.33 0.000135422V28.3829Z" fill="#FEFEFE" fill-opacity="0.501961"/>
<path fill-rule="evenodd" clip-rule="evenodd" d="M238.036 77.3637L145.685 77.3637V63.4623L238.036 63.4623V77.3637Z" fill="#F0B3BB" fill-opacity="0.501961"/>
<path fill-rule="evenodd" clip-rule="evenodd" d="M354.203 59.3073L261.854 59.3073V45.4057L354.203 45.4057V59.3073Z" fill="#F0B3BB" fill-opacity="0.501961"/>
<path fill-rule="evenodd" clip-rule="evenodd" d="M294.703 66.7694L202.353 66.7694V52.868L294.703 52.868V66.7694Z" fill="#EC8D92" fill-opacity="0.501961"/>
<path fill-rule="evenodd" clip-rule="evenodd" d="M377.025 78.4833L284.676 78.4833V64.581L377.025 64.581V78.4833Z" fill="#F0B3BB" fill-opacity="0.501961"/>
<path fill-rule="evenodd" clip-rule="evenodd" d="M442.457 71.7898L366.451 71.7898V57.8884L442.457 57.8884V71.7898Z" fill="#F0B3BB" fill-opacity="0.501961"/>
<path fill-rule="evenodd" clip-rule="evenodd" d="M143.099 77.3567L50.7491 77.3567V63.4553L143.099 63.4553V77.3567Z" fill="#F0B3BB" fill-opacity="0.501961"/>
<path fill-rule="evenodd" clip-rule="evenodd" d="M83.0562 71.4993H29.0705V57.5979L83.0562 57.5979V71.4993Z" fill="#EC8D92" fill-opacity="0.501961"/>
<path fill-rule="evenodd" clip-rule="evenodd" d="M36.0415 59.7601L-10.64 59.7601V31.3767L36.0415 31.3767V59.7601Z" fill="#FEFEFE" fill-opacity="0.501961"/>
<path fill-rule="evenodd" clip-rule="evenodd" d="M74.6201 46.3726L27.9386 46.3726V17.9899L74.6201 17.9899V46.3726Z" fill="#FEFEFE" fill-opacity="0.501961"/>
<path fill-rule="evenodd" clip-rule="evenodd" d="M4.90234 59.0498L-87.4471 59.0498V45.1484L4.90234 45.1484L4.90234 59.0498Z" fill="#FEFEFE" fill-opacity="0.501961"/>
<path fill-rule="evenodd" clip-rule="evenodd" d="M185.753 58.614L93.404 58.614V38.7719L185.753 38.7719V58.614Z" fill="#EC8D92" fill-opacity="0.501961"/>
<path d="M1197.48 62.0965L1266.13 62.0965V9.14807L1197.48 9.14807V62.0965Z" fill="#EC8D92"/>
<path fill-rule="evenodd" clip-rule="evenodd" d="M1128.83 62.097L1197.48 62.097V9.14786L1128.83 9.14786V62.097Z" fill="#EC8D92" fill-opacity="0.901961"/>
<path fill-rule="evenodd" clip-rule="evenodd" d="M991.544 62.097L1060.19 62.097V9.14786L991.544 9.14786V62.097Z" fill="#F0B3BB" fill-opacity="0.8"/>
<path fill-rule="evenodd" clip-rule="evenodd" d="M1128.84 62.097L1060.19 62.097V9.14786L1128.84 9.14786V62.097Z" fill="#EC8D92" fill-opacity="0.901961"/>
<path fill-rule="evenodd" clip-rule="evenodd" d="M716.962 62.097L785.608 62.097V9.14786L716.962 9.14786V62.097Z" fill="#EC8D92" fill-opacity="0.501961"/>
<path fill-rule="evenodd" clip-rule="evenodd" d="M854.253 62.097L785.608 62.097V9.14786L854.253 9.14786V62.097Z" fill="#F0B3BB" fill-opacity="0.4"/>
<path fill-rule="evenodd" clip-rule="evenodd" d="M991.544 62.097L922.898 62.097V9.14786L991.544 9.14786V62.097Z" fill="#F0B3BB" fill-opacity="0.701961"/>
<path fill-rule="evenodd" clip-rule="evenodd" d="M854.253 62.097L922.899 62.097V9.14786L854.253 9.14786V62.097Z" fill="#EC8D92" fill-opacity="0.6"/>
<path fill-rule="evenodd" clip-rule="evenodd" d="M716.962 62.097L648.317 62.097V9.14786L716.962 9.14786V62.097Z" fill="#F0B3BB" fill-opacity="0.6"/>
<path fill-rule="evenodd" clip-rule="evenodd" d="M579.671 62.097L648.316 62.097V9.14786L579.671 9.14786V62.097Z" fill="#EC8D92" fill-opacity="0.701961"/>
<path fill-rule="evenodd" clip-rule="evenodd" d="M433.766 62.097L511.025 62.097V9.14786L433.766 9.14786V62.097Z" fill="#EC8D92" fill-opacity="0.901961"/>
<path fill-rule="evenodd" clip-rule="evenodd" d="M579.671 62.097L511.025 62.097V9.14786L579.671 9.14786V62.097Z" fill="#F0B3BB" fill-opacity="0.8"/>
<path fill-rule="evenodd" clip-rule="evenodd" d="M641.932 74.5113L526.466 74.5113V60.0262L641.932 60.0262V74.5113Z" fill="#F0B3BB" fill-opacity="0.501961"/>
<path fill-rule="evenodd" clip-rule="evenodd" d="M1216.68 36.2581L1158.31 36.2581V6.68449L1216.68 6.68449V36.2581Z" fill="#FEFEFE" fill-opacity="0.501961"/>
<path fill-rule="evenodd" clip-rule="evenodd" d="M1219.06 66.7355L1103.59 66.7355V43.7019L1219.06 43.7019V66.7355Z" fill="#FEFEFE" fill-opacity="0.501961"/>
<path fill-rule="evenodd" clip-rule="evenodd" d="M1128.84 39.1749L1013.37 39.1749V24.6899L1128.84 24.6899V39.1749Z" fill="#FEFEFE" fill-opacity="0.501961"/>
<path fill-rule="evenodd" clip-rule="evenodd" d="M1059.54 49.9045L944.07 49.9045V35.4194L1059.54 35.4194V49.9045Z" fill="#FEFEFE" fill-opacity="0.501961"/>
<path fill-rule="evenodd" clip-rule="evenodd" d="M1266.13 59.7953L1200.78 59.7953V30.2217L1266.13 30.2217V59.7953Z" fill="#FEFEFE" fill-opacity="0.501961"/>
<path fill-rule="evenodd" clip-rule="evenodd" d="M960.835 39.476L902.47 39.476V9.90244L960.835 9.90244V39.476Z" fill="#FEFEFE" fill-opacity="0.501961"/>
<path fill-rule="evenodd" clip-rule="evenodd" d="M845.731 34.5139L787.365 34.5139V4.94111L845.731 4.94111V34.5139Z" fill="#FEFEFE" fill-opacity="0.501961"/>
<path fill-rule="evenodd" clip-rule="evenodd" d="M566.504 59.3615L508.137 59.3615V29.7879L566.504 29.7879V59.3615Z" fill="#FEFEFE" fill-opacity="0.501961"/>
<path fill-rule="evenodd" clip-rule="evenodd" d="M614.74 45.4138L556.374 45.4138V15.84L614.74 15.84V45.4138Z" fill="#FEFEFE" fill-opacity="0.501961"/>
<path fill-rule="evenodd" clip-rule="evenodd" d="M522.342 35.8242L463.976 35.8242V6.25049L522.342 6.25049V35.8242Z" fill="#FEFEFE" fill-opacity="0.501961"/>
<path fill-rule="evenodd" clip-rule="evenodd" d="M561.219 68.5071L442.381 68.5071V54.0219L561.219 54.0219V68.5071Z" fill="#FEFEFE" fill-opacity="0.501961"/>
<path fill-rule="evenodd" clip-rule="evenodd" d="M1160.65 66.7355L1045.18 66.7355V52.2502L1160.65 52.2502V66.7355Z" fill="#EC8D92" fill-opacity="0.501961"/>
<path fill-rule="evenodd" clip-rule="evenodd" d="M1086.25 74.5113L970.789 74.5113V60.0262L1086.25 60.0262V74.5113Z" fill="#F0B3BB" fill-opacity="0.501961"/>
<path fill-rule="evenodd" clip-rule="evenodd" d="M1189.18 86.7157L1073.72 86.7157V72.2305L1189.18 72.2305V86.7157Z" fill="#F0B3BB" fill-opacity="0.501961"/>
<path fill-rule="evenodd" clip-rule="evenodd" d="M1270.99 79.7418L1175.96 79.7418V65.2575L1270.99 65.2575V79.7418Z" fill="#EC8D92" fill-opacity="0.501961"/>
<path fill-rule="evenodd" clip-rule="evenodd" d="M762.848 67.207L704.482 67.207V37.6342L762.848 37.6342V67.207Z" fill="#FEFEFE" fill-opacity="0.501961"/>
<path fill-rule="evenodd" clip-rule="evenodd" d="M811.086 53.2585L752.719 53.2585V23.6857L811.086 23.6857V53.2585Z" fill="#FEFEFE" fill-opacity="0.501961"/>
<path fill-rule="evenodd" clip-rule="evenodd" d="M723.917 66.4673L608.451 66.4673V51.9828L723.917 51.9828V66.4673Z" fill="#FEFEFE" fill-opacity="0.501961"/>
<path fill-rule="evenodd" clip-rule="evenodd" d="M950.036 66.0139L834.57 66.0139V45.3394L950.036 45.3394V66.0139Z" fill="#EC8D92" fill-opacity="0.501961"/>
<path fill-rule="evenodd" clip-rule="evenodd" d="M-227.16 11.2341L1927.98 11.2341V-2.00272e-05L-227.16 -2.00272e-05V11.2341Z" fill="url(#paint0_linear_26_1825)"/>
<path fill-rule="evenodd" clip-rule="evenodd" d="M972.774 51.6776L857.309 51.6776V34.7258L972.774 34.7258V51.6776Z" fill="#F0B3BB" fill-opacity="0.501961"/>
<path fill-rule="evenodd" clip-rule="evenodd" d="M1034.18 43.2021L918.717 43.2021V18.6401L1034.18 18.6401V43.2021Z" fill="#EC8D92" fill-opacity="0.501961"/>
<path fill-rule="evenodd" clip-rule="evenodd" d="M884.903 79.9529L769.438 79.9529V71.9944L884.903 71.9944V79.9529Z" fill="#EC8D92" fill-opacity="0.501961"/>
<defs>
<linearGradient id="paint0_linear_26_1825" x1="1927.98" y1="5.61663" x2="-227.161" y2="5.61663" gradientUnits="userSpaceOnUse">
<stop stop-color="#EBECEC"/>
<stop offset="0.0784314" stop-color="#D9DADA"/>
<stop offset="0.160784" stop-color="#EBECEC"/>
<stop offset="0.270588" stop-color="#D9DADA"/>
<stop offset="0.411765" stop-color="#EBECEC"/>
<stop offset="0.541176" stop-color="#D9DADA"/>
<stop offset="0.701961" stop-color="#EBECEC"/>
<stop offset="0.870588" stop-color="#EBECEC"/>
<stop offset="1" stop-color="#EBECEC"/>
</linearGradient>
</defs>
</svg>
